<svg width="25" height="25" viewBox="0 0 25 25" fill="none" xmlns="http://www.w3.org/2000/svg">
<path d="M12.5002 3.08301C6.75016 3.08301 2.0835 7.74967 2.0835 13.4997C2.0835 19.2497 6.75016 23.9163 12.5002 23.9163C18.2502 23.9163 22.9168 19.2497 22.9168 13.4997C22.9168 7.74967 18.2502 3.08301 12.5002 3.08301ZM13.5418 20.7913H11.4585V18.708H13.5418V20.7913ZM15.6981 12.7184L14.7606 13.6768C14.0106 14.4372 13.5418 15.0622 13.5418 16.6247H11.4585V16.1038C11.4585 14.958 11.9272 13.9163 12.6772 13.1559L13.9689 11.8434C14.3543 11.4684 14.5835 10.9476 14.5835 10.3747C14.5835 9.22884 13.646 8.29134 12.5002 8.29134C11.3543 8.29134 10.4168 9.22884 10.4168 10.3747H8.3335C8.3335 8.07259 10.1981 6.20801 12.5002 6.20801C14.8022 6.20801 16.6668 8.07259 16.6668 10.3747C16.6668 11.2913 16.2918 12.1247 15.6981 12.7184Z" fill="#222222"/>
</svg>
