<svg width="40" height="40" viewBox="0 0 40 40" fill="none" xmlns="http://www.w3.org/2000/svg">
<path fill-rule="evenodd" clip-rule="evenodd" d="M29.9998 20.0001C29.9998 20.3316 29.8681 20.6496 29.6337 20.884C29.3993 21.1184 29.0813 21.2501 28.7498 21.2501H14.2673L19.6348 26.6151C19.751 26.7313 19.8432 26.8693 19.9061 27.0212C19.969 27.173 20.0014 27.3358 20.0014 27.5001C20.0014 27.6645 19.969 27.8272 19.9061 27.9791C19.8432 28.1309 19.751 28.2689 19.6348 28.3851C19.5186 28.5013 19.3806 28.5935 19.2288 28.6564C19.0769 28.7193 18.9142 28.7517 18.7498 28.7517C18.5854 28.7517 18.4227 28.7193 18.2708 28.6564C18.119 28.5935 17.981 28.5013 17.8648 28.3851L10.3648 20.8851C10.2484 20.769 10.156 20.6311 10.093 20.4792C10.03 20.3273 9.99756 20.1645 9.99756 20.0001C9.99756 19.8357 10.03 19.6729 10.093 19.521C10.156 19.3692 10.2484 19.2312 10.3648 19.1151L17.8648 11.6151C18.0995 11.3804 18.4179 11.2485 18.7498 11.2485C19.0817 11.2485 19.4001 11.3804 19.6348 11.6151C19.8695 11.8498 20.0014 12.1682 20.0014 12.5001C20.0014 12.8321 19.8695 13.1504 19.6348 13.3851L14.2673 18.7501H28.7498C29.0813 18.7501 29.3993 18.8818 29.6337 19.1162C29.8681 19.3507 29.9998 19.6686 29.9998 20.0001Z" fill="black"/>
</svg>
