<svg width="28" height="26" viewBox="0 0 28 26" fill="none" xmlns="http://www.w3.org/2000/svg">
<path d="M24 11C23.9991 9.9266 23.7103 8.87309 23.1639 7.9492C22.6174 7.0253 21.8332 6.26483 20.893 5.747C21.6016 5.00783 21.9981 4.02398 22 3H20C19.9995 3.53027 19.7886 4.03867 19.4136 4.41363C19.0387 4.78859 18.5303 4.99947 18 5C16.4284 5.00208 14.9203 5.62029 13.7994 6.7219C12.6786 7.82351 12.0343 9.32069 12.005 10.892C10.7229 9.58612 10.0032 7.83006 10 6C9.99737 5.11561 9.70142 4.25708 9.15853 3.55892C8.61564 2.86076 7.85648 2.36243 7 2.142V0H5V2.142C4.14352 2.36243 3.38436 2.86076 2.84147 3.55892C2.29858 4.25708 2.00263 5.11561 2 6V11H0V12C0 15.713 1.475 19.274 4.1005 21.8995C6.72601 24.525 10.287 26 14 26C17.713 26 21.274 24.525 23.8995 21.8995C26.525 19.274 28 15.713 28 12V11H24ZM18 7C19.0605 7.00132 20.0771 7.42318 20.827 8.17303C21.5768 8.92289 21.9987 9.93954 22 11H14C14.0013 9.93954 14.4232 8.92289 15.173 8.17303C15.9229 7.42318 16.9395 7.00132 18 7ZM4 6C4 5.46957 4.21071 4.96086 4.58579 4.58579C4.96086 4.21071 5.46957 4 6 4C6.53043 4 7.03914 4.21071 7.41421 4.58579C7.78929 4.96086 8 5.46957 8 6C8.00399 7.78164 8.53721 9.52194 9.532 11H4V6ZM14 24C10.9915 23.9963 8.09386 22.8642 5.87961 20.8275C3.66537 18.7908 2.29561 15.9977 2.041 13H25.96C25.7054 15.9979 24.3355 18.7912 22.121 20.8279C19.9066 22.8646 17.0087 23.9965 14 24Z" fill="black"/>
</svg>
