<svg width="15" height="13" viewBox="0 0 15 13" fill="none" xmlns="http://www.w3.org/2000/svg">
<path d="M13.434 7.65068L14.6244 2.36943C14.7103 1.98811 14.4229 1.625 14.035 1.625H4.14422L3.91341 0.487246C3.85589 0.203658 3.60841 0 3.32131 0H0.739486C0.405706 0 0.135132 0.272822 0.135132 0.609375V1.01562C0.135132 1.35218 0.405706 1.625 0.739486 1.625H2.49924L4.26819 10.345C3.84499 10.5904 3.55981 11.0506 3.55981 11.5781C3.55981 12.3634 4.19116 13 4.96997 13C5.74878 13 6.38013 12.3634 6.38013 11.5781C6.38013 11.1802 6.21778 10.8206 5.95648 10.5625H11.2357C10.9744 10.8206 10.8121 11.1802 10.8121 11.5781C10.8121 12.3634 11.4434 13 12.2222 13C13.001 13 13.6324 12.3634 13.6324 11.5781C13.6324 11.0152 13.3078 10.5287 12.8372 10.2983L12.9761 9.68193C13.062 9.30061 12.7746 8.9375 12.3868 8.9375H5.62763L5.46282 8.125H12.8446C13.1268 8.125 13.3714 7.92812 13.434 7.65068Z" fill="#FFC804"/>
</svg>
