<svg width="17" height="21" viewBox="0 0 17 21" fill="none" xmlns="http://www.w3.org/2000/svg">
<path d="M16.6667 10.4167C16.6667 9.26771 15.7323 8.33333 14.5833 8.33333H13.5417V5.20833C13.5417 2.33646 11.2052 0 8.33333 0C5.46146 0 3.125 2.33646 3.125 5.20833V8.33333H2.08333C0.934375 8.33333 0 9.26771 0 10.4167V18.75C0 19.899 0.934375 20.8333 2.08333 20.8333H14.5833C15.7323 20.8333 16.6667 19.899 16.6667 18.75V10.4167ZM5.20833 5.20833C5.20833 3.48542 6.61042 2.08333 8.33333 2.08333C10.0562 2.08333 11.4583 3.48542 11.4583 5.20833V8.33333H5.20833V5.20833Z" fill="#222222"/>
</svg>
