<svg width="21" height="21" viewBox="0 0 21 21" fill="none" xmlns="http://www.w3.org/2000/svg">
<path d="M0.937498 3.17871L3.5376 0.581055C3.72101 0.396835 3.93901 0.250669 4.17908 0.150953C4.41916 0.0512377 4.67656 -6.23037e-05 4.93652 5.67859e-08C5.46631 5.67859e-08 5.96435 0.20752 6.33789 0.581055L9.13574 3.37891C9.31996 3.56232 9.46613 3.78032 9.56584 4.0204C9.66556 4.26047 9.71686 4.51788 9.71679 4.77783C9.71679 5.30762 9.50928 5.80566 9.13574 6.1792L7.08984 8.2251C7.56874 9.28066 8.23456 10.2409 9.05517 11.0596C9.87373 11.8822 10.8339 12.5504 11.8896 13.0322L13.9355 10.9863C14.119 10.8021 14.337 10.6559 14.577 10.5562C14.8171 10.4565 15.0745 10.4052 15.3345 10.4053C15.8643 10.4053 16.3623 10.6128 16.7358 10.9863L19.5361 13.7817C19.7206 13.9655 19.8669 14.1839 19.9666 14.4244C20.0663 14.6649 20.1175 14.9228 20.1172 15.1831C20.1172 15.7129 19.9097 16.2109 19.5361 16.5845L16.9409 19.1797C16.3452 19.7778 15.5225 20.1172 14.6777 20.1172C14.4995 20.1172 14.3286 20.1025 14.1602 20.0732C10.8691 19.5312 7.60498 17.7808 4.9707 15.1489C2.33886 12.5195 0.590818 9.25781 0.041502 5.95703C-0.124514 4.94873 0.209959 3.91113 0.937498 3.17871Z" fill="#222222"/>
</svg>
