<svg width="22" height="18" viewBox="0 0 22 18" fill="none" xmlns="http://www.w3.org/2000/svg">
<path d="M3.52585 0C2.59073 0 1.69392 0.370395 1.0327 1.0297C0.371472 1.68901 0 2.58322 0 3.51562V4.6875H21.9386V3.51562C21.9386 2.58322 21.5671 1.68901 20.9059 1.0297C20.2447 0.370395 19.3479 0 18.4127 0H3.52585ZM0 13.6719V6.25H21.9386V13.6719C21.9386 14.6043 21.5671 15.4985 20.9059 16.1578C20.2447 16.8171 19.3479 17.1875 18.4127 17.1875H3.52585C2.59073 17.1875 1.69392 16.8171 1.0327 16.1578C0.371472 15.4985 0 14.6043 0 13.6719ZM14.8869 10.9375C14.6791 10.9375 14.4798 11.0198 14.3329 11.1663C14.1859 11.3128 14.1034 11.5115 14.1034 11.7188C14.1034 11.926 14.1859 12.1247 14.3329 12.2712C14.4798 12.4177 14.6791 12.5 14.8869 12.5H17.2375C17.4453 12.5 17.6446 12.4177 17.7915 12.2712C17.9384 12.1247 18.021 11.926 18.021 11.7188C18.021 11.5115 17.9384 11.3128 17.7915 11.1663C17.6446 11.0198 17.4453 10.9375 17.2375 10.9375H14.8869Z" fill="#222222"/>
</svg>
