<svg width="25" height="19" viewBox="0 0 25 19" fill="none" xmlns="http://www.w3.org/2000/svg">
<path d="M25 3.25C25 2.4212 24.6708 1.62634 24.0847 1.04029C23.4987 0.45424 22.7038 0.125 21.875 0.125H3.125C2.2962 0.125 1.50134 0.45424 0.915293 1.04029C0.329241 1.62634 0 2.4212 0 3.25V4.8125H25V3.25ZM25 7.9375V15.75C25 16.5788 24.6708 17.3737 24.0847 17.9597C23.4987 18.5458 22.7038 18.875 21.875 18.875H3.125C2.2962 18.875 1.50134 18.5458 0.915293 17.9597C0.329241 17.3737 0 16.5788 0 15.75V7.9375H25ZM20.3125 11.0625H18.75C18.3356 11.0625 17.9382 11.2271 17.6451 11.5201C17.3521 11.8132 17.1875 12.2106 17.1875 12.625V14.1875C17.1875 14.6019 17.3521 14.9993 17.6451 15.2924C17.9382 15.5854 18.3356 15.75 18.75 15.75H20.3125C20.7269 15.75 21.1243 15.5854 21.4174 15.2924C21.7104 14.9993 21.875 14.6019 21.875 14.1875V12.625C21.875 12.2106 21.7104 11.8132 21.4174 11.5201C21.1243 11.2271 20.7269 11.0625 20.3125 11.0625Z" fill="#222222"/>
</svg>
