<svg width="23" height="23" viewBox="0 0 23 23" fill="none" xmlns="http://www.w3.org/2000/svg">
<g clip-path="url(#clip0_1092_9940)">
<path d="M10.5938 1C8.31538 1.00269 6.13109 1.90896 4.52003 3.52002C2.90897 5.13108 2.0027 7.31537 2.00001 9.59375C1.99728 11.4556 2.60546 13.267 3.73126 14.75C3.73126 14.75 3.96563 15.0586 4.00392 15.1031L10.5938 22.875L17.1867 15.0992C17.2211 15.0578 17.4563 14.75 17.4563 14.75L17.457 14.7477C18.5823 13.2653 19.1902 11.4548 19.1875 9.59375C19.1848 7.31537 18.2785 5.13108 16.6675 3.52002C15.0564 1.90896 12.8721 1.00269 10.5938 1ZM10.5938 12.7188C9.97569 12.7188 9.37151 12.5355 8.8576 12.1921C8.3437 11.8487 7.94316 11.3607 7.70663 10.7896C7.47011 10.2186 7.40823 9.59028 7.5288 8.98409C7.64938 8.3779 7.94701 7.82108 8.38405 7.38404C8.82109 6.947 9.37791 6.64937 9.9841 6.5288C10.5903 6.40822 11.2186 6.4701 11.7896 6.70663C12.3607 6.94315 12.8487 7.34369 13.1921 7.85759C13.5355 8.3715 13.7188 8.97568 13.7188 9.59375C13.7177 10.4222 13.3882 11.2165 12.8023 11.8023C12.2165 12.3881 11.4222 12.7177 10.5938 12.7188Z" fill="#222222"/>
</g>
<defs>
<clipPath id="clip0_1092_9940">
<rect width="23" height="23" fill="white"/>
</clipPath>
</defs>
</svg>
