<svg width="35" height="25" viewBox="0 0 35 25" fill="none" xmlns="http://www.w3.org/2000/svg">
<rect width="35" height="25" rx="4" fill="#D5D5D5"/>
<path d="M18.7236 2C19.4414 2 20.1006 2.39307 20.4375 3.02441L21.126 4.2915L23.4404 2.3623C23.7236 2.12793 24.0752 2 24.4414 2H25.4375C26.3018 2 27 2.69971 27 3.5625V5.125C27 5.98926 26.3018 6.6875 25.4375 6.6875H22.4199L25.1104 11.624C25.7061 11.4775 26.3408 11.375 27 11.375C30.4521 11.375 33.25 14.1729 33.25 17.625C33.25 21.0771 30.4521 23.875 27 23.875C23.5479 23.875 20.75 21.0771 20.75 17.625C20.75 15.6279 21.6484 13.9287 23.0498 12.7812L22.2979 11.3848C20.3643 12.8105 19.1875 15.0762 19.1875 17.625C19.1875 18.1182 19.2412 18.6846 19.3438 19.1875H15.9062C16.0088 18.6846 16.0186 18.1182 16.0186 17.625C16.0186 13.3086 12.5664 9.8125 8.20605 9.8125H3.51855V8.25C3.51855 7.38574 4.26221 6.6875 5.08105 6.6875H10.0811C10.9111 6.6875 11.7021 7.01465 12.2881 7.60059L14.4561 9.8125L19.29 5.82324L18.4893 4.34375H15.6279C15.0225 4.34375 14.4561 3.81885 14.4561 3.17188C14.4561 2.5249 15.0225 2 15.6279 2H18.7236ZM23.875 17.625C23.875 19.3486 25.2764 20.75 27 20.75C28.7236 20.75 30.125 19.3486 30.125 17.625C30.125 15.9014 28.7236 14.5 27 14.5C26.8828 14.5 26.7656 14.5049 26.6533 14.5195L28.0303 17.0684C28.3379 17.6348 28.1279 18.3477 27.5566 18.6553C26.9902 18.9629 26.2773 18.7529 25.9697 18.1816L24.5928 15.6328C24.1436 16.1748 23.875 16.8682 23.875 17.625ZM14.3926 18.7969C13.8408 21.6875 11.3018 23.875 8.25 23.875C4.79834 23.875 2 21.0771 2 17.625C2 14.1729 4.79834 11.375 8.25 11.375C11.3018 11.375 13.8408 13.5625 14.3926 16.4531H11.1455C10.6865 15.3057 9.56348 14.5 8.25 14.5C6.52393 14.5 5.125 15.9014 5.125 17.625C5.125 19.3486 6.52393 20.75 8.25 20.75C9.56348 20.75 10.6865 19.9443 11.1455 18.7969H14.3926ZM6.6875 17.625C6.6875 16.7607 7.38574 16.0625 8.25 16.0625C9.11426 16.0625 9.8125 16.7607 9.8125 17.625C9.8125 18.4893 9.11426 19.1875 8.25 19.1875C7.38574 19.1875 6.6875 18.4893 6.6875 17.625Z" fill="#222222"/>
</svg>
