<svg width="220" height="214" viewBox="0 0 220 214" fill="none" xmlns="http://www.w3.org/2000/svg">
<g clip-path="url(#clip0_882_6549)">
<path d="M139.665 48.1276H80.3848C79.0339 48.1292 77.7388 48.6647 76.7836 49.6166C75.8284 50.5685 75.291 51.8591 75.2893 53.2053V184.498L74.61 184.705L60.0675 189.143C59.3783 189.352 58.6339 189.28 57.9977 188.943C57.3614 188.606 56.8854 188.031 56.674 187.345L13.4169 46.5399C13.2064 45.8531 13.2782 45.1111 13.6164 44.477C13.9546 43.8429 14.5317 43.3685 15.2207 43.1582L37.6306 36.3202L102.598 16.5035L125.007 9.66555C125.348 9.56095 125.707 9.5244 126.062 9.55799C126.417 9.59158 126.762 9.69464 127.078 9.86129C127.393 10.0279 127.672 10.2549 127.899 10.5292C128.126 10.8034 128.297 11.1196 128.401 11.4597L139.458 47.4505L139.665 48.1276Z" fill="#F2F2F2"/>
<path d="M152.601 47.451L139.274 4.0738C139.053 3.35105 138.69 2.67893 138.208 2.09583C137.725 1.51273 137.132 1.03009 136.462 0.675478C135.793 0.32087 135.059 0.101243 134.305 0.0291571C133.55 -0.0429291 132.788 0.0339376 132.063 0.255357L100.556 9.86578L35.5922 29.6858L4.08532 39.2996C2.62168 39.7475 1.39615 40.7558 0.677741 42.1031C-0.0406708 43.4505 -0.193272 45.0269 0.253441 46.4863L45.8 194.732C46.1629 195.91 46.8951 196.941 47.8892 197.674C48.8833 198.407 50.087 198.803 51.3236 198.804C51.8959 198.805 52.465 198.719 53.0118 198.55L74.6097 191.963L75.2891 191.753V191.046L74.6097 191.252L52.8114 197.904C51.5195 198.296 50.1241 198.162 48.9313 197.531C47.7386 196.899 46.8458 195.822 46.4489 194.536L0.905798 46.2866C0.709144 45.6491 0.640605 44.9793 0.704103 44.3154C0.767601 43.6515 0.961884 43.0066 1.27584 42.4177C1.58979 41.8287 2.01725 41.3073 2.53373 40.8832C3.0502 40.4591 3.64555 40.1407 4.28568 39.9462L35.7926 30.3324L100.756 10.5157L132.263 0.901926C132.749 0.754266 133.253 0.678977 133.761 0.678505C134.851 0.680943 135.911 1.03095 136.786 1.67727C137.661 2.32358 138.306 3.23224 138.626 4.27014L151.891 47.4511L152.101 48.1281H152.808L152.601 47.451Z" fill="#3F3D56"/>
<path d="M41.6744 43.2688C41.0197 43.2683 40.3823 43.0588 39.8559 42.6709C39.3294 42.283 38.9416 41.7372 38.7492 41.1135L34.3738 26.8716C34.2562 26.4891 34.2154 26.0872 34.2537 25.6889C34.292 25.2906 34.4087 24.9038 34.597 24.5504C34.7854 24.1971 35.0418 23.8842 35.3515 23.6296C35.6612 23.375 36.0182 23.1837 36.4022 23.0666L96.1681 4.83298C96.9434 4.59721 97.7809 4.67762 98.4968 5.05655C99.2127 5.43549 99.7485 6.08198 99.9865 6.85415L104.362 21.0962C104.598 21.8688 104.518 22.7034 104.137 23.4167C103.757 24.1301 103.109 24.664 102.334 24.9014L42.5676 43.135C42.2782 43.2235 41.9772 43.2686 41.6744 43.2688Z" fill="#F5F5F5"/>
<path d="M64.5947 15.2173C68.3469 15.2173 71.3887 12.1862 71.3887 8.44705C71.3887 4.70792 68.3469 1.67676 64.5947 1.67676C60.8425 1.67676 57.8008 4.70792 57.8008 8.44705C57.8008 12.1862 60.8425 15.2173 64.5947 15.2173Z" fill="#F5F5F5"/>
<path d="M64.5946 12.7345C66.9706 12.7345 68.8967 10.815 68.8967 8.44731C68.8967 6.07958 66.9706 4.16016 64.5946 4.16016C62.2186 4.16016 60.2925 6.07958 60.2925 8.44731C60.2925 10.815 62.2186 12.7345 64.5946 12.7345Z" fill="white"/>
<path d="M204.714 197.074H89.8962C89.1307 197.073 88.3968 196.77 87.8555 196.23C87.3142 195.691 87.0097 194.959 87.0088 194.196V57.0981C87.0096 56.3352 87.3141 55.6038 87.8554 55.0644C88.3968 54.525 89.1307 54.2216 89.8962 54.2207H204.714C205.479 54.2216 206.213 54.525 206.754 55.0644C207.296 55.6039 207.6 56.3352 207.601 57.0981V194.196C207.6 194.959 207.296 195.691 206.754 196.23C206.213 196.769 205.479 197.073 204.714 197.074Z" fill="#E6E6E6"/>
<path d="M151.891 47.4512H80.3847C78.8538 47.4533 77.3862 48.0603 76.3037 49.1391C75.2211 50.2178 74.612 51.6803 74.6099 53.2059V191.252L75.2893 191.046V53.2059C75.2909 51.8597 75.8283 50.5691 76.7835 49.6172C77.7387 48.6653 79.0338 48.1298 80.3847 48.1282H152.102L151.891 47.4512ZM214.225 47.4512H80.3847C78.8538 47.4533 77.3862 48.0603 76.3037 49.1391C75.2211 50.2178 74.612 51.6803 74.6099 53.2059V208.246C74.612 209.771 75.2211 211.234 76.3037 212.312C77.3862 213.391 78.8538 213.998 80.3847 214H214.225C215.756 213.998 217.224 213.391 218.306 212.312C219.389 211.234 219.998 209.771 220 208.246V53.2059C219.998 51.6803 219.389 50.2178 218.306 49.1391C217.224 48.0603 215.756 47.4533 214.225 47.4512ZM219.321 208.246C219.319 209.592 218.782 210.882 217.826 211.834C216.871 212.786 215.576 213.322 214.225 213.323H80.3847C79.0338 213.322 77.7387 212.786 76.7835 211.834C75.8283 210.882 75.2909 209.592 75.2893 208.246V53.2059C75.2909 51.8597 75.8283 50.5691 76.7835 49.6172C77.7387 48.6653 79.0338 48.1298 80.3847 48.1282H214.225C215.576 48.1298 216.871 48.6653 217.826 49.6172C218.782 50.5691 219.319 51.8597 219.321 53.2059V208.246Z" fill="#3F3D56"/>
<path d="M178.557 62.3453H116.053C115.242 62.3444 114.465 62.0231 113.892 61.452C113.319 60.8808 112.997 60.1064 112.996 59.2987V44.4041C112.997 43.5963 113.319 42.8219 113.892 42.2508C114.465 41.6796 115.242 41.3583 116.053 41.3574H178.557C179.368 41.3583 180.145 41.6796 180.718 42.2508C181.291 42.8219 181.613 43.5963 181.614 44.4041V59.2987C181.613 60.1064 181.291 60.8808 180.718 61.452C180.145 62.0231 179.368 62.3444 178.557 62.3453Z" fill="#F5F5F5"/>
<path d="M147.305 42.3736C151.057 42.3736 154.099 39.3424 154.099 35.6033C154.099 31.8642 151.057 28.833 147.305 28.833C143.552 28.833 140.511 31.8642 140.511 35.6033C140.511 39.3424 143.552 42.3736 147.305 42.3736Z" fill="#F5F5F5"/>
<path d="M147.305 39.727C149.59 39.727 151.443 37.8807 151.443 35.6032C151.443 33.3258 149.59 31.4795 147.305 31.4795C145.019 31.4795 143.167 33.3258 143.167 35.6032C143.167 37.8807 145.019 39.727 147.305 39.727Z" fill="white"/>
</g>
<defs>
<clipPath id="clip0_882_6549">
<rect width="220" height="214" fill="white"/>
</clipPath>
</defs>
</svg>
