<svg width="125" height="125" viewBox="0 0 125 125" fill="none" xmlns="http://www.w3.org/2000/svg">
<path d="M108.104 27.8385C107.615 27.2751 107.01 26.8231 106.33 26.5131C105.651 26.2032 104.913 26.0424 104.167 26.0417H32.1929L31.1772 19.9792C30.9751 18.763 30.348 17.658 29.4077 16.8607C28.4673 16.0634 27.2747 15.6256 26.0418 15.625H14.3231C12.9417 15.625 11.617 16.1737 10.6402 17.1505C9.66348 18.1272 9.11475 19.452 9.11475 20.8333C9.11475 22.2147 9.66348 23.5394 10.6402 24.5162C11.617 25.4929 12.9417 26.0417 14.3231 26.0417H21.6304L31.3179 84.1875L31.5522 84.8333L31.8335 85.6198L32.4585 86.5521L32.9533 87.1354L33.9585 87.8125L34.5418 88.151C35.1476 88.4042 35.7968 88.5369 36.4533 88.5417H93.7502C95.1315 88.5417 96.4563 87.9929 97.433 87.0162C98.4098 86.0394 98.9585 84.7147 98.9585 83.3333C98.9585 81.952 98.4098 80.6272 97.433 79.6505C96.4563 78.6737 95.1315 78.125 93.7502 78.125H40.87L40.0054 72.9167H98.9585C100.212 72.9168 101.423 72.465 102.37 71.6442C103.317 70.8234 103.937 69.6885 104.115 68.4479L109.323 31.9896C109.429 31.2508 109.374 30.4979 109.164 29.7818C108.954 29.0657 108.592 28.4031 108.104 27.8385ZM98.1616 36.4583L96.6773 46.875H78.1252V36.4583H98.1616ZM72.9168 36.4583V46.875H57.2918V36.4583H72.9168ZM72.9168 52.0833V62.5H57.2918V52.0833H72.9168ZM52.0835 36.4583V46.875H36.4585L35.6877 47.0312L33.9272 36.4583H52.0835ZM36.5314 52.0833H52.0835V62.5H38.2658L36.5314 52.0833ZM78.1252 62.5V52.0833H95.9272L94.4429 62.5H78.1252Z" fill="#B7B7B7"/>
<path d="M44.271 109.375C48.5857 109.375 52.0835 105.877 52.0835 101.562C52.0835 97.2478 48.5857 93.75 44.271 93.75C39.9563 93.75 36.4585 97.2478 36.4585 101.562C36.4585 105.877 39.9563 109.375 44.271 109.375Z" fill="#B7B7B7"/>
<path d="M91.146 109.375C95.4607 109.375 98.9585 105.877 98.9585 101.562C98.9585 97.2478 95.4607 93.75 91.146 93.75C86.8313 93.75 83.3335 97.2478 83.3335 101.562C83.3335 105.877 86.8313 109.375 91.146 109.375Z" fill="#B7B7B7"/>
</svg>
