<svg width="125" height="125" viewBox="0 0 125 125" fill="none" xmlns="http://www.w3.org/2000/svg">
<path d="M10.4166 20.8333C10.4166 19.452 10.9654 18.1272 11.9421 17.1505C12.9189 16.1737 14.2436 15.625 15.625 15.625H109.375C110.756 15.625 112.081 16.1737 113.058 17.1505C114.035 18.1272 114.583 19.452 114.583 20.8333V49.4792C111.13 49.4792 107.818 50.851 105.376 53.2929C102.934 55.7348 101.562 59.0467 101.562 62.5C101.562 65.9533 102.934 69.2652 105.376 71.7071C107.818 74.149 111.13 75.5208 114.583 75.5208V104.167C114.583 105.548 114.035 106.873 113.058 107.85C112.081 108.826 110.756 109.375 109.375 109.375H15.625C14.2436 109.375 12.9189 108.826 11.9421 107.85C10.9654 106.873 10.4166 105.548 10.4166 104.167V20.8333ZM42.1093 98.9583C42.6462 97.4323 43.6435 96.1106 44.9636 95.1756C46.2836 94.2406 47.8614 93.7384 49.4791 93.7384C51.0968 93.7384 52.6746 94.2406 53.9947 95.1756C55.3148 96.1106 56.3121 97.4323 56.8489 98.9583H104.167V83.5C100.254 81.561 96.961 78.5675 94.6588 74.857C92.3565 71.1465 91.1366 66.8667 91.1366 62.5C91.1366 58.1333 92.3565 53.8535 94.6588 50.143C96.961 46.4326 100.254 43.439 104.167 41.5V26.0417H56.8489C56.3121 27.5677 55.3148 28.8894 53.9947 29.8244C52.6746 30.7594 51.0968 31.2616 49.4791 31.2616C47.8614 31.2616 46.2836 30.7594 44.9636 29.8244C43.6435 28.8894 42.6462 27.5677 42.1093 26.0417H20.8333V98.9583H42.1093ZM49.4791 57.2917C47.4071 57.2917 45.42 56.4686 43.9549 55.0034C42.4897 53.5383 41.6666 51.5512 41.6666 49.4792C41.6666 47.4072 42.4897 45.42 43.9549 43.9549C45.42 42.4898 47.4071 41.6667 49.4791 41.6667C51.5511 41.6667 53.5383 42.4898 55.0034 43.9549C56.4685 45.42 57.2916 47.4072 57.2916 49.4792C57.2916 51.5512 56.4685 53.5383 55.0034 55.0034C53.5383 56.4686 51.5511 57.2917 49.4791 57.2917ZM49.4791 83.3333C47.4071 83.3333 45.42 82.5102 43.9549 81.0451C42.4897 79.58 41.6666 77.5928 41.6666 75.5208C41.6666 73.4488 42.4897 71.4617 43.9549 69.9966C45.42 68.5314 47.4071 67.7083 49.4791 67.7083C51.5511 67.7083 53.5383 68.5314 55.0034 69.9966C56.4685 71.4617 57.2916 73.4488 57.2916 75.5208C57.2916 77.5928 56.4685 79.58 55.0034 81.0451C53.5383 82.5102 51.5511 83.3333 49.4791 83.3333Z" fill="#AEAEAE"/>
</svg>
