<svg width="48" height="48" viewBox="0 0 48 48" fill="none" xmlns="http://www.w3.org/2000/svg">
<circle cx="24" cy="24" r="24" fill="#F0EFEF"/>
<path d="M24.5 14C25.8924 14 27.2277 14.5243 28.2123 15.4575C29.1969 16.3907 29.75 17.6563 29.75 18.9761C29.75 20.2958 29.1969 21.5615 28.2123 22.4947C27.2277 23.4279 25.8924 23.9522 24.5 23.9522C23.1076 23.9522 21.7723 23.4279 20.7877 22.4947C19.8031 21.5615 19.25 20.2958 19.25 18.9761C19.25 17.6563 19.8031 16.3907 20.7877 15.4575C21.7723 14.5243 23.1076 14 24.5 14ZM24.5 26.4402C30.3012 26.4402 35 28.667 35 31.4163V33.9043H14V31.4163C14 28.667 18.6988 26.4402 24.5 26.4402Z" fill="#BDBDBD"/>
</svg>
