<svg width="220" height="220" viewBox="0 0 220 220" fill="none" xmlns="http://www.w3.org/2000/svg">
<path d="M91.7583 192.592C91.7583 202.675 99.9167 210.833 110 210.833C120.083 210.833 128.242 202.675 128.242 192.592H91.7583ZM110 55C135.3 55 155.833 75.5333 155.833 100.833V165H64.1667V100.833C64.1667 75.5333 84.7 55 110 55ZM110 13.75C102.392 13.75 96.25 19.8917 96.25 27.5V38.225C67.4667 44.4583 45.8333 70.125 45.8333 100.833V155.833L27.5 174.167V183.333H192.5V174.167L174.167 155.833V100.833C174.167 70.125 152.533 44.4583 123.75 38.225V27.5C123.75 19.8917 117.608 13.75 110 13.75ZM100.833 73.3333H119.167V110H100.833V73.3333ZM100.833 128.333H119.167V146.667H100.833V128.333Z" fill="#B7B7B7"/>
</svg>
