<svg width="80" height="80" viewBox="0 0 80 80" fill="none" xmlns="http://www.w3.org/2000/svg">
<circle cx="40" cy="40" r="40" fill="#F0EFEF"/>
<path d="M40 23C42.3869 23 44.6761 23.8955 46.364 25.4896C48.0518 27.0837 49 29.2457 49 31.5C49 33.7543 48.0518 35.9163 46.364 37.5104C44.6761 39.1045 42.3869 40 40 40C37.6131 40 35.3239 39.1045 33.636 37.5104C31.9482 35.9163 31 33.7543 31 31.5C31 29.2457 31.9482 27.0837 33.636 25.4896C35.3239 23.8955 37.6131 23 40 23ZM40 44.25C49.945 44.25 58 48.0537 58 52.75V57H22V52.75C22 48.0537 30.055 44.25 40 44.25Z" fill="#BDBDBD"/>
</svg>
