<svg width="20" height="18" viewBox="0 0 20 18" fill="none" xmlns="http://www.w3.org/2000/svg">
<path d="M4.3418 9.375C6.74621 4.5 13.9594 4.5 16.3639 9.375" stroke="#222222" stroke-width="1.5625" stroke-linecap="round" stroke-linejoin="round"/>
<path d="M10.3529 12C9.92781 12 9.5201 11.842 9.21949 11.5607C8.91888 11.2794 8.75 10.8978 8.75 10.5C8.75 10.1022 8.91888 9.72064 9.21949 9.43934C9.5201 9.15804 9.92781 9 10.3529 9C10.7781 9 11.1858 9.15804 11.4864 9.43934C11.787 9.72064 11.9559 10.1022 11.9559 10.5C11.9559 10.8978 11.787 11.2794 11.4864 11.5607C11.1858 11.842 10.7781 12 10.3529 12Z" stroke="#222222" stroke-width="1.5625" stroke-linecap="round" stroke-linejoin="round"/>
</svg>
