<svg width="24" height="24" viewBox="0 0 24 24" fill="none" xmlns="http://www.w3.org/2000/svg">
<g clip-path="url(#clip0_905_621)">
<path fill-rule="evenodd" clip-rule="evenodd" d="M0 12C0 8.8174 1.26428 5.76516 3.51472 3.51472C5.76516 1.26428 8.8174 0 12 0C15.1826 0 18.2348 1.26428 20.4853 3.51472C22.7357 5.76516 24 8.8174 24 12C24 15.1826 22.7357 18.2348 20.4853 20.4853C18.2348 22.7357 15.1826 24 12 24C8.8174 24 5.76516 22.7357 3.51472 20.4853C1.26428 18.2348 0 15.1826 0 12ZM16.2336 17.3664L12 13.1312L7.7664 17.3664L6.6336 16.2352L10.8688 12L6.6336 7.7664L7.7664 6.6336L12 10.8688L16.2336 6.6336L17.3664 7.7664L13.1312 12L17.3664 16.2336L16.2352 17.3664H16.2336Z" fill="#CC0000"/>
</g>
<defs>
<clipPath id="clip0_905_621">
<rect width="24" height="24" fill="white"/>
</clipPath>
</defs>
</svg>
