<svg width="50" height="14" viewBox="0 0 50 14" fill="none" xmlns="http://www.w3.org/2000/svg">
<path d="M7.76576 3.565C7.53176 3.11433 7.20676 2.77633 6.79076 2.551C6.37476 2.317 5.89376 2.2 5.34776 2.2C4.74976 2.2 4.21676 2.33433 3.74876 2.603C3.28076 2.87167 2.91243 3.253 2.64376 3.747C2.38376 4.241 2.25376 4.813 2.25376 5.463C2.25376 6.113 2.38376 6.68933 2.64376 7.192C2.91243 7.686 3.28076 8.06733 3.74876 8.336C4.21676 8.60467 4.74976 8.739 5.34776 8.739C6.15376 8.739 6.80809 8.51367 7.31076 8.063C7.81343 7.61233 8.12109 7.00133 8.23376 6.23H4.84076V5.047H9.81976V6.204C9.72443 6.906 9.47309 7.55167 9.06576 8.141C8.66709 8.73033 8.14276 9.20267 7.49276 9.558C6.85143 9.90467 6.13643 10.078 5.34776 10.078C4.49843 10.078 3.72276 9.883 3.02076 9.493C2.31876 9.09433 1.75976 8.544 1.34376 7.842C0.936425 7.14 0.732759 6.347 0.732759 5.463C0.732759 4.579 0.936425 3.786 1.34376 3.084C1.75976 2.382 2.31876 1.836 3.02076 1.446C3.73143 1.04733 4.50709 0.847999 5.34776 0.847999C6.30976 0.847999 7.16343 1.08633 7.90876 1.563C8.66276 2.031 9.20876 2.69833 9.54676 3.565H7.76576ZM32.3075 2.72C32.8622 2.72 33.3519 2.83267 33.7765 3.058C34.2099 3.27467 34.5479 3.54767 34.7905 3.877V2.837H36.2855V10.117C36.2855 10.7757 36.1469 11.3607 35.8695 11.872C35.5922 12.392 35.1892 12.7993 34.6605 13.094C34.1405 13.3887 33.5165 13.536 32.7885 13.536C31.8179 13.536 31.0119 13.3063 30.3705 12.847C29.7292 12.3963 29.3652 11.781 29.2785 11.001H30.7475C30.8602 11.3737 31.0985 11.6727 31.4625 11.898C31.8352 12.132 32.2772 12.249 32.7885 12.249C33.3865 12.249 33.8675 12.067 34.2315 11.703C34.6042 11.339 34.7905 10.8103 34.7905 10.117V8.921C34.5392 9.259 34.1969 9.545 33.7635 9.779C33.3389 10.0043 32.8535 10.117 32.3075 10.117C31.6835 10.117 31.1115 9.961 30.5915 9.649C30.0802 9.32833 29.6729 8.88633 29.3695 8.323C29.0749 7.751 28.9275 7.10533 28.9275 6.386C28.9275 5.66667 29.0749 5.02967 29.3695 4.475C29.6729 3.92033 30.0802 3.49133 30.5915 3.188C31.1115 2.876 31.6835 2.72 32.3075 2.72ZM34.7905 6.412C34.7905 5.918 34.6865 5.489 34.4785 5.125C34.2792 4.761 34.0149 4.48367 33.6855 4.293C33.3562 4.10233 33.0009 4.007 32.6195 4.007C32.2382 4.007 31.8829 4.10233 31.5535 4.293C31.2242 4.475 30.9555 4.748 30.7475 5.112C30.5482 5.46733 30.4485 5.892 30.4485 6.386C30.4485 6.88 30.5482 7.31333 30.7475 7.686C30.9555 8.05867 31.2242 8.34467 31.5535 8.544C31.8915 8.73467 32.2469 8.83 32.6195 8.83C33.0009 8.83 33.3562 8.73467 33.6855 8.544C34.0149 8.35333 34.2792 8.076 34.4785 7.712C34.6865 7.33933 34.7905 6.906 34.7905 6.412Z" fill="#4285F4"/>
<path d="M14.9084 10.117C14.2324 10.117 13.6214 9.96533 13.0754 9.662C12.5294 9.35 12.1004 8.91667 11.7884 8.362C11.4764 7.79867 11.3204 7.14867 11.3204 6.412C11.3204 5.684 11.4808 5.03833 11.8014 4.475C12.1221 3.91167 12.5598 3.47833 13.1144 3.175C13.6691 2.87167 14.2888 2.72 14.9734 2.72C15.6581 2.72 16.2778 2.87167 16.8324 3.175C17.3871 3.47833 17.8248 3.91167 18.1454 4.475C18.4661 5.03833 18.6264 5.684 18.6264 6.412C18.6264 7.14 18.4618 7.78567 18.1324 8.349C17.8031 8.91233 17.3524 9.35 16.7804 9.662C16.2171 9.96533 15.5931 10.117 14.9084 10.117ZM14.9084 8.83C15.2898 8.83 15.6451 8.739 15.9744 8.557C16.3124 8.375 16.5854 8.102 16.7934 7.738C17.0014 7.374 17.1054 6.932 17.1054 6.412C17.1054 5.892 17.0058 5.45433 16.8064 5.099C16.6071 4.735 16.3428 4.462 16.0134 4.28C15.6841 4.098 15.3288 4.007 14.9474 4.007C14.5661 4.007 14.2108 4.098 13.8814 4.28C13.5608 4.462 13.3051 4.735 13.1144 5.099C12.9238 5.45433 12.8284 5.892 12.8284 6.412C12.8284 7.18333 13.0234 7.78133 13.4134 8.206C13.8121 8.622 14.3104 8.83 14.9084 8.83ZM49.2648 6.243C49.2648 6.51167 49.2475 6.75433 49.2128 6.971H43.7398C43.7831 7.543 43.9955 8.00233 44.3768 8.349C44.7581 8.69567 45.2261 8.869 45.7808 8.869C46.5781 8.869 47.1415 8.53533 47.4708 7.868H49.0698C48.8531 8.52667 48.4588 9.06833 47.8868 9.493C47.3235 9.909 46.6215 10.117 45.7808 10.117C45.0961 10.117 44.4808 9.96533 43.9348 9.662C43.3975 9.35 42.9728 8.91667 42.6608 8.362C42.3575 7.79867 42.2058 7.14867 42.2058 6.412C42.2058 5.67533 42.3531 5.02967 42.6478 4.475C42.9511 3.91167 43.3715 3.47833 43.9088 3.175C44.4548 2.87167 45.0788 2.72 45.7808 2.72C46.4568 2.72 47.0591 2.86733 47.5878 3.162C48.1165 3.45667 48.5281 3.87267 48.8228 4.41C49.1175 4.93867 49.2648 5.54967 49.2648 6.243ZM47.7178 5.775C47.7091 5.229 47.5141 4.79133 47.1328 4.462C46.7515 4.13267 46.2791 3.968 45.7158 3.968C45.2045 3.968 44.7668 4.13267 44.4028 4.462C44.0388 4.78267 43.8221 5.22033 43.7528 5.775H47.7178Z" fill="#EA4335"/>
<path d="M23.7185 10.117C23.0425 10.117 22.4315 9.96533 21.8855 9.662C21.3395 9.35 20.9105 8.91667 20.5985 8.362C20.2865 7.79867 20.1305 7.14867 20.1305 6.412C20.1305 5.684 20.2908 5.03833 20.6115 4.475C20.9322 3.91167 21.3698 3.47833 21.9245 3.175C22.4792 2.87167 23.0988 2.72 23.7835 2.72C24.4682 2.72 25.0878 2.87167 25.6425 3.175C26.1972 3.47833 26.6348 3.91167 26.9555 4.475C27.2762 5.03833 27.4365 5.684 27.4365 6.412C27.4365 7.14 27.2718 7.78567 26.9425 8.349C26.6132 8.91233 26.1625 9.35 25.5905 9.662C25.0272 9.96533 24.4032 10.117 23.7185 10.117ZM23.7185 8.83C24.0998 8.83 24.4552 8.739 24.7845 8.557C25.1225 8.375 25.3955 8.102 25.6035 7.738C25.8115 7.374 25.9155 6.932 25.9155 6.412C25.9155 5.892 25.8158 5.45433 25.6165 5.099C25.4172 4.735 25.1528 4.462 24.8235 4.28C24.4942 4.098 24.1388 4.007 23.7575 4.007C23.3762 4.007 23.0208 4.098 22.6915 4.28C22.3708 4.462 22.1152 4.735 21.9245 5.099C21.7338 5.45433 21.6385 5.892 21.6385 6.412C21.6385 7.18333 21.8335 7.78133 22.2235 8.206C22.6222 8.622 23.1205 8.83 23.7185 8.83Z" fill="#FFC804"/>
<path d="M40.2341 0.38V10H38.7521V0.38H40.2341Z" fill="#34A853"/>
</svg>
