<svg width="30" height="30" viewBox="0 0 30 30" fill="none" xmlns="http://www.w3.org/2000/svg">
<path fill-rule="evenodd" clip-rule="evenodd" d="M22.5 15.0002C22.5 15.2488 22.4012 15.4873 22.2254 15.6631C22.0496 15.8389 21.8111 15.9377 21.5625 15.9377H10.7006L14.7262 19.9615C14.8134 20.0486 14.8825 20.1521 14.9297 20.266C14.9769 20.3799 15.0011 20.5019 15.0011 20.6252C15.0011 20.7485 14.9769 20.8705 14.9297 20.9844C14.8825 21.0983 14.8134 21.2018 14.7262 21.289C14.6391 21.3761 14.5356 21.4453 14.4217 21.4924C14.3078 21.5396 14.1857 21.5639 14.0625 21.5639C13.9392 21.5639 13.8171 21.5396 13.7032 21.4924C13.5894 21.4453 13.4859 21.3761 13.3987 21.289L7.77372 15.664C7.68641 15.5769 7.61714 15.4734 7.56988 15.3595C7.52262 15.2456 7.49829 15.1235 7.49829 15.0002C7.49829 14.8769 7.52262 14.7548 7.56988 14.6409C7.61714 14.527 7.68641 14.4235 7.77372 14.3365L13.3987 8.71146C13.5748 8.53542 13.8135 8.43652 14.0625 8.43652C14.3114 8.43652 14.5502 8.53542 14.7262 8.71146C14.9023 8.8875 15.0011 9.12625 15.0011 9.37521C15.0011 9.62416 14.9023 9.86292 14.7262 10.039L10.7006 14.0627H21.5625C21.8111 14.0627 22.0496 14.1615 22.2254 14.3373C22.4012 14.5131 22.5 14.7516 22.5 15.0002Z" fill="black"/>
</svg>
