<svg width="59" height="40" viewBox="0 0 59 40" fill="none" xmlns="http://www.w3.org/2000/svg">
<g filter="url(#filter0_d_882_10102)">
<path d="M1.81803 24.6631V15.2512H8.04974V16.8918H3.80795V19.1345H7.63613V20.7752H3.80795V24.6631H1.81803ZM18.1667 19.9571C18.1667 20.9835 17.9721 21.8567 17.583 22.5767C17.197 23.2966 16.67 23.8466 16.0021 24.2265C15.3373 24.6033 14.5897 24.7918 13.7594 24.7918C12.923 24.7918 12.1724 24.6018 11.5076 24.2219C10.8427 23.842 10.3173 23.292 9.93124 22.5721C9.54521 21.8521 9.35219 20.9804 9.35219 19.9571C9.35219 18.9308 9.54521 18.0576 9.93124 17.3376C10.3173 16.6176 10.8427 16.0692 11.5076 15.6924C12.1724 15.3125 12.923 15.1225 13.7594 15.1225C14.5897 15.1225 15.3373 15.3125 16.0021 15.6924C16.67 16.0692 17.197 16.6176 17.583 17.3376C17.9721 18.0576 18.1667 18.9308 18.1667 19.9571ZM16.1492 19.9571C16.1492 19.2923 16.0496 18.7316 15.8504 18.2751C15.6544 17.8186 15.3771 17.4724 15.0186 17.2365C14.6602 17.0006 14.2404 16.8826 13.7594 16.8826C13.2784 16.8826 12.8587 17.0006 12.5002 17.2365C12.1418 17.4724 11.8629 17.8186 11.6638 18.2751C11.4677 18.7316 11.3697 19.2923 11.3697 19.9571C11.3697 20.622 11.4677 21.1826 11.6638 21.6391C11.8629 22.0956 12.1418 22.4419 12.5002 22.6778C12.8587 22.9137 13.2784 23.0316 13.7594 23.0316C14.2404 23.0316 14.6602 22.9137 15.0186 22.6778C15.3771 22.4419 15.6544 22.0956 15.8504 21.6391C16.0496 21.1826 16.1492 20.622 16.1492 19.9571ZM28.4192 19.9571C28.4192 20.9835 28.2246 21.8567 27.8355 22.5767C27.4495 23.2966 26.9225 23.8466 26.2546 24.2265C25.5898 24.6033 24.8422 24.7918 24.0119 24.7918C23.1755 24.7918 22.4249 24.6018 21.76 24.2219C21.0952 23.842 20.5698 23.292 20.1837 22.5721C19.7977 21.8521 19.6047 20.9804 19.6047 19.9571C19.6047 18.9308 19.7977 18.0576 20.1837 17.3376C20.5698 16.6176 21.0952 16.0692 21.76 15.6924C22.4249 15.3125 23.1755 15.1225 24.0119 15.1225C24.8422 15.1225 25.5898 15.3125 26.2546 15.6924C26.9225 16.0692 27.4495 16.6176 27.8355 17.3376C28.2246 18.0576 28.4192 18.9308 28.4192 19.9571ZM26.4017 19.9571C26.4017 19.2923 26.3021 18.7316 26.1029 18.2751C25.9069 17.8186 25.6296 17.4724 25.2711 17.2365C24.9127 17.0006 24.4929 16.8826 24.0119 16.8826C23.5309 16.8826 23.1112 17.0006 22.7527 17.2365C22.3942 17.4724 22.1154 17.8186 21.9163 18.2751C21.7202 18.7316 21.6222 19.2923 21.6222 19.9571C21.6222 20.622 21.7202 21.1826 21.9163 21.6391C22.1154 22.0956 22.3942 22.4419 22.7527 22.6778C23.1112 22.9137 23.5309 23.0316 24.0119 23.0316C24.4929 23.0316 24.9127 22.9137 25.2711 22.6778C25.6296 22.4419 25.9069 22.0956 26.1029 21.6391C26.3021 21.1826 26.4017 20.622 26.4017 19.9571ZM33.3591 24.6631H30.0226V15.2512H33.3866C34.3333 15.2512 35.1483 15.4396 35.8315 15.8164C36.5147 16.1902 37.0402 16.7279 37.4078 17.4295C37.7786 18.1311 37.9639 18.9706 37.9639 19.9479C37.9639 20.9283 37.7786 21.7709 37.4078 22.4756C37.0402 23.1802 36.5117 23.721 35.8223 24.0978C35.1361 24.4747 34.315 24.6631 33.3591 24.6631ZM32.0125 22.9581H33.2763C33.8646 22.9581 34.3594 22.8539 34.7607 22.6456C35.1652 22.4342 35.4685 22.1079 35.6707 21.6667C35.876 21.2225 35.9786 20.6495 35.9786 19.9479C35.9786 19.2525 35.876 18.6841 35.6707 18.243C35.4685 17.8018 35.1667 17.477 34.7653 17.2687C34.364 17.0603 33.8692 16.9562 33.2809 16.9562H32.0125V22.9581ZM42.9038 24.6631H39.5674V15.2512H42.9314C43.8781 15.2512 44.6931 15.4396 45.3763 15.8164C46.0595 16.1902 46.5849 16.7279 46.9526 17.4295C47.3233 18.1311 47.5087 18.9706 47.5087 19.9479C47.5087 20.9283 47.3233 21.7709 46.9526 22.4756C46.5849 23.1802 46.0564 23.721 45.3671 24.0978C44.6808 24.4747 43.8597 24.6631 42.9038 24.6631ZM41.5573 22.9581H42.8211C43.4093 22.9581 43.9041 22.8539 44.3055 22.6456C44.7099 22.4342 45.0132 22.1079 45.2154 21.6667C45.4207 21.2225 45.5234 20.6495 45.5234 19.9479C45.5234 19.2525 45.4207 18.6841 45.2154 18.243C45.0132 17.8018 44.7115 17.477 44.3101 17.2687C43.9087 17.0603 43.4139 16.9562 42.8257 16.9562H41.5573V22.9581ZM47.992 15.2512H50.2208L52.367 19.3046H52.4589L54.6051 15.2512H56.834L53.401 21.3358V24.6631H51.4249V21.3358L47.992 15.2512Z" fill="black"/>
<path d="M1.81803 24.6631H1.50136V24.9798H1.81803V24.6631ZM1.81803 15.2512V14.9345H1.50136V15.2512H1.81803ZM8.04974 15.2512H8.3664V14.9345H8.04974V15.2512ZM8.04974 16.8918V17.2085H8.3664V16.8918H8.04974ZM3.80795 16.8918V16.5752H3.49128V16.8918H3.80795ZM3.80795 19.1345H3.49128V19.4512H3.80795V19.1345ZM7.63613 19.1345H7.95279V18.8178H7.63613V19.1345ZM7.63613 20.7752V21.0918H7.95279V20.7752H7.63613ZM3.80795 20.7752V20.4585H3.49128V20.7752H3.80795ZM3.80795 24.6631V24.9798H4.12461V24.6631H3.80795ZM2.13469 24.6631V15.2512H1.50136V24.6631H2.13469ZM1.81803 15.5679H8.04974V14.9345H1.81803V15.5679ZM7.73307 15.2512V16.8918H8.3664V15.2512H7.73307ZM8.04974 16.5752H3.80795V17.2085H8.04974V16.5752ZM3.49128 16.8918V19.1345H4.12461V16.8918H3.49128ZM3.80795 19.4512H7.63613V18.8178H3.80795V19.4512ZM7.31946 19.1345V20.7752H7.95279V19.1345H7.31946ZM7.63613 20.4585H3.80795V21.0918H7.63613V20.4585ZM3.49128 20.7752V24.6631H4.12461V20.7752H3.49128ZM3.80795 24.3464H1.81803V24.9798H3.80795V24.3464ZM17.583 22.5767L17.3044 22.4261L17.3039 22.427L17.583 22.5767ZM16.0021 24.2265L16.1583 24.502L16.1587 24.5018L16.0021 24.2265ZM11.5076 24.2219L11.6647 23.947L11.5076 24.2219ZM9.93124 22.5721L9.65216 22.7217L9.93124 22.5721ZM9.93124 17.3376L10.2103 17.4872V17.4872L9.93124 17.3376ZM11.5076 15.6924L11.6637 15.9679L11.6647 15.9673L11.5076 15.6924ZM16.0021 15.6924L15.845 15.9673L15.8465 15.9682L16.0021 15.6924ZM17.583 17.3376L17.3039 17.4872L17.3044 17.4882L17.583 17.3376ZM15.8504 18.2751L15.5595 18.4001L15.5602 18.4017L15.8504 18.2751ZM15.0186 17.2365L14.8445 17.501L15.0186 17.2365ZM12.5002 17.2365L12.6743 17.501L12.5002 17.2365ZM11.6638 18.2751L11.3735 18.1485L11.3728 18.1501L11.6638 18.2751ZM11.6638 21.6391L11.3728 21.7641L11.3736 21.7658L11.6638 21.6391ZM12.5002 22.6778L12.6743 22.4132L12.5002 22.6778ZM15.0186 22.6778L14.8445 22.4132L15.0186 22.6778ZM15.8504 21.6391L15.5602 21.5125L15.5595 21.5142L15.8504 21.6391ZM17.85 19.9571C17.85 20.944 17.663 21.7627 17.3044 22.4261L17.8616 22.7272C18.2813 21.9507 18.4833 21.023 18.4833 19.9571H17.85ZM17.3039 22.427C16.9442 23.0979 16.4583 23.6027 15.8455 23.9512L16.1587 24.5018C16.8817 24.0905 17.4497 23.4954 17.8621 22.7263L17.3039 22.427ZM15.846 23.951C15.2328 24.2986 14.5398 24.4751 13.7594 24.4751V25.1084C14.6396 25.1084 15.4417 24.9081 16.1583 24.502L15.846 23.951ZM13.7594 24.4751C12.9729 24.4751 12.2773 24.297 11.6647 23.947L11.3504 24.4968C12.0675 24.9066 12.8731 25.1084 13.7594 25.1084V24.4751ZM11.6647 23.947C11.0549 23.5985 10.5702 23.0937 10.2103 22.4224L9.65216 22.7217C10.0643 23.4904 10.6305 24.0855 11.3504 24.4968L11.6647 23.947ZM10.2103 22.4224C9.85443 21.7587 9.66886 20.9412 9.66886 19.9571H9.03552C9.03552 21.0197 9.23599 21.9455 9.65216 22.7217L10.2103 22.4224ZM9.66886 19.9571C9.66886 18.9699 9.8545 18.1509 10.2103 17.4872L9.65216 17.188C9.23592 17.9643 9.03552 18.8917 9.03552 19.9571H9.66886ZM10.2103 17.4872C10.5701 16.8162 11.0545 16.3131 11.6637 15.9679L11.3514 15.4169C10.6309 15.8253 10.0644 16.4191 9.65216 17.188L10.2103 17.4872ZM11.6647 15.9673C12.2773 15.6172 12.9729 15.4392 13.7594 15.4392V14.8058C12.8731 14.8058 12.0675 15.0077 11.3504 15.4174L11.6647 15.9673ZM13.7594 15.4392C14.5394 15.4392 15.232 15.617 15.845 15.9673L16.1592 15.4174C15.4425 15.0079 14.64 14.8058 13.7594 14.8058V15.4392ZM15.8465 15.9682C16.4587 16.3136 16.9443 16.8166 17.3039 17.4872L17.8621 17.188C17.4496 16.4187 16.8814 15.8249 16.1577 15.4166L15.8465 15.9682ZM17.3044 17.4882C17.663 18.1516 17.85 18.9702 17.85 19.9571H18.4833C18.4833 18.8913 18.2813 17.9636 17.8616 17.1871L17.3044 17.4882ZM16.4658 19.9571C16.4658 19.2625 16.3621 18.6559 16.1407 18.1485L15.5602 18.4017C15.7371 18.8073 15.8325 19.322 15.8325 19.9571H16.4658ZM16.1414 18.1501C15.9248 17.6459 15.6107 17.2471 15.1927 16.972L14.8445 17.501C15.1434 17.6977 15.3839 17.9913 15.5595 18.4001L16.1414 18.1501ZM15.1927 16.972C14.7765 16.698 14.2946 16.566 13.7594 16.566V17.1993C14.1863 17.1993 14.5439 17.3032 14.8445 17.501L15.1927 16.972ZM13.7594 16.566C13.2243 16.566 12.7424 16.698 12.3261 16.972L12.6743 17.501C12.975 17.3032 13.3325 17.1993 13.7594 17.1993V16.566ZM12.3261 16.972C11.9086 17.2468 11.5932 17.645 11.3736 18.1485L11.9541 18.4017C12.1327 17.9923 12.3749 17.6981 12.6743 17.501L12.3261 16.972ZM11.3728 18.1501C11.1551 18.6571 11.053 19.2631 11.053 19.9571H11.6863C11.6863 19.3215 11.7803 18.8062 11.9548 18.4001L11.3728 18.1501ZM11.053 19.9571C11.053 20.6512 11.1551 21.2572 11.3728 21.7641L11.9548 21.5142C11.7803 21.1081 11.6863 20.5927 11.6863 19.9571H11.053ZM11.3736 21.7658C11.5932 22.2693 11.9086 22.6675 12.3261 22.9423L12.6743 22.4132C12.3749 22.2162 12.1327 21.922 11.9541 21.5125L11.3736 21.7658ZM12.3261 22.9423C12.7424 23.2162 13.2243 23.3483 13.7594 23.3483V22.715C13.3325 22.715 12.975 22.6111 12.6743 22.4132L12.3261 22.9423ZM13.7594 23.3483C14.2946 23.3483 14.7765 23.2162 15.1927 22.9423L14.8445 22.4132C14.5439 22.6111 14.1863 22.715 13.7594 22.715V23.3483ZM15.1927 22.9423C15.6107 22.6672 15.9248 22.2684 16.1414 21.7641L15.5595 21.5142C15.3839 21.9229 15.1434 22.2165 14.8445 22.4132L15.1927 22.9423ZM16.1407 21.7658C16.3621 21.2583 16.4658 20.6517 16.4658 19.9571H15.8325C15.8325 20.5922 15.7371 21.1069 15.5602 21.5125L16.1407 21.7658ZM27.8355 22.5767L27.5569 22.4261L27.5564 22.427L27.8355 22.5767ZM26.2546 24.2265L26.4107 24.502L26.4112 24.5018L26.2546 24.2265ZM21.76 24.2219L21.9172 23.947L21.76 24.2219ZM20.1837 22.5721L19.9047 22.7217L20.1837 22.5721ZM20.1837 17.3376L20.4628 17.4872V17.4872L20.1837 17.3376ZM21.76 15.6924L21.9162 15.9679L21.9172 15.9673L21.76 15.6924ZM26.2546 15.6924L26.0975 15.9673L26.099 15.9682L26.2546 15.6924ZM27.8355 17.3376L27.5564 17.4872L27.5569 17.4882L27.8355 17.3376ZM26.1029 18.2751L25.812 18.4001L25.8127 18.4017L26.1029 18.2751ZM25.2711 17.2365L25.097 17.501L25.2711 17.2365ZM22.7527 17.2365L22.9268 17.501L22.7527 17.2365ZM21.9163 18.2751L21.626 18.1485L21.6253 18.1501L21.9163 18.2751ZM21.9163 21.6391L21.6253 21.7641L21.626 21.7658L21.9163 21.6391ZM22.7527 22.6778L22.9268 22.4132L22.7527 22.6778ZM25.2711 22.6778L25.097 22.4132L25.2711 22.6778ZM26.1029 21.6391L25.8127 21.5125L25.812 21.5142L26.1029 21.6391ZM28.1025 19.9571C28.1025 20.944 27.9155 21.7627 27.5569 22.4261L28.1141 22.7272C28.5338 21.9507 28.7358 21.023 28.7358 19.9571H28.1025ZM27.5564 22.427C27.1967 23.0979 26.7108 23.6027 26.098 23.9512L26.4112 24.5018C27.1342 24.0905 27.7022 23.4954 28.1146 22.7263L27.5564 22.427ZM26.0984 23.951C25.4853 24.2986 24.7923 24.4751 24.0119 24.4751V25.1084C24.8921 25.1084 25.6942 24.9081 26.4107 24.502L26.0984 23.951ZM24.0119 24.4751C23.2254 24.4751 22.5298 24.297 21.9172 23.947L21.6029 24.4968C22.32 24.9066 23.1256 25.1084 24.0119 25.1084V24.4751ZM21.9172 23.947C21.3074 23.5985 20.8227 23.0937 20.4628 22.4224L19.9047 22.7217C20.3168 23.4904 20.883 24.0855 21.6029 24.4968L21.9172 23.947ZM20.4628 22.4224C20.1069 21.7587 19.9214 20.9412 19.9214 19.9571H19.288C19.288 21.0197 19.4885 21.9455 19.9047 22.7217L20.4628 22.4224ZM19.9214 19.9571C19.9214 18.9699 20.107 18.1509 20.4628 17.4872L19.9047 17.188C19.4884 17.9643 19.288 18.8917 19.288 19.9571H19.9214ZM20.4628 17.4872C20.8226 16.8162 21.307 16.3131 21.9162 15.9679L21.6039 15.4169C20.8834 15.8253 20.3169 16.4191 19.9047 17.188L20.4628 17.4872ZM21.9172 15.9673C22.5298 15.6172 23.2254 15.4392 24.0119 15.4392V14.8058C23.1256 14.8058 22.32 15.0077 21.6029 15.4174L21.9172 15.9673ZM24.0119 15.4392C24.7919 15.4392 25.4845 15.617 26.0975 15.9673L26.4117 15.4174C25.695 15.0079 24.8925 14.8058 24.0119 14.8058V15.4392ZM26.099 15.9682C26.7111 16.3136 27.1968 16.8166 27.5564 17.4872L28.1146 17.188C27.7021 16.4187 27.1339 15.8249 26.4102 15.4166L26.099 15.9682ZM27.5569 17.4882C27.9155 18.1516 28.1025 18.9702 28.1025 19.9571H28.7358C28.7358 18.8913 28.5338 17.9636 28.1141 17.1871L27.5569 17.4882ZM26.7183 19.9571C26.7183 19.2625 26.6145 18.6559 26.3932 18.1485L25.8127 18.4017C25.9896 18.8073 26.085 19.322 26.085 19.9571H26.7183ZM26.3939 18.1501C26.1773 17.6459 25.8632 17.2471 25.4452 16.972L25.097 17.501C25.3959 17.6977 25.6364 17.9913 25.812 18.4001L26.3939 18.1501ZM25.4452 16.972C25.029 16.698 24.5471 16.566 24.0119 16.566V17.1993C24.4388 17.1993 24.7964 17.3032 25.097 17.501L25.4452 16.972ZM24.0119 16.566C23.4768 16.566 22.9949 16.698 22.5786 16.972L22.9268 17.501C23.2275 17.3032 23.585 17.1993 24.0119 17.1993V16.566ZM22.5786 16.972C22.1611 17.2468 21.8457 17.645 21.626 18.1485L22.2065 18.4017C22.3852 17.9923 22.6274 17.6981 22.9268 17.501L22.5786 16.972ZM21.6253 18.1501C21.4076 18.6571 21.3055 19.2631 21.3055 19.9571H21.9388C21.9388 19.3215 22.0328 18.8062 22.2073 18.4001L21.6253 18.1501ZM21.3055 19.9571C21.3055 20.6512 21.4076 21.2572 21.6253 21.7641L22.2073 21.5142C22.0328 21.1081 21.9388 20.5927 21.9388 19.9571H21.3055ZM21.626 21.7658C21.8457 22.2693 22.1611 22.6675 22.5786 22.9423L22.9268 22.4132C22.6274 22.2162 22.3852 21.922 22.2065 21.5125L21.626 21.7658ZM22.5786 22.9423C22.9949 23.2162 23.4768 23.3483 24.0119 23.3483V22.715C23.585 22.715 23.2275 22.6111 22.9268 22.4132L22.5786 22.9423ZM24.0119 23.3483C24.5471 23.3483 25.029 23.2162 25.4452 22.9423L25.097 22.4132C24.7964 22.6111 24.4388 22.715 24.0119 22.715V23.3483ZM25.4452 22.9423C25.8632 22.6672 26.1773 22.2684 26.3939 21.7641L25.812 21.5142C25.6364 21.9229 25.3959 22.2165 25.097 22.4132L25.4452 22.9423ZM26.3932 21.7658C26.6145 21.2583 26.7183 20.6517 26.7183 19.9571H26.085C26.085 20.5922 25.9896 21.1069 25.8127 21.5125L26.3932 21.7658ZM30.0226 24.6631H29.706V24.9798H30.0226V24.6631ZM30.0226 15.2512V14.9345H29.706V15.2512H30.0226ZM35.8315 15.8164L35.6786 16.0937L35.6795 16.0943L35.8315 15.8164ZM37.4078 17.4295L37.1273 17.5765L37.1279 17.5775L37.4078 17.4295ZM37.4078 22.4756L37.1276 22.3281L37.1271 22.3291L37.4078 22.4756ZM35.8223 24.0978L35.6704 23.82L35.6699 23.8202L35.8223 24.0978ZM32.0125 22.9581H31.6959V23.2748H32.0125V22.9581ZM34.7607 22.6456L34.9066 22.9267L34.9074 22.9262L34.7607 22.6456ZM35.6707 21.6667L35.3832 21.5339L35.3828 21.5348L35.6707 21.6667ZM35.6707 18.243L35.3828 18.3749L35.3836 18.3765L35.6707 18.243ZM34.7653 17.2687L34.9112 16.9876L34.7653 17.2687ZM32.0125 16.9562V16.6395H31.6959V16.9562H32.0125ZM33.3591 24.3464H30.0226V24.9798H33.3591V24.3464ZM30.3393 24.6631V15.2512H29.706V24.6631H30.3393ZM30.0226 15.5679H33.3866V14.9345H30.0226V15.5679ZM33.3866 15.5679C34.2912 15.5679 35.0512 15.7477 35.6786 16.0937L35.9845 15.5392C35.2454 15.1315 34.3755 14.9345 33.3866 14.9345V15.5679ZM35.6795 16.0943C36.307 16.4375 36.7882 16.9292 37.1273 17.5765L37.6883 17.2825C37.2922 16.5266 36.7225 15.9429 35.9835 15.5386L35.6795 16.0943ZM37.1279 17.5775C37.4695 18.2241 37.6472 19.0104 37.6472 19.9479H38.2806C38.2806 18.9308 38.0876 18.0382 37.6878 17.2816L37.1279 17.5775ZM37.6472 19.9479C37.6472 20.8887 37.4695 21.6783 37.1276 22.3281L37.6881 22.623C38.0876 21.8635 38.2806 20.968 38.2806 19.9479H37.6472ZM37.1271 22.3291C36.7881 22.9789 36.3041 23.4736 35.6704 23.82L35.9742 24.3757C36.7193 23.9684 37.2923 23.3816 37.6886 22.622L37.1271 22.3291ZM35.6699 23.8202C35.0396 24.1664 34.2733 24.3464 33.3591 24.3464V24.9798C34.3566 24.9798 35.2325 24.783 35.9748 24.3754L35.6699 23.8202ZM32.0125 23.2748H33.2763V22.6414H32.0125V23.2748ZM33.2763 23.2748C33.9006 23.2748 34.4487 23.1644 34.9066 22.9267L34.6148 22.3645C34.2701 22.5435 33.8286 22.6414 33.2763 22.6414V23.2748ZM34.9074 22.9262C35.3782 22.6802 35.7291 22.2994 35.9585 21.7987L35.3828 21.5348C35.2079 21.9164 34.9521 22.1882 34.614 22.365L34.9074 22.9262ZM35.9581 21.7995C36.1891 21.2997 36.2953 20.677 36.2953 19.9479H35.6619C35.6619 20.6221 35.5628 21.1453 35.3832 21.5339L35.9581 21.7995ZM36.2953 19.9479C36.2953 19.2247 36.189 18.6064 35.9578 18.1094L35.3836 18.3765C35.5629 18.7619 35.6619 19.2802 35.6619 19.9479H36.2953ZM35.9585 18.111C35.7292 17.6107 35.3799 17.2309 34.9112 16.9876L34.6194 17.5497C34.9535 17.7231 35.2077 17.9928 35.3828 18.3749L35.9585 18.111ZM34.9112 16.9876C34.4533 16.7499 33.9052 16.6395 33.2809 16.6395V17.2728C33.8332 17.2728 34.2747 17.3708 34.6194 17.5497L34.9112 16.9876ZM33.2809 16.6395H32.0125V17.2728H33.2809V16.6395ZM31.6959 16.9562V22.9581H32.3292V16.9562H31.6959ZM39.5674 24.6631H39.2507V24.9798H39.5674V24.6631ZM39.5674 15.2512V14.9345H39.2507V15.2512H39.5674ZM45.3763 15.8164L45.2233 16.0937L45.2243 16.0943L45.3763 15.8164ZM46.9526 17.4295L46.6721 17.5765L46.6726 17.5775L46.9526 17.4295ZM46.9526 22.4756L46.6723 22.3281L46.6718 22.3291L46.9526 22.4756ZM45.3671 24.0978L45.2152 23.82L45.2147 23.8202L45.3671 24.0978ZM41.5573 22.9581H41.2406V23.2748H41.5573V22.9581ZM44.3055 22.6456L44.4514 22.9267L44.4522 22.9262L44.3055 22.6456ZM45.2154 21.6667L44.928 21.5339L44.9276 21.5348L45.2154 21.6667ZM45.2154 18.243L44.9276 18.3749L44.9283 18.3765L45.2154 18.243ZM44.3101 17.2687L44.456 16.9876L44.3101 17.2687ZM41.5573 16.9562V16.6395H41.2406V16.9562H41.5573ZM42.9038 24.3464H39.5674V24.9798H42.9038V24.3464ZM39.884 24.6631V15.2512H39.2507V24.6631H39.884ZM39.5674 15.5679H42.9314V14.9345H39.5674V15.5679ZM42.9314 15.5679C43.836 15.5679 44.596 15.7477 45.2234 16.0937L45.5292 15.5392C44.7902 15.1315 43.9203 14.9345 42.9314 14.9345V15.5679ZM45.2243 16.0943C45.8517 16.4375 46.3329 16.9292 46.6721 17.5765L47.2331 17.2825C46.837 16.5266 46.2673 15.9429 45.5283 15.5386L45.2243 16.0943ZM46.6726 17.5775C47.0143 18.2241 47.192 19.0104 47.192 19.9479H47.8253C47.8253 18.9308 47.6323 18.0382 47.2326 17.2816L46.6726 17.5775ZM47.192 19.9479C47.192 20.8887 47.0142 21.6783 46.6723 22.3281L47.2328 22.623C47.6324 21.8635 47.8253 20.968 47.8253 19.9479H47.192ZM46.6718 22.3291C46.3328 22.9789 45.8489 23.4736 45.2152 23.82L45.519 24.3757C46.264 23.9684 46.8371 23.3816 47.2334 22.622L46.6718 22.3291ZM45.2147 23.8202C44.5844 24.1664 43.8181 24.3464 42.9038 24.3464V24.9798C43.9013 24.9798 44.7773 24.783 45.5195 24.3754L45.2147 23.8202ZM41.5573 23.2748H42.8211V22.6414H41.5573V23.2748ZM42.8211 23.2748C43.4454 23.2748 43.9935 23.1644 44.4514 22.9267L44.1596 22.3645C43.8148 22.5435 43.3733 22.6414 42.8211 22.6414V23.2748ZM44.4522 22.9262C44.923 22.6802 45.2738 22.2994 45.5033 21.7987L44.9276 21.5348C44.7526 21.9164 44.4969 22.1882 44.1588 22.365L44.4522 22.9262ZM45.5029 21.7995C45.7339 21.2997 45.84 20.677 45.84 19.9479H45.2067C45.2067 20.6221 45.1075 21.1453 44.928 21.5339L45.5029 21.7995ZM45.84 19.9479C45.84 19.2247 45.7338 18.6064 45.5026 18.1094L44.9283 18.3765C45.1076 18.7619 45.2067 19.2802 45.2067 19.9479H45.84ZM45.5033 18.111C45.274 17.6107 44.9247 17.2309 44.456 16.9876L44.1642 17.5497C44.4982 17.7231 44.7525 17.9928 44.9276 18.3749L45.5033 18.111ZM44.456 16.9876C43.9981 16.7499 43.45 16.6395 42.8257 16.6395V17.2728C43.3779 17.2728 43.8194 17.3708 44.1642 17.5497L44.456 16.9876ZM42.8257 16.6395H41.5573V17.2728H42.8257V16.6395ZM41.2406 16.9562V22.9581H41.874V16.9562H41.2406ZM47.992 15.2512V14.9345H47.4497L47.7162 15.4068L47.992 15.2512ZM50.2208 15.2512L50.5007 15.103L50.4115 14.9345H50.2208V15.2512ZM52.367 19.3046L52.0872 19.4527L52.1764 19.6212H52.367V19.3046ZM52.4589 19.3046V19.6212H52.6496L52.7388 19.4527L52.4589 19.3046ZM54.6051 15.2512V14.9345H54.4145L54.3252 15.103L54.6051 15.2512ZM56.834 15.2512L57.1098 15.4068L57.3763 14.9345H56.834V15.2512ZM53.401 21.3358L53.1252 21.1802L53.0844 21.2527V21.3358H53.401ZM53.401 24.6631V24.9798H53.7177V24.6631H53.401ZM51.4249 24.6631H51.1082V24.9798H51.4249V24.6631ZM51.4249 21.3358H51.7416V21.2527L51.7007 21.1802L51.4249 21.3358ZM47.992 15.5679H50.2208V14.9345H47.992V15.5679ZM49.941 15.3994L52.0872 19.4527L52.6469 19.1564L50.5007 15.103L49.941 15.3994ZM52.367 19.6212H52.4589V18.9879H52.367V19.6212ZM52.7388 19.4527L54.885 15.3994L54.3252 15.103L52.1791 19.1564L52.7388 19.4527ZM54.6051 15.5679H56.834V14.9345H54.6051V15.5679ZM56.5582 15.0956L53.1252 21.1802L53.6768 21.4914L57.1098 15.4068L56.5582 15.0956ZM53.0844 21.3358V24.6631H53.7177V21.3358H53.0844ZM53.401 24.3464H51.4249V24.9798H53.401V24.3464ZM51.7416 24.6631V21.3358H51.1082V24.6631H51.7416ZM51.7007 21.1802L48.2678 15.0956L47.7162 15.4068L51.1491 21.4914L51.7007 21.1802Z" fill="#F8F0D3"/>
</g>
<g filter="url(#filter1_d_882_10102)">
<path d="M1.81803 13V3.5881H8.04974V5.22875H3.80795V7.47143H7.63613V9.11208H3.80795V13H1.81803ZM18.1667 8.29405C18.1667 9.32041 17.9721 10.1936 17.583 10.9136C17.197 11.6336 16.67 12.1835 16.0021 12.5634C15.3373 12.9403 14.5897 13.1287 13.7594 13.1287C12.923 13.1287 12.1724 12.9387 11.5076 12.5588C10.8427 12.1789 10.3173 11.629 9.93124 10.909C9.54521 10.189 9.35219 9.31735 9.35219 8.29405C9.35219 7.26769 9.54521 6.39451 9.93124 5.67453C10.3173 4.95454 10.8427 4.40612 11.5076 4.02928C12.1724 3.64937 12.923 3.45942 13.7594 3.45942C14.5897 3.45942 15.3373 3.64937 16.0021 4.02928C16.67 4.40612 17.197 4.95454 17.583 5.67453C17.9721 6.39451 18.1667 7.26769 18.1667 8.29405ZM16.1492 8.29405C16.1492 7.62921 16.0496 7.06854 15.8504 6.61204C15.6544 6.15554 15.3771 5.80933 15.0186 5.57342C14.6602 5.33751 14.2404 5.21956 13.7594 5.21956C13.2784 5.21956 12.8587 5.33751 12.5002 5.57342C12.1418 5.80933 11.8629 6.15554 11.6638 6.61204C11.4677 7.06854 11.3697 7.62921 11.3697 8.29405C11.3697 8.95889 11.4677 9.51956 11.6638 9.97606C11.8629 10.4326 12.1418 10.7788 12.5002 11.0147C12.8587 11.2506 13.2784 11.3685 13.7594 11.3685C14.2404 11.3685 14.6602 11.2506 15.0186 11.0147C15.3771 10.7788 15.6544 10.4326 15.8504 9.97606C16.0496 9.51956 16.1492 8.95889 16.1492 8.29405ZM28.4192 8.29405C28.4192 9.32041 28.2246 10.1936 27.8355 10.9136C27.4495 11.6336 26.9225 12.1835 26.2546 12.5634C25.5898 12.9403 24.8422 13.1287 24.0119 13.1287C23.1755 13.1287 22.4249 12.9387 21.76 12.5588C21.0952 12.1789 20.5698 11.629 20.1837 10.909C19.7977 10.189 19.6047 9.31735 19.6047 8.29405C19.6047 7.26769 19.7977 6.39451 20.1837 5.67453C20.5698 4.95454 21.0952 4.40612 21.76 4.02928C22.4249 3.64937 23.1755 3.45942 24.0119 3.45942C24.8422 3.45942 25.5898 3.64937 26.2546 4.02928C26.9225 4.40612 27.4495 4.95454 27.8355 5.67453C28.2246 6.39451 28.4192 7.26769 28.4192 8.29405ZM26.4017 8.29405C26.4017 7.62921 26.3021 7.06854 26.1029 6.61204C25.9069 6.15554 25.6296 5.80933 25.2711 5.57342C24.9127 5.33751 24.4929 5.21956 24.0119 5.21956C23.5309 5.21956 23.1112 5.33751 22.7527 5.57342C22.3942 5.80933 22.1154 6.15554 21.9163 6.61204C21.7202 7.06854 21.6222 7.62921 21.6222 8.29405C21.6222 8.95889 21.7202 9.51956 21.9163 9.97606C22.1154 10.4326 22.3942 10.7788 22.7527 11.0147C23.1112 11.2506 23.5309 11.3685 24.0119 11.3685C24.4929 11.3685 24.9127 11.2506 25.2711 11.0147C25.6296 10.7788 25.9069 10.4326 26.1029 9.97606C26.3021 9.51956 26.4017 8.95889 26.4017 8.29405ZM33.3591 13H30.0226V3.5881H33.3866C34.3333 3.5881 35.1483 3.77652 35.8315 4.15336C36.5147 4.52714 37.0402 5.06483 37.4078 5.76644C37.7786 6.46804 37.9639 7.30751 37.9639 8.28486C37.9639 9.26526 37.7786 10.1078 37.4078 10.8125C37.0402 11.5171 36.5117 12.0579 35.8223 12.4347C35.1361 12.8116 34.315 13 33.3591 13ZM32.0125 11.295H33.2763C33.8646 11.295 34.3594 11.1908 34.7607 10.9825C35.1652 10.7711 35.4685 10.4448 35.6707 10.0036C35.876 9.55939 35.9786 8.98646 35.9786 8.28486C35.9786 7.58938 35.876 7.02105 35.6707 6.57987C35.4685 6.13869 35.1667 5.81393 34.7653 5.60559C34.364 5.39725 33.8692 5.29309 33.2809 5.29309H32.0125V11.295ZM42.9038 13H39.5674V3.5881H42.9314C43.8781 3.5881 44.6931 3.77652 45.3763 4.15336C46.0595 4.52714 46.5849 5.06483 46.9526 5.76644C47.3233 6.46804 47.5087 7.30751 47.5087 8.28486C47.5087 9.26526 47.3233 10.1078 46.9526 10.8125C46.5849 11.5171 46.0564 12.0579 45.3671 12.4347C44.6808 12.8116 43.8597 13 42.9038 13ZM41.5573 11.295H42.8211C43.4093 11.295 43.9041 11.1908 44.3055 10.9825C44.7099 10.7711 45.0132 10.4448 45.2154 10.0036C45.4207 9.55939 45.5234 8.98646 45.5234 8.28486C45.5234 7.58938 45.4207 7.02105 45.2154 6.57987C45.0132 6.13869 44.7115 5.81393 44.3101 5.60559C43.9087 5.39725 43.4139 5.29309 42.8257 5.29309H41.5573V11.295ZM47.992 3.5881H50.2208L52.367 7.64147H52.4589L54.6051 3.5881H56.834L53.401 9.67275V13H51.4249V9.67275L47.992 3.5881Z" fill="#FFC804"/>
<path d="M1.81803 13H1.61582V13.2022H1.81803V13ZM1.81803 3.5881V3.38589H1.61582V3.5881H1.81803ZM8.04974 3.5881H8.25194V3.38589H8.04974V3.5881ZM8.04974 5.22875V5.43096H8.25194V5.22875H8.04974ZM3.80795 5.22875V5.02654H3.60574V5.22875H3.80795ZM3.80795 7.47143H3.60574V7.67364H3.80795V7.47143ZM7.63613 7.47143H7.83834V7.26922H7.63613V7.47143ZM7.63613 9.11208V9.31428H7.83834V9.11208H7.63613ZM3.80795 9.11208V8.90987H3.60574V9.11208H3.80795ZM3.80795 13V13.2022H4.01015V13H3.80795ZM2.02024 13V3.5881H1.61582V13H2.02024ZM1.81803 3.79031H8.04974V3.38589H1.81803V3.79031ZM7.84753 3.5881V5.22875H8.25194V3.5881H7.84753ZM8.04974 5.02654H3.80795V5.43096H8.04974V5.02654ZM3.60574 5.22875V7.47143H4.01015V5.22875H3.60574ZM3.80795 7.67364H7.63613V7.26922H3.80795V7.67364ZM7.43392 7.47143V9.11208H7.83834V7.47143H7.43392ZM7.63613 8.90987H3.80795V9.31428H7.63613V8.90987ZM3.60574 9.11208V13H4.01015V9.11208H3.60574ZM3.80795 12.7978H1.81803V13.2022H3.80795V12.7978ZM17.583 10.9136L17.4051 10.8174L17.4048 10.818L17.583 10.9136ZM16.0021 12.5634L16.1018 12.7393L16.1021 12.7392L16.0021 12.5634ZM11.5076 12.5588L11.6079 12.3833L11.5076 12.5588ZM9.93124 10.909L9.75303 11.0045L9.93124 10.909ZM9.93124 5.67453L10.1095 5.77008L9.93124 5.67453ZM11.5076 4.02928L11.6073 4.2052L11.6079 4.20485L11.5076 4.02928ZM16.0021 4.02928L15.9018 4.20485L15.9027 4.20539L16.0021 4.02928ZM17.583 5.67453L17.4048 5.77008L17.4051 5.77066L17.583 5.67453ZM15.8504 6.61204L15.6646 6.69184L15.6651 6.69289L15.8504 6.61204ZM15.0186 5.57342L14.9075 5.74233L15.0186 5.57342ZM12.5002 5.57342L12.6114 5.74233L12.5002 5.57342ZM11.6638 6.61204L11.4785 6.53118L11.478 6.53223L11.6638 6.61204ZM11.6638 9.97606L11.478 10.0559L11.4785 10.0569L11.6638 9.97606ZM12.5002 11.0147L12.6114 10.8458L12.5002 11.0147ZM15.0186 11.0147L14.9075 10.8458L15.0186 11.0147ZM15.8504 9.97606L15.6651 9.8952L15.6647 9.89625L15.8504 9.97606ZM17.9644 8.29405C17.9644 9.29522 17.7747 10.1336 17.4051 10.8174L17.7609 11.0097C18.1695 10.2536 18.3689 9.34561 18.3689 8.29405H17.9644ZM17.4048 10.818C17.0356 11.5067 16.5348 12.0278 15.9021 12.3876L16.1021 12.7392C16.8052 12.3392 17.3584 11.7605 17.7612 11.0091L17.4048 10.818ZM15.9024 12.3875C15.2706 12.7456 14.5579 12.9265 13.7594 12.9265V13.3309C14.6215 13.3309 15.404 13.1349 16.1018 12.7393L15.9024 12.3875ZM13.7594 12.9265C12.9549 12.9265 12.2394 12.7441 11.6079 12.3833L11.4072 12.7344C12.1054 13.1333 12.8912 13.3309 13.7594 13.3309V12.9265ZM11.6079 12.3833C10.9782 12.0234 10.4788 11.5023 10.1095 10.8134L9.75303 11.0045C10.1558 11.7556 10.7072 12.3344 11.4072 12.7344L11.6079 12.3833ZM10.1095 10.8134C9.74266 10.1293 9.5544 9.29227 9.5544 8.29405H9.14998C9.14998 9.34242 9.34775 10.2486 9.75303 11.0045L10.1095 10.8134ZM9.5544 8.29405C9.5544 7.29265 9.74271 6.45409 10.1095 5.77008L9.75303 5.57898C9.34771 6.33494 9.14998 7.24272 9.14998 8.29405H9.5544ZM10.1095 5.77008C10.4787 5.08133 10.978 4.56189 11.6073 4.2052L11.4078 3.85337C10.7075 4.25036 10.1558 4.82775 9.75303 5.57898L10.1095 5.77008ZM11.6079 4.20485C12.2394 3.84398 12.9549 3.66163 13.7594 3.66163V3.25721C12.8912 3.25721 12.1054 3.45476 11.4072 3.85371L11.6079 4.20485ZM13.7594 3.66163C14.5576 3.66163 15.27 3.84386 15.9018 4.20485L16.1024 3.85371C15.4045 3.45489 14.6218 3.25721 13.7594 3.25721V3.66163ZM15.9027 4.20539C16.535 4.56215 17.0356 5.08157 17.4048 5.77008L17.7612 5.57898C17.3583 4.82751 16.805 4.2501 16.1015 3.85317L15.9027 4.20539ZM17.4051 5.77066C17.7747 6.45454 17.9644 7.29288 17.9644 8.29405H18.3689C18.3689 7.24249 18.1695 6.33448 17.7609 5.57839L17.4051 5.77066ZM16.3514 8.29405C16.3514 7.61021 16.2491 7.0202 16.0358 6.53119L15.6651 6.69289C15.8501 7.11688 15.947 7.64821 15.947 8.29405H16.3514ZM16.0362 6.53223C15.8271 6.04525 15.5263 5.66545 15.1298 5.40451L14.9075 5.74233C15.2279 5.95321 15.4817 6.26583 15.6647 6.69184L16.0362 6.53223ZM15.1298 5.40451C14.7344 5.14431 14.275 5.01735 13.7594 5.01735V5.42176C14.2059 5.42176 14.5859 5.53071 14.9075 5.74233L15.1298 5.40451ZM13.7594 5.01735C13.2438 5.01735 12.7844 5.14431 12.3891 5.40451L12.6114 5.74233C12.9329 5.53071 13.313 5.42176 13.7594 5.42176V5.01735ZM12.3891 5.40451C11.9929 5.66525 11.6907 6.04466 11.4785 6.53119L11.8491 6.69289C12.0352 6.26641 12.2906 5.95341 12.6114 5.74233L12.3891 5.40451ZM11.478 6.53223C11.2681 7.02093 11.1675 7.61055 11.1675 8.29405H11.5719C11.5719 7.64787 11.6673 7.11616 11.8496 6.69184L11.478 6.53223ZM11.1675 8.29405C11.1675 8.97755 11.2681 9.56717 11.478 10.0559L11.8496 9.89625C11.6673 9.47194 11.5719 8.94022 11.5719 8.29405H11.1675ZM11.4785 10.0569C11.6907 10.5434 11.9929 10.9228 12.3891 11.1836L12.6114 10.8458C12.2906 10.6347 12.0352 10.3217 11.8491 9.89521L11.4785 10.0569ZM12.3891 11.1836C12.7844 11.4438 13.2438 11.5708 13.7594 11.5708V11.1663C13.313 11.1663 12.9329 11.0574 12.6114 10.8458L12.3891 11.1836ZM13.7594 11.5708C14.275 11.5708 14.7344 11.4438 15.1298 11.1836L14.9075 10.8458C14.5859 11.0574 14.2059 11.1663 13.7594 11.1663V11.5708ZM15.1298 11.1836C15.5263 10.9226 15.8271 10.5429 16.0362 10.0559L15.6647 9.89625C15.4817 10.3223 15.2279 10.6349 14.9075 10.8458L15.1298 11.1836ZM16.0358 10.0569C16.2491 9.5679 16.3514 8.97788 16.3514 8.29405H15.947C15.947 8.93989 15.8501 9.47122 15.6651 9.89521L16.0358 10.0569ZM27.8355 10.9136L27.6576 10.8174L27.6573 10.818L27.8355 10.9136ZM26.2546 12.5634L26.3543 12.7393L26.3546 12.7392L26.2546 12.5634ZM21.76 12.5588L21.8604 12.3833L21.76 12.5588ZM20.1837 10.909L20.0055 11.0045L20.1837 10.909ZM20.1837 5.67453L20.3619 5.77008L20.1837 5.67453ZM21.76 4.02928L21.8598 4.2052L21.8604 4.20485L21.76 4.02928ZM26.2546 4.02928L26.1543 4.20485L26.1552 4.20539L26.2546 4.02928ZM27.8355 5.67453L27.6573 5.77008L27.6576 5.77066L27.8355 5.67453ZM26.1029 6.61204L25.9171 6.69184L25.9176 6.69289L26.1029 6.61204ZM25.2711 5.57342L25.16 5.74233L25.2711 5.57342ZM22.7527 5.57342L22.8639 5.74233L22.7527 5.57342ZM21.9163 6.61204L21.731 6.53118L21.7305 6.53223L21.9163 6.61204ZM21.9163 9.97606L21.7305 10.0559L21.731 10.0569L21.9163 9.97606ZM22.7527 11.0147L22.8639 10.8458L22.7527 11.0147ZM25.2711 11.0147L25.16 10.8458L25.2711 11.0147ZM26.1029 9.97606L25.9176 9.8952L25.9171 9.89625L26.1029 9.97606ZM28.2169 8.29405C28.2169 9.29522 28.0272 10.1336 27.6576 10.8174L28.0134 11.0097C28.422 10.2536 28.6214 9.34561 28.6214 8.29405H28.2169ZM27.6573 10.818C27.2881 11.5067 26.7873 12.0278 26.1546 12.3876L26.3546 12.7392C27.0577 12.3392 27.6109 11.7605 28.0137 11.0091L27.6573 10.818ZM26.1549 12.3875C25.523 12.7456 24.8104 12.9265 24.0119 12.9265V13.3309C24.874 13.3309 25.6565 13.1349 26.3543 12.7393L26.1549 12.3875ZM24.0119 12.9265C23.2074 12.9265 22.4919 12.7441 21.8604 12.3833L21.6597 12.7344C22.3579 13.1333 23.1437 13.3309 24.0119 13.3309V12.9265ZM21.8604 12.3833C21.2307 12.0234 20.7313 11.5023 20.3619 10.8134L20.0055 11.0045C20.4082 11.7556 20.9597 12.3344 21.6597 12.7344L21.8604 12.3833ZM20.3619 10.8134C19.9952 10.1293 19.8069 9.29227 19.8069 8.29405H19.4025C19.4025 9.34242 19.6002 10.2486 20.0055 11.0045L20.3619 10.8134ZM19.8069 8.29405C19.8069 7.29265 19.9952 6.45409 20.3619 5.77008L20.0055 5.57898C19.6002 6.33494 19.4025 7.24272 19.4025 8.29405H19.8069ZM20.3619 5.77008C20.7312 5.08133 21.2305 4.56189 21.8598 4.2052L21.6603 3.85337C20.9599 4.25036 20.4083 4.82775 20.0055 5.57898L20.3619 5.77008ZM21.8604 4.20485C22.4919 3.84398 23.2074 3.66163 24.0119 3.66163V3.25721C23.1437 3.25721 22.3579 3.45476 21.6597 3.85371L21.8604 4.20485ZM24.0119 3.66163C24.8101 3.66163 25.5225 3.84386 26.1543 4.20485L26.3549 3.85371C25.657 3.45489 24.8743 3.25721 24.0119 3.25721V3.66163ZM26.1552 4.20539C26.7875 4.56215 27.2881 5.08157 27.6573 5.77008L28.0137 5.57898C27.6108 4.82751 27.0575 4.2501 26.354 3.85317L26.1552 4.20539ZM27.6576 5.77066C28.0272 6.45454 28.2169 7.29288 28.2169 8.29405H28.6214C28.6214 7.24249 28.422 6.33448 28.0134 5.57839L27.6576 5.77066ZM26.6039 8.29405C26.6039 7.61021 26.5016 7.0202 26.2883 6.53119L25.9176 6.69289C26.1026 7.11688 26.1994 7.64821 26.1994 8.29405H26.6039ZM26.2887 6.53223C26.0796 6.04525 25.7788 5.66545 25.3823 5.40451L25.16 5.74233C25.4804 5.95321 25.7342 6.26583 25.9171 6.69184L26.2887 6.53223ZM25.3823 5.40451C24.9869 5.14431 24.5275 5.01735 24.0119 5.01735V5.42176C24.4584 5.42176 24.8384 5.53071 25.16 5.74233L25.3823 5.40451ZM24.0119 5.01735C23.4963 5.01735 23.0369 5.14431 22.6415 5.40451L22.8639 5.74233C23.1854 5.53071 23.5655 5.42176 24.0119 5.42176V5.01735ZM22.6415 5.40451C22.2454 5.66525 21.9432 6.04466 21.731 6.53119L22.1016 6.69289C22.2877 6.26641 22.5431 5.95341 22.8639 5.74233L22.6415 5.40451ZM21.7305 6.53223C21.5206 7.02093 21.42 7.61055 21.42 8.29405H21.8244C21.8244 7.64787 21.9198 7.11616 22.1021 6.69184L21.7305 6.53223ZM21.42 8.29405C21.42 8.97755 21.5206 9.56717 21.7305 10.0559L22.1021 9.89625C21.9198 9.47194 21.8244 8.94022 21.8244 8.29405H21.42ZM21.731 10.0569C21.9432 10.5434 22.2454 10.9228 22.6415 11.1836L22.8639 10.8458C22.5431 10.6347 22.2877 10.3217 22.1016 9.89521L21.731 10.0569ZM22.6415 11.1836C23.0369 11.4438 23.4963 11.5708 24.0119 11.5708V11.1663C23.5655 11.1663 23.1854 11.0574 22.8639 10.8458L22.6415 11.1836ZM24.0119 11.5708C24.5275 11.5708 24.9869 11.4438 25.3823 11.1836L25.16 10.8458C24.8384 11.0574 24.4584 11.1663 24.0119 11.1663V11.5708ZM25.3823 11.1836C25.7788 10.9226 26.0796 10.5429 26.2887 10.0559L25.9171 9.89625C25.7342 10.3223 25.4804 10.6349 25.16 10.8458L25.3823 11.1836ZM26.2883 10.0569C26.5016 9.5679 26.6039 8.97788 26.6039 8.29405H26.1994C26.1994 8.93989 26.1026 9.47122 25.9176 9.89521L26.2883 10.0569ZM30.0226 13H29.8204V13.2022H30.0226V13ZM30.0226 3.5881V3.38589H29.8204V3.5881H30.0226ZM35.8315 4.15336L35.7339 4.33043L35.7345 4.33076L35.8315 4.15336ZM37.4078 5.76644L37.2287 5.86029L37.2291 5.86091L37.4078 5.76644ZM37.4078 10.8125L37.2289 10.7183L37.2286 10.7189L37.4078 10.8125ZM35.8223 12.4347L35.7253 12.2573L35.725 12.2575L35.8223 12.4347ZM32.0125 11.295H31.8103V11.4972H32.0125V11.295ZM34.7607 10.9825L34.8539 11.162L34.8544 11.1617L34.7607 10.9825ZM35.6707 10.0036L35.4871 9.91881L35.4869 9.91938L35.6707 10.0036ZM35.6707 6.57987L35.4869 6.66412L35.4873 6.66517L35.6707 6.57987ZM34.7653 5.60559L34.8585 5.42612L34.7653 5.60559ZM32.0125 5.29309V5.09088H31.8103V5.29309H32.0125ZM33.3591 12.7978H30.0226V13.2022H33.3591V12.7978ZM30.2248 13V3.5881H29.8204V13H30.2248ZM30.0226 3.79031H33.3866V3.38589H30.0226V3.79031ZM33.3866 3.79031C34.3064 3.79031 35.0863 3.97325 35.7339 4.33042L35.9292 3.9763C35.2103 3.57979 34.3603 3.38589 33.3866 3.38589V3.79031ZM35.7345 4.33076C36.3821 4.68505 36.8793 5.19338 37.2287 5.86029L37.5869 5.67258C37.2011 4.93629 36.6474 4.36924 35.9286 3.97597L35.7345 4.33076ZM37.2291 5.86091C37.5812 6.52741 37.7617 7.33292 37.7617 8.28486H38.1661C38.1661 7.28211 37.9759 6.40868 37.5866 5.67197L37.2291 5.86091ZM37.7617 8.28486C37.7617 9.23994 37.5812 10.0487 37.2289 10.7183L37.5868 10.9066C37.9759 10.167 38.1661 9.29059 38.1661 8.28486H37.7617ZM37.2286 10.7189C36.8792 11.3885 36.3791 11.8999 35.7253 12.2573L35.9193 12.6122C36.6442 12.2159 37.2012 11.6457 37.5871 10.906L37.2286 10.7189ZM35.725 12.2575C35.0745 12.6147 34.2884 12.7978 33.3591 12.7978V13.2022C34.3415 13.2022 35.1976 13.0084 35.9197 12.612L35.725 12.2575ZM32.0125 11.4972H33.2763V11.0928H32.0125V11.4972ZM33.2763 11.4972C33.8876 11.4972 34.4164 11.3891 34.8539 11.162L34.6676 10.803C34.3024 10.9926 33.8416 11.0928 33.2763 11.0928V11.4972ZM34.8544 11.1617C35.3012 10.9282 35.6349 10.5671 35.8545 10.0879L35.4869 9.91938C35.3021 10.3226 35.0291 10.614 34.6671 10.8033L34.8544 11.1617ZM35.8542 10.0885C36.0759 9.60868 36.1808 9.00398 36.1808 8.28486H35.7764C35.7764 8.96894 35.676 9.51009 35.4871 9.91882L35.8542 10.0885ZM36.1808 8.28486C36.1808 7.57165 36.0759 6.97139 35.854 6.49457L35.4873 6.66517C35.676 7.07072 35.7764 7.60711 35.7764 8.28486H36.1808ZM35.8545 6.49562C35.635 6.01669 35.3029 5.65678 34.8585 5.42612L34.6722 5.78506C35.0305 5.97108 35.302 6.26069 35.4869 6.66412L35.8545 6.49562ZM34.8585 5.42612C34.421 5.19903 33.8922 5.09088 33.2809 5.09088V5.4953C33.8462 5.4953 34.3069 5.59548 34.6722 5.78506L34.8585 5.42612ZM33.2809 5.09088H32.0125V5.4953H33.2809V5.09088ZM31.8103 5.29309V11.295H32.2147V5.29309H31.8103ZM39.5674 13H39.3652V13.2022H39.5674V13ZM39.5674 3.5881V3.38589H39.3652V3.5881H39.5674ZM45.3763 4.15336L45.2786 4.33043L45.2792 4.33076L45.3763 4.15336ZM46.9526 5.76644L46.7735 5.86029L46.7738 5.86091L46.9526 5.76644ZM46.9526 10.8125L46.7736 10.7183L46.7733 10.7189L46.9526 10.8125ZM45.3671 12.4347L45.2701 12.2573L45.2698 12.2575L45.3671 12.4347ZM41.5573 11.295H41.3551V11.4972H41.5573V11.295ZM44.3055 10.9825L44.3987 11.162L44.3992 11.1617L44.3055 10.9825ZM45.2154 10.0036L45.0319 9.91881L45.0316 9.91938L45.2154 10.0036ZM45.2154 6.57987L45.0316 6.66412L45.0321 6.66517L45.2154 6.57987ZM44.3101 5.60559L44.4033 5.42612L44.3101 5.60559ZM41.5573 5.29309V5.09088H41.3551V5.29309H41.5573ZM42.9038 12.7978H39.5674V13.2022H42.9038V12.7978ZM39.7696 13V3.5881H39.3652V13H39.7696ZM39.5674 3.79031H42.9314V3.38589H39.5674V3.79031ZM42.9314 3.79031C43.8512 3.79031 44.6311 3.97325 45.2786 4.33042L45.474 3.9763C44.7551 3.57979 43.905 3.38589 42.9314 3.38589V3.79031ZM45.2792 4.33076C45.9268 4.68505 46.424 5.19338 46.7735 5.86029L47.1317 5.67258C46.7459 4.93629 46.1922 4.36924 45.4733 3.97597L45.2792 4.33076ZM46.7738 5.86091C47.126 6.52741 47.3065 7.33292 47.3065 8.28486H47.7109C47.7109 7.28211 47.5206 6.40868 47.1314 5.67197L46.7738 5.86091ZM47.3065 8.28486C47.3065 9.23994 47.1259 10.0487 46.7736 10.7183L47.1316 10.9066C47.5207 10.167 47.7109 9.29059 47.7109 8.28486H47.3065ZM46.7733 10.7189C46.424 11.3885 45.9239 11.8999 45.2701 12.2573L45.4641 12.6122C46.189 12.2159 46.7459 11.6457 47.1319 10.906L46.7733 10.7189ZM45.2698 12.2575C44.6192 12.6147 43.8331 12.7978 42.9038 12.7978V13.2022C43.8863 13.2022 44.7424 13.0084 45.4644 12.612L45.2698 12.2575ZM41.5573 11.4972H42.8211V11.0928H41.5573V11.4972ZM42.8211 11.4972C43.4323 11.4972 43.9612 11.3891 44.3987 11.162L44.2123 10.803C43.8471 10.9926 43.3864 11.0928 42.8211 11.0928V11.4972ZM44.3992 11.1617C44.846 10.9282 45.1796 10.5671 45.3993 10.0879L45.0316 9.91938C44.8468 10.3226 44.5739 10.614 44.2118 10.8033L44.3992 11.1617ZM45.399 10.0885C45.6207 9.60868 45.7256 9.00398 45.7256 8.28486H45.3211C45.3211 8.96894 45.2207 9.51009 45.0319 9.91882L45.399 10.0885ZM45.7256 8.28486C45.7256 7.57165 45.6206 6.97139 45.3988 6.49457L45.0321 6.66517C45.2208 7.07072 45.3211 7.60711 45.3211 8.28486H45.7256ZM45.3993 6.49562C45.1798 6.01669 44.8476 5.65678 44.4033 5.42612L44.2169 5.78506C44.5753 5.97108 44.8467 6.26069 45.0316 6.66412L45.3993 6.49562ZM44.4033 5.42612C43.9658 5.19903 43.4369 5.09088 42.8257 5.09088V5.4953C43.3909 5.4953 43.8517 5.59548 44.2169 5.78506L44.4033 5.42612ZM42.8257 5.09088H41.5573V5.4953H42.8257V5.09088ZM41.3551 5.29309V11.295H41.7595V5.29309H41.3551ZM47.992 3.5881V3.38589H47.6457L47.8158 3.68746L47.992 3.5881ZM50.2208 3.5881L50.3996 3.49348L50.3426 3.38589H50.2208V3.5881ZM52.367 7.64147L52.1883 7.73609L52.2453 7.84367H52.367V7.64147ZM52.4589 7.64147V7.84367H52.5807L52.6376 7.73609L52.4589 7.64147ZM54.6051 3.5881V3.38589H54.4834L54.4264 3.49348L54.6051 3.5881ZM56.834 3.5881L57.0101 3.68746L57.1803 3.38589H56.834V3.5881ZM53.401 9.67275L53.2249 9.57338L53.1988 9.61964V9.67275H53.401ZM53.401 13V13.2022H53.6032V13H53.401ZM51.4249 13H51.2227V13.2022H51.4249V13ZM51.4249 9.67275H51.6271V9.61964L51.601 9.57338L51.4249 9.67275ZM47.992 3.79031H50.2208V3.38589H47.992V3.79031ZM50.0421 3.68272L52.1883 7.73609L52.5457 7.54685L50.3996 3.49348L50.0421 3.68272ZM52.367 7.84367H52.4589V7.43926H52.367V7.84367ZM52.6376 7.73609L54.7838 3.68272L54.4264 3.49348L52.2802 7.54685L52.6376 7.73609ZM54.6051 3.79031H56.834V3.38589H54.6051V3.79031ZM56.6579 3.48874L53.2249 9.57338L53.5772 9.77211L57.0101 3.68746L56.6579 3.48874ZM53.1988 9.67275V13H53.6032V9.67275H53.1988ZM53.401 12.7978H51.4249V13.2022H53.401V12.7978ZM51.6271 13V9.67275H51.2227V13H51.6271ZM51.601 9.57338L48.1681 3.48874L47.8158 3.68746L51.2488 9.77211L51.601 9.57338Z" fill="black"/>
</g>
<g filter="url(#filter2_d_882_10102)">
<path d="M1.81803 36.3262V26.9143H8.04974V28.5549H3.80795V30.7976H7.63613V32.4382H3.80795V36.3262H1.81803ZM18.1667 31.6202C18.1667 32.6466 17.9721 33.5198 17.583 34.2397C17.197 34.9597 16.67 35.5097 16.0021 35.8896C15.3373 36.2664 14.5897 36.4549 13.7594 36.4549C12.923 36.4549 12.1724 36.2649 11.5076 35.885C10.8427 35.5051 10.3173 34.9551 9.93124 34.2351C9.54521 33.5152 9.35219 32.6435 9.35219 31.6202C9.35219 30.5939 9.54521 29.7207 9.93124 29.0007C10.3173 28.2807 10.8427 27.7323 11.5076 27.3555C12.1724 26.9755 12.923 26.7856 13.7594 26.7856C14.5897 26.7856 15.3373 26.9755 16.0021 27.3555C16.67 27.7323 17.197 28.2807 17.583 29.0007C17.9721 29.7207 18.1667 30.5939 18.1667 31.6202ZM16.1492 31.6202C16.1492 30.9554 16.0496 30.3947 15.8504 29.9382C15.6544 29.4817 15.3771 29.1355 15.0186 28.8996C14.6602 28.6637 14.2404 28.5457 13.7594 28.5457C13.2784 28.5457 12.8587 28.6637 12.5002 28.8996C12.1418 29.1355 11.8629 29.4817 11.6638 29.9382C11.4677 30.3947 11.3697 30.9554 11.3697 31.6202C11.3697 32.2851 11.4677 32.8457 11.6638 33.3022C11.8629 33.7587 12.1418 34.1049 12.5002 34.3408C12.8587 34.5768 13.2784 34.6947 13.7594 34.6947C14.2404 34.6947 14.6602 34.5768 15.0186 34.3408C15.3771 34.1049 15.6544 33.7587 15.8504 33.3022C16.0496 32.8457 16.1492 32.2851 16.1492 31.6202ZM28.4192 31.6202C28.4192 32.6466 28.2246 33.5198 27.8355 34.2397C27.4495 34.9597 26.9225 35.5097 26.2546 35.8896C25.5898 36.2664 24.8422 36.4549 24.0119 36.4549C23.1755 36.4549 22.4249 36.2649 21.76 35.885C21.0952 35.5051 20.5698 34.9551 20.1837 34.2351C19.7977 33.5152 19.6047 32.6435 19.6047 31.6202C19.6047 30.5939 19.7977 29.7207 20.1837 29.0007C20.5698 28.2807 21.0952 27.7323 21.76 27.3555C22.4249 26.9755 23.1755 26.7856 24.0119 26.7856C24.8422 26.7856 25.5898 26.9755 26.2546 27.3555C26.9225 27.7323 27.4495 28.2807 27.8355 29.0007C28.2246 29.7207 28.4192 30.5939 28.4192 31.6202ZM26.4017 31.6202C26.4017 30.9554 26.3021 30.3947 26.1029 29.9382C25.9069 29.4817 25.6296 29.1355 25.2711 28.8996C24.9127 28.6637 24.4929 28.5457 24.0119 28.5457C23.5309 28.5457 23.1112 28.6637 22.7527 28.8996C22.3942 29.1355 22.1154 29.4817 21.9163 29.9382C21.7202 30.3947 21.6222 30.9554 21.6222 31.6202C21.6222 32.2851 21.7202 32.8457 21.9163 33.3022C22.1154 33.7587 22.3942 34.1049 22.7527 34.3408C23.1112 34.5768 23.5309 34.6947 24.0119 34.6947C24.4929 34.6947 24.9127 34.5768 25.2711 34.3408C25.6296 34.1049 25.9069 33.7587 26.1029 33.3022C26.3021 32.8457 26.4017 32.2851 26.4017 31.6202ZM33.3591 36.3262H30.0226V26.9143H33.3866C34.3333 26.9143 35.1483 27.1027 35.8315 27.4795C36.5147 27.8533 37.0402 28.391 37.4078 29.0926C37.7786 29.7942 37.9639 30.6337 37.9639 31.611C37.9639 32.5914 37.7786 33.434 37.4078 34.1386C37.0402 34.8433 36.5117 35.3841 35.8223 35.7609C35.1361 36.1377 34.315 36.3262 33.3591 36.3262ZM32.0125 34.6212H33.2763C33.8646 34.6212 34.3594 34.517 34.7607 34.3087C35.1652 34.0973 35.4685 33.771 35.6707 33.3298C35.876 32.8856 35.9786 32.3126 35.9786 31.611C35.9786 30.9156 35.876 30.3472 35.6707 29.906C35.4685 29.4649 35.1667 29.1401 34.7653 28.9318C34.364 28.7234 33.8692 28.6193 33.2809 28.6193H32.0125V34.6212ZM42.9038 36.3262H39.5674V26.9143H42.9314C43.8781 26.9143 44.6931 27.1027 45.3763 27.4795C46.0595 27.8533 46.5849 28.391 46.9526 29.0926C47.3233 29.7942 47.5087 30.6337 47.5087 31.611C47.5087 32.5914 47.3233 33.434 46.9526 34.1386C46.5849 34.8433 46.0564 35.3841 45.3671 35.7609C44.6808 36.1377 43.8597 36.3262 42.9038 36.3262ZM41.5573 34.6212H42.8211C43.4093 34.6212 43.9041 34.517 44.3055 34.3087C44.7099 34.0973 45.0132 33.771 45.2154 33.3298C45.4207 32.8856 45.5234 32.3126 45.5234 31.611C45.5234 30.9156 45.4207 30.3472 45.2154 29.906C45.0132 29.4649 44.7115 29.1401 44.3101 28.9318C43.9087 28.7234 43.4139 28.6193 42.8257 28.6193H41.5573V34.6212ZM47.992 26.9143H50.2208L52.367 30.9676H52.4589L54.6051 26.9143H56.834L53.401 32.9989V36.3262H51.4249V32.9989L47.992 26.9143Z" fill="#FFC804"/>
<path d="M1.81803 36.3262H1.61582V36.5284H1.81803V36.3262ZM1.81803 26.9143V26.7121H1.61582V26.9143H1.81803ZM8.04974 26.9143H8.25194V26.7121H8.04974V26.9143ZM8.04974 28.5549V28.7571H8.25194V28.5549H8.04974ZM3.80795 28.5549V28.3527H3.60574V28.5549H3.80795ZM3.80795 30.7976H3.60574V30.9998H3.80795V30.7976ZM7.63613 30.7976H7.83834V30.5954H7.63613V30.7976ZM7.63613 32.4382V32.6405H7.83834V32.4382H7.63613ZM3.80795 32.4382V32.236H3.60574V32.4382H3.80795ZM3.80795 36.3262V36.5284H4.01015V36.3262H3.80795ZM2.02024 36.3262V26.9143H1.61582V36.3262H2.02024ZM1.81803 27.1165H8.04974V26.7121H1.81803V27.1165ZM7.84753 26.9143V28.5549H8.25194V26.9143H7.84753ZM8.04974 28.3527H3.80795V28.7571H8.04974V28.3527ZM3.60574 28.5549V30.7976H4.01015V28.5549H3.60574ZM3.80795 30.9998H7.63613V30.5954H3.80795V30.9998ZM7.43392 30.7976V32.4382H7.83834V30.7976H7.43392ZM7.63613 32.236H3.80795V32.6405H7.63613V32.236ZM3.60574 32.4382V36.3262H4.01015V32.4382H3.60574ZM3.80795 36.124H1.81803V36.5284H3.80795V36.124ZM17.583 34.2397L17.4051 34.1436L17.4048 34.1442L17.583 34.2397ZM16.0021 35.8896L16.1018 36.0655L16.1021 36.0653L16.0021 35.8896ZM11.5076 35.885L11.6079 35.7094L11.5076 35.885ZM9.93124 34.2351L9.75303 34.3307L9.93124 34.2351ZM9.93124 29.0007L10.1095 29.0962L9.93124 29.0007ZM11.5076 27.3555L11.6073 27.5314L11.6079 27.531L11.5076 27.3555ZM16.0021 27.3555L15.9018 27.531L15.9027 27.5316L16.0021 27.3555ZM17.583 29.0007L17.4048 29.0962L17.4051 29.0968L17.583 29.0007ZM15.8504 29.9382L15.6646 30.018L15.6651 30.0191L15.8504 29.9382ZM15.0186 28.8996L14.9075 29.0685L15.0186 28.8996ZM12.5002 28.8996L12.6114 29.0685L12.5002 28.8996ZM11.6638 29.9382L11.4785 29.8574L11.478 29.8584L11.6638 29.9382ZM11.6638 33.3022L11.478 33.382L11.4785 33.3831L11.6638 33.3022ZM12.5002 34.3408L12.6114 34.1719L12.5002 34.3408ZM15.0186 34.3408L14.9075 34.1719L15.0186 34.3408ZM15.8504 33.3022L15.6651 33.2214L15.6647 33.2224L15.8504 33.3022ZM17.9644 31.6202C17.9644 32.6214 17.7747 33.4597 17.4051 34.1436L17.7609 34.3359C18.1695 33.5798 18.3689 32.6718 18.3689 31.6202H17.9644ZM17.4048 34.1442C17.0356 34.8328 16.5348 35.354 15.9021 35.7138L16.1021 36.0653C16.8052 35.6654 17.3584 35.0866 17.7612 34.3353L17.4048 34.1442ZM15.9024 35.7137C15.2706 36.0718 14.5579 36.2526 13.7594 36.2526V36.6571C14.6215 36.6571 15.404 36.461 16.1018 36.0655L15.9024 35.7137ZM13.7594 36.2526C12.9549 36.2526 12.2394 36.0703 11.6079 35.7094L11.4072 36.0606C12.1054 36.4595 12.8912 36.6571 13.7594 36.6571V36.2526ZM11.6079 35.7094C10.9782 35.3496 10.4788 34.8285 10.1095 34.1396L9.75303 34.3307C10.1558 35.0818 10.7072 35.6605 11.4072 36.0606L11.6079 35.7094ZM10.1095 34.1396C9.74266 33.4555 9.5544 32.6184 9.5544 31.6202H9.14998C9.14998 32.6686 9.34775 33.5748 9.75303 34.3307L10.1095 34.1396ZM9.5544 31.6202C9.5544 30.6188 9.74271 29.7803 10.1095 29.0962L9.75303 28.9051C9.34771 29.6611 9.14998 30.5689 9.14998 31.6202H9.5544ZM10.1095 29.0962C10.4787 28.4075 10.978 27.8881 11.6073 27.5314L11.4078 27.1795C10.7075 27.5765 10.1558 28.1539 9.75303 28.9051L10.1095 29.0962ZM11.6079 27.531C12.2394 27.1702 12.9549 26.9878 13.7594 26.9878V26.5834C12.8912 26.5834 12.1054 26.7809 11.4072 27.1799L11.6079 27.531ZM13.7594 26.9878C14.5576 26.9878 15.27 27.17 15.9018 27.531L16.1024 27.1799C15.4045 26.7811 14.6218 26.5834 13.7594 26.5834V26.9878ZM15.9027 27.5316C16.535 27.8883 17.0356 28.4077 17.4048 29.0962L17.7612 28.9051C17.3583 28.1537 16.805 27.5763 16.1015 27.1793L15.9027 27.5316ZM17.4051 29.0968C17.7747 29.7807 17.9644 30.6191 17.9644 31.6202H18.3689C18.3689 30.5687 18.1695 29.6607 17.7609 28.9046L17.4051 29.0968ZM16.3514 31.6202C16.3514 30.9364 16.2491 30.3464 16.0358 29.8574L15.6651 30.0191C15.8501 30.4431 15.947 30.9744 15.947 31.6202H16.3514ZM16.0362 29.8584C15.8271 29.3714 15.5263 28.9916 15.1298 28.7307L14.9075 29.0685C15.2279 29.2794 15.4817 29.592 15.6647 30.018L16.0362 29.8584ZM15.1298 28.7307C14.7344 28.4705 14.275 28.3435 13.7594 28.3435V28.7479C14.2059 28.7479 14.5859 28.8569 14.9075 29.0685L15.1298 28.7307ZM13.7594 28.3435C13.2438 28.3435 12.7844 28.4705 12.3891 28.7307L12.6114 29.0685C12.9329 28.8569 13.313 28.7479 13.7594 28.7479V28.3435ZM12.3891 28.7307C11.9929 28.9914 11.6907 29.3708 11.4785 29.8574L11.8491 30.0191C12.0352 29.5926 12.2906 29.2796 12.6114 29.0685L12.3891 28.7307ZM11.478 29.8584C11.2681 30.3471 11.1675 30.9367 11.1675 31.6202H11.5719C11.5719 30.974 11.6673 30.4423 11.8496 30.018L11.478 29.8584ZM11.1675 31.6202C11.1675 32.3037 11.2681 32.8933 11.478 33.382L11.8496 33.2224C11.6673 32.7981 11.5719 32.2664 11.5719 31.6202H11.1675ZM11.4785 33.3831C11.6907 33.8696 11.9929 34.249 12.3891 34.5098L12.6114 34.1719C12.2906 33.9609 12.0352 33.6479 11.8491 33.2214L11.4785 33.3831ZM12.3891 34.5098C12.7844 34.77 13.2438 34.8969 13.7594 34.8969V34.4925C13.313 34.4925 12.9329 34.3836 12.6114 34.1719L12.3891 34.5098ZM13.7594 34.8969C14.275 34.8969 14.7344 34.77 15.1298 34.5098L14.9075 34.1719C14.5859 34.3836 14.2059 34.4925 13.7594 34.4925V34.8969ZM15.1298 34.5098C15.5263 34.2488 15.8271 33.869 16.0362 33.382L15.6647 33.2224C15.4817 33.6484 15.2279 33.9611 14.9075 34.1719L15.1298 34.5098ZM16.0358 33.3831C16.2491 32.8941 16.3514 32.3041 16.3514 31.6202H15.947C15.947 32.2661 15.8501 32.7974 15.6651 33.2214L16.0358 33.3831ZM27.8355 34.2397L27.6576 34.1436L27.6573 34.1442L27.8355 34.2397ZM26.2546 35.8896L26.3543 36.0655L26.3546 36.0653L26.2546 35.8896ZM21.76 35.885L21.8604 35.7094L21.76 35.885ZM20.1837 34.2351L20.0055 34.3307L20.1837 34.2351ZM20.1837 29.0007L20.3619 29.0962L20.1837 29.0007ZM21.76 27.3555L21.8598 27.5314L21.8604 27.531L21.76 27.3555ZM26.2546 27.3555L26.1543 27.531L26.1552 27.5316L26.2546 27.3555ZM27.8355 29.0007L27.6573 29.0962L27.6576 29.0968L27.8355 29.0007ZM26.1029 29.9382L25.9171 30.018L25.9176 30.0191L26.1029 29.9382ZM25.2711 28.8996L25.16 29.0685L25.2711 28.8996ZM22.7527 28.8996L22.8639 29.0685L22.7527 28.8996ZM21.9163 29.9382L21.731 29.8574L21.7305 29.8584L21.9163 29.9382ZM21.9163 33.3022L21.7305 33.382L21.731 33.3831L21.9163 33.3022ZM22.7527 34.3408L22.8639 34.1719L22.7527 34.3408ZM25.2711 34.3408L25.16 34.1719L25.2711 34.3408ZM26.1029 33.3022L25.9176 33.2214L25.9171 33.2224L26.1029 33.3022ZM28.2169 31.6202C28.2169 32.6214 28.0272 33.4597 27.6576 34.1436L28.0134 34.3359C28.422 33.5798 28.6214 32.6718 28.6214 31.6202H28.2169ZM27.6573 34.1442C27.2881 34.8328 26.7873 35.354 26.1546 35.7138L26.3546 36.0653C27.0577 35.6654 27.6109 35.0866 28.0137 34.3353L27.6573 34.1442ZM26.1549 35.7137C25.523 36.0718 24.8104 36.2526 24.0119 36.2526V36.6571C24.874 36.6571 25.6565 36.461 26.3543 36.0655L26.1549 35.7137ZM24.0119 36.2526C23.2074 36.2526 22.4919 36.0703 21.8604 35.7094L21.6597 36.0606C22.3579 36.4595 23.1437 36.6571 24.0119 36.6571V36.2526ZM21.8604 35.7094C21.2307 35.3496 20.7313 34.8285 20.3619 34.1396L20.0055 34.3307C20.4082 35.0818 20.9597 35.6605 21.6597 36.0606L21.8604 35.7094ZM20.3619 34.1396C19.9952 33.4555 19.8069 32.6184 19.8069 31.6202H19.4025C19.4025 32.6686 19.6002 33.5748 20.0055 34.3307L20.3619 34.1396ZM19.8069 31.6202C19.8069 30.6188 19.9952 29.7803 20.3619 29.0962L20.0055 28.9051C19.6002 29.6611 19.4025 30.5689 19.4025 31.6202H19.8069ZM20.3619 29.0962C20.7312 28.4075 21.2305 27.8881 21.8598 27.5314L21.6603 27.1795C20.9599 27.5765 20.4083 28.1539 20.0055 28.9051L20.3619 29.0962ZM21.8604 27.531C22.4919 27.1702 23.2074 26.9878 24.0119 26.9878V26.5834C23.1437 26.5834 22.3579 26.7809 21.6597 27.1799L21.8604 27.531ZM24.0119 26.9878C24.8101 26.9878 25.5225 27.17 26.1543 27.531L26.3549 27.1799C25.657 26.7811 24.8743 26.5834 24.0119 26.5834V26.9878ZM26.1552 27.5316C26.7875 27.8883 27.2881 28.4077 27.6573 29.0962L28.0137 28.9051C27.6108 28.1537 27.0575 27.5763 26.354 27.1793L26.1552 27.5316ZM27.6576 29.0968C28.0272 29.7807 28.2169 30.6191 28.2169 31.6202H28.6214C28.6214 30.5687 28.422 29.6607 28.0134 28.9046L27.6576 29.0968ZM26.6039 31.6202C26.6039 30.9364 26.5016 30.3464 26.2883 29.8574L25.9176 30.0191C26.1026 30.4431 26.1994 30.9744 26.1994 31.6202H26.6039ZM26.2887 29.8584C26.0796 29.3714 25.7788 28.9916 25.3823 28.7307L25.16 29.0685C25.4804 29.2794 25.7342 29.592 25.9171 30.018L26.2887 29.8584ZM25.3823 28.7307C24.9869 28.4705 24.5275 28.3435 24.0119 28.3435V28.7479C24.4584 28.7479 24.8384 28.8569 25.16 29.0685L25.3823 28.7307ZM24.0119 28.3435C23.4963 28.3435 23.0369 28.4705 22.6415 28.7307L22.8639 29.0685C23.1854 28.8569 23.5655 28.7479 24.0119 28.7479V28.3435ZM22.6415 28.7307C22.2454 28.9914 21.9432 29.3708 21.731 29.8574L22.1016 30.0191C22.2877 29.5926 22.5431 29.2796 22.8639 29.0685L22.6415 28.7307ZM21.7305 29.8584C21.5206 30.3471 21.42 30.9367 21.42 31.6202H21.8244C21.8244 30.974 21.9198 30.4423 22.1021 30.018L21.7305 29.8584ZM21.42 31.6202C21.42 32.3037 21.5206 32.8933 21.7305 33.382L22.1021 33.2224C21.9198 32.7981 21.8244 32.2664 21.8244 31.6202H21.42ZM21.731 33.3831C21.9432 33.8696 22.2454 34.249 22.6415 34.5098L22.8639 34.1719C22.5431 33.9609 22.2877 33.6479 22.1016 33.2214L21.731 33.3831ZM22.6415 34.5098C23.0369 34.77 23.4963 34.8969 24.0119 34.8969V34.4925C23.5655 34.4925 23.1854 34.3836 22.8639 34.1719L22.6415 34.5098ZM24.0119 34.8969C24.5275 34.8969 24.9869 34.77 25.3823 34.5098L25.16 34.1719C24.8384 34.3836 24.4584 34.4925 24.0119 34.4925V34.8969ZM25.3823 34.5098C25.7788 34.2488 26.0796 33.869 26.2887 33.382L25.9171 33.2224C25.7342 33.6484 25.4804 33.9611 25.16 34.1719L25.3823 34.5098ZM26.2883 33.3831C26.5016 32.8941 26.6039 32.3041 26.6039 31.6202H26.1994C26.1994 32.2661 26.1026 32.7974 25.9176 33.2214L26.2883 33.3831ZM30.0226 36.3262H29.8204V36.5284H30.0226V36.3262ZM30.0226 26.9143V26.7121H29.8204V26.9143H30.0226ZM35.8315 27.4795L35.7339 27.6566L35.7345 27.6569L35.8315 27.4795ZM37.4078 29.0926L37.2287 29.1865L37.2291 29.1871L37.4078 29.0926ZM37.4078 34.1386L37.2289 34.0445L37.2286 34.0451L37.4078 34.1386ZM35.8223 35.7609L35.7253 35.5835L35.725 35.5837L35.8223 35.7609ZM32.0125 34.6212H31.8103V34.8234H32.0125V34.6212ZM34.7607 34.3087L34.8539 34.4882L34.8544 34.4879L34.7607 34.3087ZM35.6707 33.3298L35.4871 33.245L35.4869 33.2456L35.6707 33.3298ZM35.6707 29.906L35.4869 29.9903L35.4873 29.9913L35.6707 29.906ZM34.7653 28.9318L34.8585 28.7523L34.7653 28.9318ZM32.0125 28.6193V28.417H31.8103V28.6193H32.0125ZM33.3591 36.124H30.0226V36.5284H33.3591V36.124ZM30.2248 36.3262V26.9143H29.8204V36.3262H30.2248ZM30.0226 27.1165H33.3866V26.7121H30.0226V27.1165ZM33.3866 27.1165C34.3064 27.1165 35.0863 27.2994 35.7339 27.6566L35.9292 27.3025C35.2103 26.906 34.3603 26.7121 33.3866 26.7121V27.1165ZM35.7345 27.6569C36.3821 28.0112 36.8793 28.5196 37.2287 29.1865L37.5869 28.9988C37.2011 28.2625 36.6474 27.6954 35.9286 27.3021L35.7345 27.6569ZM37.2291 29.1871C37.5812 29.8536 37.7617 30.6591 37.7617 31.611H38.1661C38.1661 30.6083 37.9759 29.7348 37.5866 28.9981L37.2291 29.1871ZM37.7617 31.611C37.7617 32.5661 37.5812 33.3748 37.2289 34.0445L37.5868 34.2328C37.9759 33.4931 38.1661 32.6168 38.1661 31.611H37.7617ZM37.2286 34.0451C36.8792 34.7147 36.3791 35.2261 35.7253 35.5835L35.9193 35.9383C36.6442 35.542 37.2012 34.9719 37.5871 34.2322L37.2286 34.0451ZM35.725 35.5837C35.0745 35.9409 34.2884 36.124 33.3591 36.124V36.5284C34.3415 36.5284 35.1976 36.3346 35.9197 35.9382L35.725 35.5837ZM32.0125 34.8234H33.2763V34.419H32.0125V34.8234ZM33.2763 34.8234C33.8876 34.8234 34.4164 34.7152 34.8539 34.4881L34.6676 34.1292C34.3024 34.3188 33.8416 34.419 33.2763 34.419V34.8234ZM34.8544 34.4879C35.3012 34.2543 35.6349 33.8932 35.8545 33.4141L35.4869 33.2456C35.3021 33.6487 35.0291 33.9402 34.6671 34.1295L34.8544 34.4879ZM35.8542 33.4146C36.0759 32.9349 36.1808 32.3302 36.1808 31.611H35.7764C35.7764 32.2951 35.676 32.8363 35.4871 33.245L35.8542 33.4146ZM36.1808 31.611C36.1808 30.8978 36.0759 30.2976 35.854 29.8207L35.4873 29.9913C35.676 30.3969 35.7764 30.9333 35.7764 31.611H36.1808ZM35.8545 29.8218C35.635 29.3429 35.3029 28.9829 34.8585 28.7523L34.6722 29.1112C35.0305 29.2972 35.302 29.5869 35.4869 29.9903L35.8545 29.8218ZM34.8585 28.7523C34.421 28.5252 33.8922 28.417 33.2809 28.417V28.8215C33.8462 28.8215 34.3069 28.9216 34.6722 29.1112L34.8585 28.7523ZM33.2809 28.417H32.0125V28.8215H33.2809V28.417ZM31.8103 28.6193V34.6212H32.2147V28.6193H31.8103ZM39.5674 36.3262H39.3652V36.5284H39.5674V36.3262ZM39.5674 26.9143V26.7121H39.3652V26.9143H39.5674ZM45.3763 27.4795L45.2786 27.6566L45.2792 27.6569L45.3763 27.4795ZM46.9526 29.0926L46.7735 29.1865L46.7738 29.1871L46.9526 29.0926ZM46.9526 34.1386L46.7736 34.0445L46.7733 34.0451L46.9526 34.1386ZM45.3671 35.7609L45.2701 35.5835L45.2698 35.5837L45.3671 35.7609ZM41.5573 34.6212H41.3551V34.8234H41.5573V34.6212ZM44.3055 34.3087L44.3987 34.4882L44.3992 34.4879L44.3055 34.3087ZM45.2154 33.3298L45.0319 33.245L45.0316 33.2456L45.2154 33.3298ZM45.2154 29.906L45.0316 29.9903L45.0321 29.9913L45.2154 29.906ZM44.3101 28.9318L44.4033 28.7523L44.3101 28.9318ZM41.5573 28.6193V28.417H41.3551V28.6193H41.5573ZM42.9038 36.124H39.5674V36.5284H42.9038V36.124ZM39.7696 36.3262V26.9143H39.3652V36.3262H39.7696ZM39.5674 27.1165H42.9314V26.7121H39.5674V27.1165ZM42.9314 27.1165C43.8512 27.1165 44.6311 27.2994 45.2786 27.6566L45.474 27.3025C44.7551 26.906 43.905 26.7121 42.9314 26.7121V27.1165ZM45.2792 27.6569C45.9268 28.0112 46.424 28.5196 46.7735 29.1865L47.1317 28.9988C46.7459 28.2625 46.1922 27.6954 45.4733 27.3021L45.2792 27.6569ZM46.7738 29.1871C47.126 29.8536 47.3065 30.6591 47.3065 31.611H47.7109C47.7109 30.6083 47.5206 29.7348 47.1314 28.9981L46.7738 29.1871ZM47.3065 31.611C47.3065 32.5661 47.1259 33.3748 46.7736 34.0445L47.1316 34.2328C47.5207 33.4931 47.7109 32.6168 47.7109 31.611H47.3065ZM46.7733 34.0451C46.424 34.7147 45.9239 35.2261 45.2701 35.5835L45.4641 35.9383C46.189 35.542 46.7459 34.9719 47.1319 34.2322L46.7733 34.0451ZM45.2698 35.5837C44.6192 35.9409 43.8331 36.124 42.9038 36.124V36.5284C43.8863 36.5284 44.7424 36.3346 45.4644 35.9382L45.2698 35.5837ZM41.5573 34.8234H42.8211V34.419H41.5573V34.8234ZM42.8211 34.8234C43.4323 34.8234 43.9612 34.7152 44.3987 34.4881L44.2123 34.1292C43.8471 34.3188 43.3864 34.419 42.8211 34.419V34.8234ZM44.3992 34.4879C44.846 34.2543 45.1796 33.8932 45.3993 33.4141L45.0316 33.2456C44.8468 33.6487 44.5739 33.9402 44.2118 34.1295L44.3992 34.4879ZM45.399 33.4146C45.6207 32.9349 45.7256 32.3302 45.7256 31.611H45.3211C45.3211 32.2951 45.2207 32.8363 45.0319 33.245L45.399 33.4146ZM45.7256 31.611C45.7256 30.8978 45.6206 30.2976 45.3988 29.8207L45.0321 29.9913C45.2208 30.3969 45.3211 30.9333 45.3211 31.611H45.7256ZM45.3993 29.8218C45.1798 29.3429 44.8476 28.9829 44.4033 28.7523L44.2169 29.1112C44.5753 29.2972 44.8467 29.5869 45.0316 29.9903L45.3993 29.8218ZM44.4033 28.7523C43.9658 28.5252 43.4369 28.417 42.8257 28.417V28.8215C43.3909 28.8215 43.8517 28.9216 44.2169 29.1112L44.4033 28.7523ZM42.8257 28.417H41.5573V28.8215H42.8257V28.417ZM41.3551 28.6193V34.6212H41.7595V28.6193H41.3551ZM47.992 26.9143V26.7121H47.6457L47.8158 27.0136L47.992 26.9143ZM50.2208 26.9143L50.3996 26.8196L50.3426 26.7121H50.2208V26.9143ZM52.367 30.9676L52.1883 31.0623L52.2453 31.1698H52.367V30.9676ZM52.4589 30.9676V31.1698H52.5807L52.6376 31.0623L52.4589 30.9676ZM54.6051 26.9143V26.7121H54.4834L54.4264 26.8196L54.6051 26.9143ZM56.834 26.9143L57.0101 27.0136L57.1803 26.7121H56.834V26.9143ZM53.401 32.9989L53.2249 32.8996L53.1988 32.9458V32.9989H53.401ZM53.401 36.3262V36.5284H53.6032V36.3262H53.401ZM51.4249 36.3262H51.2227V36.5284H51.4249V36.3262ZM51.4249 32.9989H51.6271V32.9458L51.601 32.8996L51.4249 32.9989ZM47.992 27.1165H50.2208V26.7121H47.992V27.1165ZM50.0421 27.0089L52.1883 31.0623L52.5457 30.873L50.3996 26.8196L50.0421 27.0089ZM52.367 31.1698H52.4589V30.7654H52.367V31.1698ZM52.6376 31.0623L54.7838 27.0089L54.4264 26.8196L52.2802 30.873L52.6376 31.0623ZM54.6051 27.1165H56.834V26.7121H54.6051V27.1165ZM56.6579 26.8149L53.2249 32.8996L53.5772 33.0983L57.0101 27.0136L56.6579 26.8149ZM53.1988 32.9989V36.3262H53.6032V32.9989H53.1988ZM53.401 36.124H51.4249V36.5284H53.401V36.124ZM51.6271 36.3262V32.9989H51.2227V36.3262H51.6271ZM51.601 32.8996L48.1681 26.8149L47.8158 27.0136L51.2488 33.0983L51.601 32.8996Z" fill="black"/>
</g>
<defs>
<filter id="filter0_d_882_10102" x="0.604618" y="15.1226" width="57.4426" height="12.0957" filterUnits="userSpaceOnUse" color-interpolation-filters="sRGB">
<feFlood flood-opacity="0" result="BackgroundImageFix"/>
<feColorMatrix in="SourceAlpha" type="matrix" values="0 0 0 0 0 0 0 0 0 0 0 0 0 0 0 0 0 0 127 0" result="hardAlpha"/>
<feOffset dy="1.21325"/>
<feGaussianBlur stdDeviation="0.606627"/>
<feComposite in2="hardAlpha" operator="out"/>
<feColorMatrix type="matrix" values="0 0 0 0 0 0 0 0 0 0 0 0 0 0 0 0 0 0 0.25 0"/>
<feBlend mode="normal" in2="BackgroundImageFix" result="effect1_dropShadow_882_10102"/>
<feBlend mode="normal" in="SourceGraphic" in2="effect1_dropShadow_882_10102" result="shape"/>
</filter>
<filter id="filter1_d_882_10102" x="0.551204" y="3.45947" width="57.5494" height="12.2025" filterUnits="userSpaceOnUse" color-interpolation-filters="sRGB">
<feFlood flood-opacity="0" result="BackgroundImageFix"/>
<feColorMatrix in="SourceAlpha" type="matrix" values="0 0 0 0 0 0 0 0 0 0 0 0 0 0 0 0 0 0 127 0" result="hardAlpha"/>
<feOffset dy="1.26667"/>
<feGaussianBlur stdDeviation="0.633333"/>
<feComposite in2="hardAlpha" operator="out"/>
<feColorMatrix type="matrix" values="0 0 0 0 0 0 0 0 0 0 0 0 0 0 0 0 0 0 0.25 0"/>
<feBlend mode="normal" in2="BackgroundImageFix" result="effect1_dropShadow_882_10102"/>
<feBlend mode="normal" in="SourceGraphic" in2="effect1_dropShadow_882_10102" result="shape"/>
</filter>
<filter id="filter2_d_882_10102" x="0.551204" y="26.7856" width="57.5494" height="12.2025" filterUnits="userSpaceOnUse" color-interpolation-filters="sRGB">
<feFlood flood-opacity="0" result="BackgroundImageFix"/>
<feColorMatrix in="SourceAlpha" type="matrix" values="0 0 0 0 0 0 0 0 0 0 0 0 0 0 0 0 0 0 127 0" result="hardAlpha"/>
<feOffset dy="1.26667"/>
<feGaussianBlur stdDeviation="0.633333"/>
<feComposite in2="hardAlpha" operator="out"/>
<feColorMatrix type="matrix" values="0 0 0 0 0 0 0 0 0 0 0 0 0 0 0 0 0 0 0.25 0"/>
<feBlend mode="normal" in2="BackgroundImageFix" result="effect1_dropShadow_882_10102"/>
<feBlend mode="normal" in="SourceGraphic" in2="effect1_dropShadow_882_10102" result="shape"/>
</filter>
</defs>
</svg>
