<svg width="153" height="105" viewBox="0 0 153 105" fill="none" xmlns="http://www.w3.org/2000/svg">
<g filter="url(#filter0_d_1120_2392)">
<path d="M4.1527 63.6926V38.9245H20.5519V43.242H9.38933V49.1437H19.4635V53.4612H9.38933V63.6926H4.1527ZM47.1754 51.3085C47.1754 54.0095 46.6634 56.3073 45.6395 58.202C44.6236 60.0967 43.2369 61.544 41.4792 62.5437C39.7296 63.5354 37.7624 64.0313 35.5774 64.0313C33.3764 64.0313 31.401 63.5314 29.6515 62.5316C27.9019 61.5319 26.5192 60.0846 25.5033 58.1899C24.4874 56.2952 23.9794 54.0014 23.9794 51.3085C23.9794 48.6076 24.4874 46.3098 25.5033 44.4151C26.5192 42.5204 27.9019 41.0772 29.6515 40.0855C31.401 39.0857 33.3764 38.5858 35.5774 38.5858C37.7624 38.5858 39.7296 39.0857 41.4792 40.0855C43.2369 41.0772 44.6236 42.5204 45.6395 44.4151C46.6634 46.3098 47.1754 48.6076 47.1754 51.3085ZM41.8662 51.3085C41.8662 49.559 41.6042 48.0835 41.0801 46.8822C40.5641 45.6809 39.8345 44.7698 38.8911 44.149C37.9478 43.5282 36.8433 43.2178 35.5774 43.2178C34.3116 43.2178 33.207 43.5282 32.2637 44.149C31.3204 44.7698 30.5867 45.6809 30.0626 46.8822C29.5466 48.0835 29.2886 49.559 29.2886 51.3085C29.2886 53.0581 29.5466 54.5336 30.0626 55.7349C30.5867 56.9362 31.3204 57.8473 32.2637 58.4681C33.207 59.0889 34.3116 59.3993 35.5774 59.3993C36.8433 59.3993 37.9478 59.0889 38.8911 58.4681C39.8345 57.8473 40.5641 56.9362 41.0801 55.7349C41.6042 54.5336 41.8662 53.0581 41.8662 51.3085ZM74.1557 51.3085C74.1557 54.0095 73.6437 56.3073 72.6197 58.202C71.6039 60.0967 70.2171 61.544 68.4595 62.5437C66.7099 63.5354 64.7426 64.0313 62.5577 64.0313C60.3566 64.0313 58.3813 63.5314 56.6317 62.5316C54.8821 61.5319 53.4994 60.0846 52.4835 58.1899C51.4676 56.2952 50.9597 54.0014 50.9597 51.3085C50.9597 48.6076 51.4676 46.3098 52.4835 44.4151C53.4994 42.5204 54.8821 41.0772 56.6317 40.0855C58.3813 39.0857 60.3566 38.5858 62.5577 38.5858C64.7426 38.5858 66.7099 39.0857 68.4595 40.0855C70.2171 41.0772 71.6039 42.5204 72.6197 44.4151C73.6437 46.3098 74.1557 48.6076 74.1557 51.3085ZM68.8465 51.3085C68.8465 49.559 68.5844 48.0835 68.0604 46.8822C67.5444 45.6809 66.8147 44.7698 65.8714 44.149C64.9281 43.5282 63.8235 43.2178 62.5577 43.2178C61.2919 43.2178 60.1873 43.5282 59.244 44.149C58.3006 44.7698 57.567 45.6809 57.0429 46.8822C56.5269 48.0835 56.2689 49.559 56.2689 51.3085C56.2689 53.0581 56.5269 54.5336 57.0429 55.7349C57.567 56.9362 58.3006 57.8473 59.244 58.4681C60.1873 59.0889 61.2919 59.3993 62.5577 59.3993C63.8235 59.3993 64.9281 59.0889 65.8714 58.4681C66.8147 57.8473 67.5444 56.9362 68.0604 55.7349C68.5844 54.5336 68.8465 53.0581 68.8465 51.3085ZM87.1554 63.6926H78.3753V38.9245H87.228C89.7193 38.9245 91.864 39.4203 93.6619 40.412C95.4599 41.3956 96.8426 42.8106 97.8101 44.6569C98.7857 46.5033 99.2735 48.7124 99.2735 51.2844C99.2735 53.8644 98.7857 56.0816 97.8101 57.936C96.8426 59.7904 95.4518 61.2134 93.6377 62.2051C91.8317 63.1968 89.6709 63.6926 87.1554 63.6926ZM83.6119 59.2058H86.9377C88.4858 59.2058 89.7879 58.9317 90.8441 58.3834C91.9083 57.8271 92.7065 56.9685 93.2386 55.8074C93.7788 54.6384 94.0489 53.1307 94.0489 51.2844C94.0489 49.4542 93.7788 47.9586 93.2386 46.7975C92.7065 45.6365 91.9123 44.7819 90.8561 44.2337C89.8 43.6854 88.4978 43.4113 86.9498 43.4113H83.6119V59.2058ZM112.273 63.6926H103.493V38.9245H112.346C114.837 38.9245 116.982 39.4203 118.78 40.412C120.578 41.3956 121.96 42.8106 122.928 44.6569C123.903 46.5033 124.391 48.7124 124.391 51.2844C124.391 53.8644 123.903 56.0816 122.928 57.936C121.96 59.7904 120.57 61.2134 118.756 62.2051C116.95 63.1968 114.789 63.6926 112.273 63.6926ZM108.73 59.2058H112.056C113.604 59.2058 114.906 58.9317 115.962 58.3834C117.026 57.8271 117.824 56.9685 118.356 55.8074C118.897 54.6384 119.167 53.1307 119.167 51.2844C119.167 49.4542 118.897 47.9586 118.356 46.7975C117.824 45.6365 117.03 44.7819 115.974 44.2337C114.918 43.6854 113.616 43.4113 112.068 43.4113H108.73V59.2058ZM125.663 38.9245H131.529L137.176 49.5912H137.418L143.066 38.9245H148.932L139.897 54.9367V63.6926H134.697V54.9367L125.663 38.9245Z" fill="black"/>
<path d="M4.1527 63.6926H3.31937V64.526H4.1527V63.6926ZM4.1527 38.9245V38.0911H3.31937V38.9245H4.1527ZM20.5519 38.9245H21.3853V38.0911H20.5519V38.9245ZM20.5519 43.242V44.0753H21.3853V43.242H20.5519ZM9.38933 43.242V42.4086H8.556V43.242H9.38933ZM9.38933 49.1437H8.556V49.9771H9.38933V49.1437ZM19.4635 49.1437H20.2968V48.3104H19.4635V49.1437ZM19.4635 53.4612V54.2946H20.2968V53.4612H19.4635ZM9.38933 53.4612V52.6279H8.556V53.4612H9.38933ZM9.38933 63.6926V64.526H10.2227V63.6926H9.38933ZM4.98604 63.6926V38.9245H3.31937V63.6926H4.98604ZM4.1527 39.7578H20.5519V38.0911H4.1527V39.7578ZM19.7186 38.9245V43.242H21.3853V38.9245H19.7186ZM20.5519 42.4086H9.38933V44.0753H20.5519V42.4086ZM8.556 43.242V49.1437H10.2227V43.242H8.556ZM9.38933 49.9771H19.4635V48.3104H9.38933V49.9771ZM18.6302 49.1437V53.4612H20.2968V49.1437H18.6302ZM19.4635 52.6279H9.38933V54.2946H19.4635V52.6279ZM8.556 53.4612V63.6926H10.2227V53.4612H8.556ZM9.38933 62.8593H4.1527V64.526H9.38933V62.8593ZM45.6395 58.202L44.9064 57.8058L44.9051 57.8083L45.6395 58.202ZM41.4792 62.5437L41.8901 63.2687L41.8912 63.2681L41.4792 62.5437ZM29.6515 62.5316L30.0649 61.8081L29.6515 62.5316ZM25.5033 58.1899L24.7688 58.5837L25.5033 58.1899ZM25.5033 44.4151L26.2377 44.8088L25.5033 44.4151ZM29.6515 40.0855L30.0624 40.8104L30.0649 40.809L29.6515 40.0855ZM41.4792 40.0855L41.0658 40.809L41.0697 40.8113L41.4792 40.0855ZM45.6395 44.4151L44.9051 44.8088L44.9064 44.8113L45.6395 44.4151ZM41.0801 46.8822L40.3144 47.2111L40.3163 47.2154L41.0801 46.8822ZM38.8911 44.149L38.433 44.8451L38.8911 44.149ZM32.2637 44.149L32.7218 44.8451L32.2637 44.149ZM30.0626 46.8822L29.2988 46.549L29.297 46.5533L30.0626 46.8822ZM30.0626 55.7349L29.2969 56.0638L29.2988 56.0681L30.0626 55.7349ZM32.2637 58.4681L32.7218 57.772L32.2637 58.4681ZM38.8911 58.4681L38.433 57.772L38.8911 58.4681ZM41.0801 55.7349L40.3163 55.4017L40.3144 55.406L41.0801 55.7349ZM46.3421 51.3085C46.3421 53.9057 45.8499 56.0599 44.9064 57.8058L46.3726 58.5982C47.477 56.5547 48.0087 54.1133 48.0087 51.3085H46.3421ZM44.9051 57.8083C43.9585 59.5737 42.6796 60.9022 41.0672 61.8194L41.8912 63.2681C43.7941 62.1857 45.2888 60.6197 46.3739 58.5958L44.9051 57.8083ZM41.0683 61.8187C39.4547 62.7333 37.6312 63.1979 35.5774 63.1979V64.8646C37.8936 64.8646 40.0046 64.3375 41.8901 63.2687L41.0683 61.8187ZM35.5774 63.1979C33.5076 63.1979 31.6771 62.7294 30.0649 61.8081L29.238 63.2552C31.1249 64.3334 33.2451 64.8646 35.5774 64.8646V63.1979ZM30.0649 61.8081C28.4603 60.8912 27.1848 59.5626 26.2377 57.7962L24.7688 58.5837C25.8535 60.6067 27.3434 62.1725 29.238 63.2552L30.0649 61.8081ZM26.2377 57.7962C25.3011 56.0494 24.8128 53.8981 24.8128 51.3085H23.1461C23.1461 54.1048 23.6736 56.5411 24.7688 58.5837L26.2377 57.7962ZM24.8128 51.3085C24.8128 48.7105 25.3013 46.5553 26.2377 44.8088L24.7688 44.0213C23.6735 46.0642 23.1461 48.5047 23.1461 51.3085H24.8128ZM26.2377 44.8088C27.1846 43.0429 28.4593 41.7191 30.0624 40.8104L29.2405 39.3605C27.3445 40.4352 25.8538 41.9978 24.7688 44.0213L26.2377 44.8088ZM30.0649 40.809C31.6771 39.8877 33.5076 39.4192 35.5774 39.4192V37.7525C33.2451 37.7525 31.1249 38.2837 29.238 39.3619L30.0649 40.809ZM35.5774 39.4192C37.63 39.4192 39.4526 39.8872 41.0658 40.809L41.8927 39.3619C40.0067 38.2842 37.8948 37.7525 35.5774 37.7525V39.4192ZM41.0697 40.8113C42.6807 41.7202 43.9587 43.0439 44.9051 44.8088L46.3739 44.0213C45.2885 41.9969 43.793 40.4341 41.8887 39.3597L41.0697 40.8113ZM44.9064 44.8113C45.8499 46.5571 46.3421 48.7114 46.3421 51.3085H48.0087C48.0087 48.5038 47.477 46.0624 46.3726 44.0189L44.9064 44.8113ZM42.6996 51.3085C42.6996 49.4807 42.4265 47.8843 41.8439 46.549L40.3163 47.2154C40.7819 48.2827 41.0329 49.6373 41.0329 51.3085H42.6996ZM41.8458 46.5533C41.2758 45.2264 40.4493 44.1769 39.3493 43.4529L38.433 44.8451C39.2196 45.3628 39.8524 46.1354 40.3144 47.2111L41.8458 46.5533ZM39.3493 43.4529C38.2539 42.732 36.9857 42.3844 35.5774 42.3844V44.0511C36.7008 44.0511 37.6418 44.3244 38.433 44.8451L39.3493 43.4529ZM35.5774 42.3844C34.1691 42.3844 32.901 42.732 31.8056 43.4529L32.7218 44.8451C33.5131 44.3244 34.4541 44.0511 35.5774 44.0511V42.3844ZM31.8056 43.4529C30.7068 44.176 29.8769 45.224 29.2988 46.549L30.8265 47.2154C31.2966 46.1378 31.934 45.3636 32.7218 44.8451L31.8056 43.4529ZM29.297 46.5533C28.724 47.8873 28.4553 49.4821 28.4553 51.3085H30.122C30.122 49.6359 30.3693 48.2798 30.8283 47.2111L29.297 46.5533ZM28.4553 51.3085C28.4553 53.135 28.724 54.7298 29.297 56.0638L30.8283 55.406C30.3693 54.3373 30.122 52.9812 30.122 51.3085H28.4553ZM29.2988 56.0681C29.8769 57.3931 30.7068 58.4411 31.8056 59.1642L32.7218 57.772C31.934 57.2535 31.2966 56.4793 30.8265 55.4017L29.2988 56.0681ZM31.8056 59.1642C32.901 59.8851 34.1691 60.2327 35.5774 60.2327V58.566C34.4541 58.566 33.5131 58.2927 32.7218 57.772L31.8056 59.1642ZM35.5774 60.2327C36.9857 60.2327 38.2539 59.8851 39.3493 59.1642L38.433 57.772C37.6418 58.2927 36.7008 58.566 35.5774 58.566V60.2327ZM39.3493 59.1642C40.4493 58.4402 41.2758 57.3907 41.8458 56.0638L40.3144 55.406C39.8524 56.4817 39.2196 57.2543 38.433 57.772L39.3493 59.1642ZM41.8439 56.0681C42.4265 54.7328 42.6996 53.1364 42.6996 51.3085H41.0329C41.0329 52.9798 40.7819 54.3343 40.3163 55.4017L41.8439 56.0681ZM72.6197 58.202L71.8866 57.8058L71.8853 57.8083L72.6197 58.202ZM68.4595 62.5437L68.8704 63.2687L68.8715 63.2681L68.4595 62.5437ZM56.6317 62.5316L57.0451 61.8081L56.6317 62.5316ZM52.4835 58.1899L51.7491 58.5837L52.4835 58.1899ZM52.4835 44.4151L53.2179 44.8088L52.4835 44.4151ZM56.6317 40.0855L57.0426 40.8104L57.0451 40.809L56.6317 40.0855ZM68.4595 40.0855L68.046 40.809L68.05 40.8113L68.4595 40.0855ZM72.6197 44.4151L71.8853 44.8088L71.8866 44.8113L72.6197 44.4151ZM68.0604 46.8822L67.2947 47.2111L67.2965 47.2154L68.0604 46.8822ZM65.8714 44.149L65.4133 44.8451L65.8714 44.149ZM59.244 44.149L59.7021 44.8451L59.244 44.149ZM57.0429 46.8822L56.2791 46.549L56.2772 46.5533L57.0429 46.8822ZM57.0429 55.7349L56.2772 56.0638L56.2791 56.0681L57.0429 55.7349ZM59.244 58.4681L59.7021 57.772L59.244 58.4681ZM65.8714 58.4681L65.4133 57.772L65.8714 58.4681ZM68.0604 55.7349L67.2965 55.4017L67.2947 55.406L68.0604 55.7349ZM73.3223 51.3085C73.3223 53.9057 72.8301 56.0599 71.8866 57.8058L73.3529 58.5982C74.4572 56.5547 74.989 54.1133 74.989 51.3085H73.3223ZM71.8853 57.8083C70.9387 59.5737 69.6599 60.9022 68.0474 61.8194L68.8715 63.2681C70.7743 62.1857 72.269 60.6197 73.3542 58.5958L71.8853 57.8083ZM68.0485 61.8187C66.435 62.7333 64.6114 63.1979 62.5577 63.1979V64.8646C64.8739 64.8646 66.9848 64.3375 68.8704 63.2687L68.0485 61.8187ZM62.5577 63.1979C60.4879 63.1979 58.6574 62.7294 57.0451 61.8081L56.2182 63.2552C58.1052 64.3334 60.2253 64.8646 62.5577 64.8646V63.1979ZM57.0451 61.8081C55.4406 60.8912 54.1651 59.5626 53.2179 57.7962L51.7491 58.5837C52.8337 60.6067 54.3237 62.1725 56.2182 63.2552L57.0451 61.8081ZM53.2179 57.7962C52.2814 56.0494 51.793 53.8981 51.793 51.3085H50.1264C50.1264 54.1048 50.6539 56.5411 51.7491 58.5837L53.2179 57.7962ZM51.793 51.3085C51.793 48.7105 52.2816 46.5553 53.2179 44.8088L51.7491 44.0213C50.6537 46.0642 50.1264 48.5047 50.1264 51.3085H51.793ZM53.2179 44.8088C54.1648 43.0429 55.4395 41.7191 57.0426 40.8104L56.2208 39.3605C54.3247 40.4352 52.834 41.9978 51.7491 44.0213L53.2179 44.8088ZM57.0451 40.809C58.6574 39.8877 60.4879 39.4192 62.5577 39.4192V37.7525C60.2253 37.7525 58.1052 38.2837 56.2182 39.3619L57.0451 40.809ZM62.5577 39.4192C64.6102 39.4192 66.4329 39.8872 68.046 40.809L68.8729 39.3619C66.9869 38.2842 64.875 37.7525 62.5577 37.7525V39.4192ZM68.05 40.8113C69.6609 41.7202 70.939 43.0439 71.8853 44.8088L73.3542 44.0213C72.2687 41.9969 70.7733 40.4341 68.869 39.3597L68.05 40.8113ZM71.8866 44.8113C72.8301 46.5571 73.3223 48.7114 73.3223 51.3085H74.989C74.989 48.5038 74.4572 46.0624 73.3529 44.0189L71.8866 44.8113ZM69.6798 51.3085C69.6798 49.4807 69.4067 47.8843 68.8242 46.549L67.2965 47.2154C67.7622 48.2827 68.0131 49.6373 68.0131 51.3085H69.6798ZM68.8261 46.5533C68.2561 45.2264 67.4296 44.1769 66.3295 43.4529L65.4133 44.8451C66.1999 45.3628 66.8326 46.1354 67.2947 47.2111L68.8261 46.5533ZM66.3295 43.4529C65.2341 42.732 63.966 42.3844 62.5577 42.3844V44.0511C63.681 44.0511 64.622 44.3244 65.4133 44.8451L66.3295 43.4529ZM62.5577 42.3844C61.1494 42.3844 59.8813 42.732 58.7858 43.4529L59.7021 44.8451C60.4933 44.3244 61.4343 44.0511 62.5577 44.0511V42.3844ZM58.7858 43.4529C57.687 44.176 56.8571 45.224 56.2791 46.549L57.8067 47.2154C58.2768 46.1378 58.9143 45.3636 59.7021 44.8451L58.7858 43.4529ZM56.2772 46.5533C55.7042 47.8873 55.4356 49.4821 55.4356 51.3085H57.1022C57.1022 49.6359 57.3496 48.2798 57.8086 47.2111L56.2772 46.5533ZM55.4356 51.3085C55.4356 53.135 55.7042 54.7298 56.2772 56.0638L57.8086 55.406C57.3496 54.3373 57.1022 52.9812 57.1022 51.3085H55.4356ZM56.2791 56.0681C56.8571 57.3931 57.687 58.4411 58.7858 59.1642L59.7021 57.772C58.9143 57.2535 58.2768 56.4793 57.8067 55.4017L56.2791 56.0681ZM58.7858 59.1642C59.8813 59.8851 61.1494 60.2327 62.5577 60.2327V58.566C61.4343 58.566 60.4933 58.2927 59.7021 57.772L58.7858 59.1642ZM62.5577 60.2327C63.966 60.2327 65.2341 59.8851 66.3295 59.1642L65.4133 57.772C64.622 58.2927 63.681 58.566 62.5577 58.566V60.2327ZM66.3295 59.1642C67.4296 58.4402 68.2561 57.3907 68.8261 56.0638L67.2947 55.406C66.8326 56.4817 66.1999 57.2543 65.4133 57.772L66.3295 59.1642ZM68.8242 56.0681C69.4067 54.7328 69.6798 53.1364 69.6798 51.3085H68.0131C68.0131 52.9798 67.7622 54.3343 67.2965 55.4017L68.8242 56.0681ZM78.3753 63.6926H77.542V64.526H78.3753V63.6926ZM78.3753 38.9245V38.0911H77.542V38.9245H78.3753ZM93.6619 40.412L93.2594 41.1417L93.262 41.1431L93.6619 40.412ZM97.8101 44.6569L97.072 45.0437L97.0733 45.0463L97.8101 44.6569ZM97.8101 57.936L97.0726 57.548L97.0713 57.5505L97.8101 57.936ZM93.6377 62.2051L93.238 61.4739L93.2366 61.4746L93.6377 62.2051ZM83.6119 59.2058H82.7786V60.0392H83.6119V59.2058ZM90.8441 58.3834L91.228 59.1231L91.2301 59.122L90.8441 58.3834ZM93.2386 55.8074L92.4821 55.4579L92.4811 55.4602L93.2386 55.8074ZM93.2386 46.7975L92.4811 47.1448L92.4831 47.1491L93.2386 46.7975ZM90.8561 44.2337L91.2401 43.494L90.8561 44.2337ZM83.6119 43.4113V42.5779H82.7786V43.4113H83.6119ZM87.1554 62.8593H78.3753V64.526H87.1554V62.8593ZM79.2086 63.6926V38.9245H77.542V63.6926H79.2086ZM78.3753 39.7578H87.228V38.0911H78.3753V39.7578ZM87.228 39.7578C89.6084 39.7578 91.6085 40.2311 93.2594 41.1417L94.0644 39.6823C92.1195 38.6095 89.8302 38.0911 87.228 38.0911V39.7578ZM93.262 41.1431C94.9131 42.0464 96.1794 43.3404 97.072 45.0437L98.5482 44.2701C97.5058 42.2809 96.0066 40.7449 94.0619 39.6809L93.262 41.1431ZM97.0733 45.0463C97.9724 46.7479 98.4401 48.8171 98.4401 51.2844H100.107C100.107 48.6077 99.5989 46.2586 98.5469 44.2676L97.0733 45.0463ZM98.4401 51.2844C98.4401 53.76 97.9723 55.8378 97.0726 57.548L98.5476 58.324C99.599 56.3253 100.107 53.9688 100.107 51.2844H98.4401ZM97.0713 57.5505C96.1791 59.2604 94.9055 60.5623 93.238 61.4739L94.0375 62.9363C95.9981 61.8645 97.5061 60.3203 98.5489 58.3214L97.0713 57.5505ZM93.2366 61.4746C91.5779 62.3855 89.5614 62.8593 87.1554 62.8593V64.526C89.7805 64.526 92.0855 64.0081 94.0388 62.9355L93.2366 61.4746ZM83.6119 60.0392H86.9377V58.3725H83.6119V60.0392ZM86.9377 60.0392C88.5805 60.0392 90.0229 59.7486 91.228 59.1231L90.4601 57.6438C89.5528 58.1148 88.391 58.3725 86.9377 58.3725V60.0392ZM91.2301 59.122C92.4689 58.4744 93.3923 57.4723 93.9962 56.1547L92.4811 55.4602C92.0207 56.4646 91.3477 57.1799 90.458 57.6449L91.2301 59.122ZM93.9951 56.157C94.603 54.8415 94.8822 53.2029 94.8822 51.2844H93.2156C93.2156 53.0585 92.9547 54.4352 92.4821 55.4579L93.9951 56.157ZM94.8822 51.2844C94.8822 49.3811 94.6027 47.7539 93.9942 46.446L92.4831 47.1491C92.9549 48.1632 93.2156 49.5272 93.2156 51.2844H94.8822ZM93.9962 46.4503C93.3927 45.1338 92.4735 44.1343 91.2401 43.494L90.4722 44.9733C91.3512 45.4295 92.0203 46.1393 92.4811 47.1448L93.9962 46.4503ZM91.2401 43.494C90.035 42.8685 88.5926 42.5779 86.9498 42.5779V44.2446C88.4031 44.2446 89.5649 44.5023 90.4722 44.9733L91.2401 43.494ZM86.9498 42.5779H83.6119V44.2446H86.9498V42.5779ZM82.7786 43.4113V59.2058H84.4453V43.4113H82.7786ZM103.493 63.6926H102.66V64.526H103.493V63.6926ZM103.493 38.9245V38.0911H102.66V38.9245H103.493ZM118.78 40.412L118.377 41.1417L118.38 41.1431L118.78 40.412ZM122.928 44.6569L122.19 45.0437L122.191 45.0463L122.928 44.6569ZM122.928 57.936L122.19 57.548L122.189 57.5505L122.928 57.936ZM118.756 62.2051L118.356 61.4739L118.354 61.4746L118.756 62.2051ZM108.73 59.2058H107.896V60.0392H108.73V59.2058ZM115.962 58.3834L116.346 59.1231L116.348 59.122L115.962 58.3834ZM118.356 55.8074L117.6 55.4579L117.599 55.4602L118.356 55.8074ZM118.356 46.7975L117.599 47.1448L117.601 47.1491L118.356 46.7975ZM115.974 44.2337L116.358 43.494L115.974 44.2337ZM108.73 43.4113V42.5779H107.896V43.4113H108.73ZM112.273 62.8593H103.493V64.526H112.273V62.8593ZM104.326 63.6926V38.9245H102.66V63.6926H104.326ZM103.493 39.7578H112.346V38.0911H103.493V39.7578ZM112.346 39.7578C114.726 39.7578 116.726 40.2311 118.377 41.1417L119.182 39.6823C117.237 38.6095 114.948 38.0911 112.346 38.0911V39.7578ZM118.38 41.1431C120.031 42.0464 121.297 43.3404 122.19 45.0437L123.666 44.2701C122.624 42.2809 121.124 40.7449 119.18 39.6809L118.38 41.1431ZM122.191 45.0463C123.09 46.7479 123.558 48.8171 123.558 51.2844H125.225C125.225 48.6077 124.717 46.2586 123.665 44.2676L122.191 45.0463ZM123.558 51.2844C123.558 53.76 123.09 55.8378 122.19 57.548L123.665 58.324C124.717 56.3253 125.225 53.9688 125.225 51.2844H123.558ZM122.189 57.5505C121.297 59.2604 120.023 60.5623 118.356 61.4739L119.155 62.9363C121.116 61.8645 122.624 60.3203 123.667 58.3214L122.189 57.5505ZM118.354 61.4746C116.696 62.3855 114.679 62.8593 112.273 62.8593V64.526C114.898 64.526 117.203 64.0081 119.157 62.9355L118.354 61.4746ZM108.73 60.0392H112.056V58.3725H108.73V60.0392ZM112.056 60.0392C113.698 60.0392 115.141 59.7486 116.346 59.1231L115.578 57.6438C114.671 58.1148 113.509 58.3725 112.056 58.3725V60.0392ZM116.348 59.122C117.587 58.4744 118.51 57.4723 119.114 56.1547L117.599 55.4602C117.139 56.4646 116.465 57.1799 115.576 57.6449L116.348 59.122ZM119.113 56.157C119.721 54.8415 120 53.2029 120 51.2844H118.333C118.333 53.0585 118.072 54.4352 117.6 55.4579L119.113 56.157ZM120 51.2844C120 49.3811 119.721 47.7539 119.112 46.446L117.601 47.1491C118.073 48.1632 118.333 49.5272 118.333 51.2844H120ZM119.114 46.4503C118.511 45.1338 117.591 44.1343 116.358 43.494L115.59 44.9733C116.469 45.4295 117.138 46.1393 117.599 47.1448L119.114 46.4503ZM116.358 43.494C115.153 42.8685 113.71 42.5779 112.068 42.5779V44.2446C113.521 44.2446 114.683 44.5023 115.59 44.9733L116.358 43.494ZM112.068 42.5779H108.73V44.2446H112.068V42.5779ZM107.896 43.4113V59.2058H109.563V43.4113H107.896ZM125.663 38.9245V38.0911H124.236L124.937 39.334L125.663 38.9245ZM131.529 38.9245L132.265 38.5345L132.03 38.0911H131.529V38.9245ZM137.176 49.5912L136.44 49.9812L136.675 50.4246H137.176V49.5912ZM137.418 49.5912V50.4246H137.92L138.155 49.9812L137.418 49.5912ZM143.066 38.9245V38.0911H142.564L142.33 38.5345L143.066 38.9245ZM148.932 38.9245L149.657 39.334L150.359 38.0911H148.932V38.9245ZM139.897 54.9367L139.172 54.5272L139.064 54.7178V54.9367H139.897ZM139.897 63.6926V64.526H140.731V63.6926H139.897ZM134.697 63.6926H133.864V64.526H134.697V63.6926ZM134.697 54.9367H135.53V54.7178L135.423 54.5272L134.697 54.9367ZM125.663 39.7578H131.529V38.0911H125.663V39.7578ZM130.792 39.3144L136.44 49.9812L137.913 49.2013L132.265 38.5345L130.792 39.3144ZM137.176 50.4246H137.418V48.7579H137.176V50.4246ZM138.155 49.9812L143.803 39.3144L142.33 38.5345L136.682 49.2013L138.155 49.9812ZM143.066 39.7578H148.932V38.0911H143.066V39.7578ZM148.206 38.515L139.172 54.5272L140.623 55.3462L149.657 39.334L148.206 38.515ZM139.064 54.9367V63.6926H140.731V54.9367H139.064ZM139.897 62.8593H134.697V64.526H139.897V62.8593ZM135.53 63.6926V54.9367H133.864V63.6926H135.53ZM135.423 54.5272L126.389 38.515L124.937 39.334L133.971 55.3462L135.423 54.5272Z" fill="#F8F0D3"/>
</g>
<g filter="url(#filter1_d_1120_2392)">
<path d="M4.1527 33V8.23184H20.5519V12.5493H9.38933V18.4511H19.4635V22.7686H9.38933V33H4.1527ZM47.1754 20.6159C47.1754 23.3169 46.6634 25.6147 45.6395 27.5094C44.6236 29.4041 43.2369 30.8513 41.4792 31.8511C39.7296 32.8428 37.7624 33.3386 35.5774 33.3386C33.3764 33.3386 31.401 32.8387 29.6515 31.839C27.9019 30.8392 26.5192 29.392 25.5033 27.4973C24.4874 25.6026 23.9794 23.3088 23.9794 20.6159C23.9794 17.915 24.4874 15.6171 25.5033 13.7224C26.5192 11.8277 27.9019 10.3845 29.6515 9.39284C31.401 8.39309 33.3764 7.89321 35.5774 7.89321C37.7624 7.89321 39.7296 8.39309 41.4792 9.39284C43.2369 10.3845 44.6236 11.8277 45.6395 13.7224C46.6634 15.6171 47.1754 17.915 47.1754 20.6159ZM41.8662 20.6159C41.8662 18.8663 41.6042 17.3909 41.0801 16.1896C40.5641 14.9883 39.8345 14.0772 38.8911 13.4564C37.9478 12.8356 36.8433 12.5251 35.5774 12.5251C34.3116 12.5251 33.207 12.8356 32.2637 13.4564C31.3204 14.0772 30.5867 14.9883 30.0626 16.1896C29.5466 17.3909 29.2886 18.8663 29.2886 20.6159C29.2886 22.3655 29.5466 23.8409 30.0626 25.0423C30.5867 26.2436 31.3204 27.1546 32.2637 27.7755C33.207 28.3963 34.3116 28.7067 35.5774 28.7067C36.8433 28.7067 37.9478 28.3963 38.8911 27.7755C39.8345 27.1546 40.5641 26.2436 41.0801 25.0423C41.6042 23.8409 41.8662 22.3655 41.8662 20.6159ZM74.1557 20.6159C74.1557 23.3169 73.6437 25.6147 72.6197 27.5094C71.6039 29.4041 70.2171 30.8513 68.4595 31.8511C66.7099 32.8428 64.7426 33.3386 62.5577 33.3386C60.3566 33.3386 58.3813 32.8387 56.6317 31.839C54.8821 30.8392 53.4994 29.392 52.4835 27.4973C51.4676 25.6026 50.9597 23.3088 50.9597 20.6159C50.9597 17.915 51.4676 15.6171 52.4835 13.7224C53.4994 11.8277 54.8821 10.3845 56.6317 9.39284C58.3813 8.39309 60.3566 7.89321 62.5577 7.89321C64.7426 7.89321 66.7099 8.39309 68.4595 9.39284C70.2171 10.3845 71.6039 11.8277 72.6197 13.7224C73.6437 15.6171 74.1557 17.915 74.1557 20.6159ZM68.8465 20.6159C68.8465 18.8663 68.5844 17.3909 68.0604 16.1896C67.5444 14.9883 66.8147 14.0772 65.8714 13.4564C64.9281 12.8356 63.8235 12.5251 62.5577 12.5251C61.2919 12.5251 60.1873 12.8356 59.244 13.4564C58.3006 14.0772 57.567 14.9883 57.0429 16.1896C56.5269 17.3909 56.2689 18.8663 56.2689 20.6159C56.2689 22.3655 56.5269 23.8409 57.0429 25.0423C57.567 26.2436 58.3006 27.1546 59.244 27.7755C60.1873 28.3963 61.2919 28.7067 62.5577 28.7067C63.8235 28.7067 64.9281 28.3963 65.8714 27.7755C66.8147 27.1546 67.5444 26.2436 68.0604 25.0423C68.5844 23.8409 68.8465 22.3655 68.8465 20.6159ZM87.1554 33H78.3753V8.23184H87.228C89.7193 8.23184 91.864 8.72768 93.6619 9.71938C95.4599 10.703 96.8426 12.118 97.8101 13.9643C98.7857 15.8106 99.2735 18.0198 99.2735 20.5917C99.2735 23.1717 98.7857 25.3889 97.8101 27.2433C96.8426 29.0977 95.4518 30.5208 93.6377 31.5125C91.8317 32.5042 89.6709 33 87.1554 33ZM83.6119 28.5132H86.9377C88.4858 28.5132 89.7879 28.2391 90.8441 27.6908C91.9083 27.1345 92.7065 26.2758 93.2386 25.1148C93.7788 23.9458 94.0489 22.4381 94.0489 20.5917C94.0489 18.7615 93.7788 17.2659 93.2386 16.1049C92.7065 14.9439 91.9123 14.0893 90.8561 13.541C89.8 12.9928 88.4978 12.7186 86.9498 12.7186H83.6119V28.5132ZM112.273 33H103.493V8.23184H112.346C114.837 8.23184 116.982 8.72768 118.78 9.71938C120.578 10.703 121.96 12.118 122.928 13.9643C123.903 15.8106 124.391 18.0198 124.391 20.5917C124.391 23.1717 123.903 25.3889 122.928 27.2433C121.96 29.0977 120.57 30.5208 118.756 31.5125C116.95 32.5042 114.789 33 112.273 33ZM108.73 28.5132H112.056C113.604 28.5132 114.906 28.2391 115.962 27.6908C117.026 27.1345 117.824 26.2758 118.356 25.1148C118.897 23.9458 119.167 22.4381 119.167 20.5917C119.167 18.7615 118.897 17.2659 118.356 16.1049C117.824 14.9439 117.03 14.0893 115.974 13.541C114.918 12.9928 113.616 12.7186 112.068 12.7186H108.73V28.5132ZM125.663 8.23184H131.529L137.176 18.8986H137.418L143.066 8.23184H148.932L139.897 24.2441V33H134.697V24.2441L125.663 8.23184Z" fill="#FFC804"/>
<path d="M4.1527 33H3.62057V33.5321H4.1527V33ZM4.1527 8.23184V7.69971H3.62057V8.23184H4.1527ZM20.5519 8.23184H21.0841V7.69971H20.5519V8.23184ZM20.5519 12.5493V13.0815H21.0841V12.5493H20.5519ZM9.38933 12.5493V12.0172H8.8572V12.5493H9.38933ZM9.38933 18.4511H8.8572V18.9833H9.38933V18.4511ZM19.4635 18.4511H19.9956V17.919H19.4635V18.4511ZM19.4635 22.7686V23.3007H19.9956V22.7686H19.4635ZM9.38933 22.7686V22.2365H8.8572V22.7686H9.38933ZM9.38933 33V33.5321H9.92146V33H9.38933ZM4.68483 33V8.23184H3.62057V33H4.68483ZM4.1527 8.76396H20.5519V7.69971H4.1527V8.76396ZM20.0198 8.23184V12.5493H21.0841V8.23184H20.0198ZM20.5519 12.0172H9.38933V13.0815H20.5519V12.0172ZM8.8572 12.5493V18.4511H9.92146V12.5493H8.8572ZM9.38933 18.9833H19.4635V17.919H9.38933V18.9833ZM18.9314 18.4511V22.7686H19.9956V18.4511H18.9314ZM19.4635 22.2365H9.38933V23.3007H19.4635V22.2365ZM8.8572 22.7686V33H9.92146V22.7686H8.8572ZM9.38933 32.4679H4.1527V33.5321H9.38933V32.4679ZM45.6395 27.5094L45.1714 27.2564L45.1705 27.258L45.6395 27.5094ZM41.4792 31.8511L41.7416 32.314L41.7423 32.3136L41.4792 31.8511ZM29.6515 31.839L29.9155 31.377L29.6515 31.839ZM25.5033 27.4973L25.0343 27.7488L25.5033 27.4973ZM25.5033 13.7224L25.9722 13.9739L25.5033 13.7224ZM29.6515 9.39284L29.9139 9.85578L29.9155 9.85486L29.6515 9.39284ZM41.4792 9.39284L41.2152 9.85487L41.2177 9.85629L41.4792 9.39284ZM45.6395 13.7224L45.1705 13.9739L45.1714 13.9754L45.6395 13.7224ZM41.0801 16.1896L40.5912 16.3996L40.5924 16.4023L41.0801 16.1896ZM38.8911 13.4564L38.5986 13.9009L38.8911 13.4564ZM32.2637 13.4564L32.5563 13.9009L32.2637 13.4564ZM30.0626 16.1896L29.5749 15.9768L29.5737 15.9796L30.0626 16.1896ZM30.0626 25.0423L29.5737 25.2523L29.5749 25.255L30.0626 25.0423ZM32.2637 27.7755L32.5563 27.331L32.2637 27.7755ZM38.8911 27.7755L38.5986 27.331L38.8911 27.7755ZM41.0801 25.0423L40.5924 24.8295L40.5912 24.8322L41.0801 25.0423ZM46.6433 20.6159C46.6433 23.2506 46.1439 25.4567 45.1714 27.2564L46.1076 27.7624C47.1829 25.7727 47.7075 23.3832 47.7075 20.6159H46.6433ZM45.1705 27.258C44.1989 29.0701 42.881 30.4415 41.2161 31.3885L41.7423 32.3136C43.5927 31.2611 45.0483 29.7381 46.1085 27.7608L45.1705 27.258ZM41.2168 31.3882C39.5541 32.3306 37.6786 32.8065 35.5774 32.8065V33.8708C37.8462 33.8708 39.9052 33.3549 41.7416 32.314L41.2168 31.3882ZM35.5774 32.8065C33.4602 32.8065 31.5773 32.3266 29.9155 31.377L29.3874 32.301C31.2247 33.3509 33.2925 33.8708 35.5774 33.8708V32.8065ZM29.9155 31.377C28.2585 30.4301 26.9442 29.0587 25.9722 27.2459L25.0343 27.7488C26.0941 29.7253 27.5453 31.2483 29.3874 32.301L29.9155 31.377ZM25.9722 27.2459C25.007 25.4456 24.5116 23.2428 24.5116 20.6159H23.4473C23.4473 23.3748 23.9678 25.7596 25.0343 27.7488L25.9722 27.2459ZM24.5116 20.6159C24.5116 17.9807 25.0071 15.7739 25.9722 13.9739L25.0343 13.471C23.9677 15.4604 23.4473 17.8493 23.4473 20.6159H24.5116ZM25.9722 13.9739C26.944 12.1614 28.2578 10.7944 29.9139 9.85578L29.3891 8.92991C27.5459 9.97463 26.0943 11.4941 25.0343 13.471L25.9722 13.9739ZM29.9155 9.85486C31.5773 8.90522 33.4602 8.42534 35.5774 8.42534V7.36108C33.2925 7.36108 31.2247 7.88095 29.3874 8.93083L29.9155 9.85486ZM35.5774 8.42534C37.6778 8.42534 39.5527 8.90488 41.2152 9.85486L41.7432 8.93083C39.9065 7.88129 37.8469 7.36108 35.5774 7.36108V8.42534ZM41.2177 9.85629C42.8817 10.7951 44.1991 12.162 45.1705 13.9739L46.1085 13.471C45.0482 11.4934 43.592 9.97394 41.7407 8.92939L41.2177 9.85629ZM45.1714 13.9754C46.1439 15.7751 46.6433 17.9813 46.6433 20.6159H47.7075C47.7075 17.8487 47.1829 15.4592 46.1076 13.4694L45.1714 13.9754ZM42.3983 20.6159C42.3983 18.8164 42.1293 17.2637 41.5679 15.9768L40.5924 16.4023C41.0791 17.5181 41.3341 18.9163 41.3341 20.6159H42.3983ZM41.5691 15.9796C41.0186 14.698 40.2271 13.6985 39.1837 13.0119L38.5986 13.9009C39.4418 14.4558 40.1096 15.2785 40.5912 16.3996L41.5691 15.9796ZM39.1837 13.0119C38.1432 12.3271 36.9342 11.993 35.5774 11.993V13.0573C36.7523 13.0573 37.7524 13.344 38.5986 13.9009L39.1837 13.0119ZM35.5774 11.993C34.2206 11.993 33.0116 12.3271 31.9712 13.0119L32.5563 13.9009C33.4025 13.344 34.4026 13.0573 35.5774 13.0573V11.993ZM31.9712 13.0119C30.9286 13.698 30.1334 14.6965 29.5749 15.9768L30.5504 16.4023C31.04 15.28 31.7122 14.4563 32.5563 13.9009L31.9712 13.0119ZM29.5737 15.9796C29.0213 17.2656 28.7565 18.8172 28.7565 20.6159H29.8208C29.8208 18.9155 30.072 17.5162 30.5516 16.3996L29.5737 15.9796ZM28.7565 20.6159C28.7565 22.4146 29.0213 23.9662 29.5737 25.2523L30.5516 24.8322C30.072 23.7156 29.8208 22.3164 29.8208 20.6159H28.7565ZM29.5749 25.255C30.1334 26.5354 30.9286 27.5338 31.9712 28.22L32.5563 27.331C31.7122 26.7755 31.04 25.9518 30.5504 24.8295L29.5749 25.255ZM31.9712 28.22C33.0116 28.9047 34.2206 29.2388 35.5774 29.2388V28.1746C34.4026 28.1746 33.4025 27.8879 32.5563 27.331L31.9712 28.22ZM35.5774 29.2388C36.9342 29.2388 38.1432 28.9047 39.1837 28.22L38.5986 27.331C37.7524 27.8879 36.7523 28.1746 35.5774 28.1746V29.2388ZM39.1837 28.22C40.2271 27.5333 41.0186 26.5338 41.5691 25.2523L40.5912 24.8322C40.1096 25.9533 39.4418 26.776 38.5986 27.331L39.1837 28.22ZM41.5679 25.255C42.1293 23.9682 42.3983 22.4155 42.3983 20.6159H41.3341C41.3341 22.3155 41.0791 23.7137 40.5924 24.8295L41.5679 25.255ZM72.6197 27.5094L72.1516 27.2564L72.1508 27.258L72.6197 27.5094ZM68.4595 31.8511L68.7219 32.314L68.7226 32.3136L68.4595 31.8511ZM56.6317 31.839L56.8957 31.377L56.6317 31.839ZM52.4835 27.4973L52.0145 27.7488L52.4835 27.4973ZM52.4835 13.7224L52.9525 13.9739L52.4835 13.7224ZM56.6317 9.39284L56.8941 9.85578L56.8957 9.85486L56.6317 9.39284ZM68.4595 9.39284L68.1954 9.85487L68.198 9.85629L68.4595 9.39284ZM72.6197 13.7224L72.1508 13.9739L72.1516 13.9754L72.6197 13.7224ZM68.0604 16.1896L67.5714 16.3996L67.5726 16.4023L68.0604 16.1896ZM65.8714 13.4564L65.5788 13.9009L65.8714 13.4564ZM59.244 13.4564L59.5365 13.9009L59.244 13.4564ZM57.0429 16.1896L56.5551 15.9768L56.554 15.9796L57.0429 16.1896ZM57.0429 25.0423L56.5539 25.2523L56.5551 25.255L57.0429 25.0423ZM59.244 27.7755L59.5365 27.331L59.244 27.7755ZM65.8714 27.7755L65.5788 27.331L65.8714 27.7755ZM68.0604 25.0423L67.5726 24.8295L67.5714 24.8322L68.0604 25.0423ZM73.6235 20.6159C73.6235 23.2506 73.1242 25.4567 72.1516 27.2564L73.0879 27.7624C74.1632 25.7727 74.6878 23.3832 74.6878 20.6159H73.6235ZM72.1508 27.258C71.1791 29.0701 69.8613 30.4415 68.1964 31.3885L68.7226 32.3136C70.5729 31.2611 72.0286 29.7381 73.0887 27.7608L72.1508 27.258ZM68.1971 31.3882C66.5343 32.3306 64.6588 32.8065 62.5577 32.8065V33.8708C64.8264 33.8708 66.8854 33.3549 68.7219 32.314L68.1971 31.3882ZM62.5577 32.8065C60.4404 32.8065 58.5576 32.3266 56.8957 31.377L56.3677 32.301C58.205 33.3509 60.2728 33.8708 62.5577 33.8708V32.8065ZM56.8957 31.377C55.2387 30.4301 53.9245 29.0587 52.9525 27.2459L52.0145 27.7488C53.0743 29.7253 54.5255 31.2483 56.3677 32.301L56.8957 31.377ZM52.9525 27.2459C51.9873 25.4456 51.4918 23.2428 51.4918 20.6159H50.4276C50.4276 23.3748 50.948 25.7596 52.0145 27.7488L52.9525 27.2459ZM51.4918 20.6159C51.4918 17.9807 51.9874 15.7739 52.9525 13.9739L52.0145 13.471C50.9479 15.4604 50.4276 17.8493 50.4276 20.6159H51.4918ZM52.9525 13.9739C53.9243 12.1614 55.2381 10.7944 56.8941 9.85578L56.3693 8.92991C54.5262 9.97463 53.0745 11.4941 52.0145 13.471L52.9525 13.9739ZM56.8957 9.85486C58.5576 8.90522 60.4404 8.42534 62.5577 8.42534V7.36108C60.2728 7.36108 58.205 7.88095 56.3677 8.93083L56.8957 9.85486ZM62.5577 8.42534C64.6581 8.42534 66.533 8.90488 68.1954 9.85486L68.7235 8.93083C66.8868 7.88129 64.8272 7.36108 62.5577 7.36108V8.42534ZM68.198 9.85629C69.8619 10.7951 71.1793 12.162 72.1508 13.9739L73.0887 13.471C72.0284 11.4934 70.5723 9.97394 68.7209 8.92939L68.198 9.85629ZM72.1516 13.9754C73.1242 15.7751 73.6235 17.9813 73.6235 20.6159H74.6878C74.6878 17.8487 74.1632 15.4592 73.0879 13.4694L72.1516 13.9754ZM69.3786 20.6159C69.3786 18.8164 69.1095 17.2637 68.5481 15.9768L67.5726 16.4023C68.0594 17.5181 68.3143 18.9163 68.3143 20.6159H69.3786ZM68.5493 15.9796C67.9988 14.698 67.2073 13.6985 66.1639 13.0119L65.5788 13.9009C66.4221 14.4558 67.0899 15.2785 67.5714 16.3996L68.5493 15.9796ZM66.1639 13.0119C65.1235 12.3271 63.9145 11.993 62.5577 11.993V13.0573C63.7325 13.0573 64.7326 13.344 65.5788 13.9009L66.1639 13.0119ZM62.5577 11.993C61.2009 11.993 59.9919 12.3271 58.9514 13.0119L59.5365 13.9009C60.3827 13.344 61.3828 13.0573 62.5577 13.0573V11.993ZM58.9514 13.0119C57.9088 13.698 57.1137 14.6965 56.5551 15.9768L57.5306 16.4023C58.0202 15.28 58.6925 14.4563 59.5365 13.9009L58.9514 13.0119ZM56.554 15.9796C56.0016 17.2656 55.7368 18.8172 55.7368 20.6159H56.801C56.801 18.9155 57.0522 17.5162 57.5318 16.3996L56.554 15.9796ZM55.7368 20.6159C55.7368 22.4146 56.0016 23.9662 56.554 25.2523L57.5318 24.8322C57.0522 23.7156 56.801 22.3164 56.801 20.6159H55.7368ZM56.5551 25.255C57.1137 26.5354 57.9088 27.5338 58.9514 28.22L59.5365 27.331C58.6925 26.7755 58.0202 25.9518 57.5306 24.8295L56.5551 25.255ZM58.9514 28.22C59.9919 28.9047 61.2009 29.2388 62.5577 29.2388V28.1746C61.3828 28.1746 60.3827 27.8879 59.5365 27.331L58.9514 28.22ZM62.5577 29.2388C63.9145 29.2388 65.1235 28.9047 66.1639 28.22L65.5788 27.331C64.7326 27.8879 63.7325 28.1746 62.5577 28.1746V29.2388ZM66.1639 28.22C67.2073 27.5333 67.9988 26.5338 68.5493 25.2523L67.5714 24.8322C67.0899 25.9533 66.4221 26.776 65.5788 27.331L66.1639 28.22ZM68.5481 25.255C69.1095 23.9682 69.3786 22.4155 69.3786 20.6159H68.3143C68.3143 22.3155 68.0594 23.7137 67.5726 24.8295L68.5481 25.255ZM78.3753 33H77.8432V33.5321H78.3753V33ZM78.3753 8.23184V7.69971H77.8432V8.23184H78.3753ZM93.6619 9.71938L93.4049 10.1853L93.4065 10.1862L93.6619 9.71938ZM97.8101 13.9643L97.3388 14.2113L97.3396 14.2129L97.8101 13.9643ZM97.8101 27.2433L97.3392 26.9956L97.3383 26.9972L97.8101 27.2433ZM93.6377 31.5125L93.3825 31.0455L93.3816 31.046L93.6377 31.5125ZM83.6119 28.5132H83.0798V29.0453H83.6119V28.5132ZM90.8441 27.6908L91.0892 28.1631L91.0906 28.1624L90.8441 27.6908ZM93.2386 25.1148L92.7556 24.8916L92.7549 24.8931L93.2386 25.1148ZM93.2386 16.1049L92.7549 16.3266L92.7562 16.3294L93.2386 16.1049ZM90.8561 13.541L91.1013 13.0687L90.8561 13.541ZM83.6119 12.7186V12.1865H83.0798V12.7186H83.6119ZM87.1554 32.4679H78.3753V33.5321H87.1554V32.4679ZM78.9074 33V8.23184H77.8432V33H78.9074ZM78.3753 8.76396H87.228V7.69971H78.3753V8.76396ZM87.228 8.76396C89.6485 8.76396 91.7008 9.2454 93.4049 10.1853L93.9189 9.25343C92.0271 8.20997 89.7902 7.69971 87.228 7.69971V8.76396ZM93.4065 10.1862C95.1107 11.1186 96.4191 12.4563 97.3388 14.2113L98.2814 13.7173C97.2661 11.7797 95.809 10.2875 93.9173 9.25254L93.4065 10.1862ZM97.3396 14.2129C98.2664 15.9669 98.7413 18.0866 98.7413 20.5917H99.8056C99.8056 17.9529 99.305 15.6544 98.2806 13.7157L97.3396 14.2129ZM98.7413 20.5917C98.7413 23.1051 98.2663 25.2333 97.3392 26.9956L98.281 27.4911C99.3051 25.5446 99.8056 23.2384 99.8056 20.5917H98.7413ZM97.3383 26.9972C96.4189 28.7593 95.103 30.105 93.3825 31.0455L93.893 31.9794C95.8006 30.9365 97.2662 29.4361 98.2819 27.4895L97.3383 26.9972ZM93.3816 31.046C91.6696 31.9861 89.601 32.4679 87.1554 32.4679V33.5321C89.7409 33.5321 91.9938 33.0222 93.8938 31.9789L93.3816 31.046ZM83.6119 29.0453H86.9377V27.9811H83.6119V29.0453ZM86.9377 29.0453C88.5463 29.0453 89.938 28.7607 91.0892 28.1631L90.5989 27.2185C89.6378 27.7174 88.4252 27.9811 86.9377 27.9811V29.0453ZM91.0906 28.1624C92.2663 27.5478 93.1444 26.5976 93.7224 25.3365L92.7549 24.8931C92.2686 25.9541 91.5503 26.7212 90.5975 27.2192L91.0906 28.1624ZM93.7217 25.338C94.3051 24.0755 94.581 22.4842 94.581 20.5917H93.5168C93.5168 22.392 93.2526 23.816 92.7556 24.8916L93.7217 25.338ZM94.581 20.5917C94.581 18.7149 94.3049 17.1352 93.7211 15.8804L92.7562 16.3294C93.2527 17.3966 93.5168 18.8082 93.5168 20.5917H94.581ZM93.7224 15.8832C93.1447 14.6229 92.2707 13.6757 91.1013 13.0687L90.611 14.0133C91.554 14.5028 92.2683 15.265 92.7549 16.3266L93.7224 15.8832ZM91.1013 13.0687C89.95 12.4711 88.5584 12.1865 86.9498 12.1865V13.2508C88.4373 13.2508 89.6499 13.5144 90.611 14.0133L91.1013 13.0687ZM86.9498 12.1865H83.6119V13.2508H86.9498V12.1865ZM83.0798 12.7186V28.5132H84.1441V12.7186H83.0798ZM103.493 33H102.961V33.5321H103.493V33ZM103.493 8.23184V7.69971H102.961V8.23184H103.493ZM118.78 9.71938L118.523 10.1853L118.524 10.1862L118.78 9.71938ZM122.928 13.9643L122.457 14.2113L122.457 14.2129L122.928 13.9643ZM122.928 27.2433L122.457 26.9956L122.456 26.9972L122.928 27.2433ZM118.756 31.5125L118.5 31.0455L118.499 31.046L118.756 31.5125ZM108.73 28.5132H108.198V29.0453H108.73V28.5132ZM115.962 27.6908L116.207 28.1631L116.208 28.1624L115.962 27.6908ZM118.356 25.1148L117.873 24.8916L117.873 24.8931L118.356 25.1148ZM118.356 16.1049L117.873 16.3266L117.874 16.3294L118.356 16.1049ZM115.974 13.541L116.219 13.0687L115.974 13.541ZM108.73 12.7186V12.1865H108.198V12.7186H108.73ZM112.273 32.4679H103.493V33.5321H112.273V32.4679ZM104.025 33V8.23184H102.961V33H104.025ZM103.493 8.76396H112.346V7.69971H103.493V8.76396ZM112.346 8.76396C114.766 8.76396 116.819 9.2454 118.523 10.1853L119.037 9.25343C117.145 8.20997 114.908 7.69971 112.346 7.69971V8.76396ZM118.524 10.1862C120.229 11.1186 121.537 12.4563 122.457 14.2113L123.399 13.7173C122.384 11.7797 120.927 10.2875 119.035 9.25254L118.524 10.1862ZM122.457 14.2129C123.384 15.9669 123.859 18.0866 123.859 20.5917H124.923C124.923 17.9529 124.423 15.6544 123.398 13.7157L122.457 14.2129ZM123.859 20.5917C123.859 23.1051 123.384 25.2333 122.457 26.9956L123.399 27.4911C124.423 25.5446 124.923 23.2384 124.923 20.5917H123.859ZM122.456 26.9972C121.537 28.7593 120.221 30.105 118.5 31.0455L119.011 31.9794C120.918 30.9365 122.384 29.4361 123.4 27.4895L122.456 26.9972ZM118.499 31.046C116.787 31.9861 114.719 32.4679 112.273 32.4679V33.5321C114.859 33.5321 117.112 33.0222 119.012 31.9789L118.499 31.046ZM108.73 29.0453H112.056V27.9811H108.73V29.0453ZM112.056 29.0453C113.664 29.0453 115.056 28.7607 116.207 28.1631L115.717 27.2185C114.756 27.7174 113.543 27.9811 112.056 27.9811V29.0453ZM116.208 28.1624C117.384 27.5478 118.262 26.5976 118.84 25.3365L117.873 24.8931C117.386 25.9541 116.668 26.7212 115.715 27.2192L116.208 28.1624ZM118.839 25.338C119.423 24.0755 119.699 22.4842 119.699 20.5917H118.635C118.635 22.392 118.37 23.816 117.873 24.8916L118.839 25.338ZM119.699 20.5917C119.699 18.7149 119.423 17.1352 118.839 15.8804L117.874 16.3294C118.371 17.3966 118.635 18.8082 118.635 20.5917H119.699ZM118.84 15.8832C118.263 14.6229 117.388 13.6757 116.219 13.0687L115.729 14.0133C116.672 14.5028 117.386 15.265 117.873 16.3266L118.84 15.8832ZM116.219 13.0687C115.068 12.4711 113.676 12.1865 112.068 12.1865V13.2508C113.555 13.2508 114.768 13.5144 115.729 14.0133L116.219 13.0687ZM112.068 12.1865H108.73V13.2508H112.068V12.1865ZM108.198 12.7186V28.5132H109.262V12.7186H108.198ZM125.663 8.23184V7.69971H124.752L125.2 8.49332L125.663 8.23184ZM131.529 8.23184L131.999 7.98283L131.849 7.69971H131.529V8.23184ZM137.176 18.8986L136.706 19.1476L136.856 19.4307H137.176V18.8986ZM137.418 18.8986V19.4307H137.739L137.889 19.1476L137.418 18.8986ZM143.066 8.23184V7.69971H142.746L142.596 7.98283L143.066 8.23184ZM148.932 8.23184L149.395 8.49332L149.843 7.69971H148.932V8.23184ZM139.897 24.2441L139.434 23.9826L139.365 24.1043V24.2441H139.897ZM139.897 33V33.5321H140.43V33H139.897ZM134.697 33H134.165V33.5321H134.697V33ZM134.697 24.2441H135.229V24.1043L135.161 23.9826L134.697 24.2441ZM125.663 8.76396H131.529V7.69971H125.663V8.76396ZM131.058 8.48084L136.706 19.1476L137.647 18.6496L131.999 7.98283L131.058 8.48084ZM137.176 19.4307H137.418V18.3665H137.176V19.4307ZM137.889 19.1476L143.536 8.48084L142.596 7.98283L136.948 18.6496L137.889 19.1476ZM143.066 8.76396H148.932V7.69971H143.066V8.76396ZM148.468 7.97036L139.434 23.9826L140.361 24.5055L149.395 8.49332L148.468 7.97036ZM139.365 24.2441V33H140.43V24.2441H139.365ZM139.897 32.4679H134.697V33.5321H139.897V32.4679ZM135.229 33V24.2441H134.165V33H135.229ZM135.161 23.9826L126.126 7.97036L125.2 8.49332L134.234 24.5055L135.161 23.9826Z" fill="black"/>
</g>
<g filter="url(#filter2_d_1120_2392)">
<path d="M4.1527 94.3848V69.6166H20.5519V73.9341H9.38933V79.8359H19.4635V84.1534H9.38933V94.3848H4.1527ZM47.1754 82.0007C47.1754 84.7016 46.6634 86.9995 45.6395 88.8942C44.6236 90.7889 43.2369 92.2361 41.4792 93.2359C39.7296 94.2275 37.7624 94.7234 35.5774 94.7234C33.3764 94.7234 31.401 94.2235 29.6515 93.2238C27.9019 92.224 26.5192 90.7768 25.5033 88.8821C24.4874 86.9874 23.9794 84.6936 23.9794 82.0007C23.9794 79.2997 24.4874 77.0019 25.5033 75.1072C26.5192 73.2125 27.9019 71.7693 29.6515 70.7776C31.401 69.7779 33.3764 69.278 35.5774 69.278C37.7624 69.278 39.7296 69.7779 41.4792 70.7776C43.2369 71.7693 44.6236 73.2125 45.6395 75.1072C46.6634 77.0019 47.1754 79.2997 47.1754 82.0007ZM41.8662 82.0007C41.8662 80.2511 41.6042 78.7757 41.0801 77.5743C40.5641 76.373 39.8345 75.462 38.8911 74.8411C37.9478 74.2203 36.8433 73.9099 35.5774 73.9099C34.3116 73.9099 33.207 74.2203 32.2637 74.8411C31.3204 75.462 30.5867 76.373 30.0626 77.5743C29.5466 78.7757 29.2886 80.2511 29.2886 82.0007C29.2886 83.7503 29.5466 85.2257 30.0626 86.427C30.5867 87.6283 31.3204 88.5394 32.2637 89.1602C33.207 89.781 34.3116 90.0915 35.5774 90.0915C36.8433 90.0915 37.9478 89.781 38.8911 89.1602C39.8345 88.5394 40.5641 87.6283 41.0801 86.427C41.6042 85.2257 41.8662 83.7503 41.8662 82.0007ZM74.1557 82.0007C74.1557 84.7016 73.6437 86.9995 72.6197 88.8942C71.6039 90.7889 70.2171 92.2361 68.4595 93.2359C66.7099 94.2275 64.7426 94.7234 62.5577 94.7234C60.3566 94.7234 58.3813 94.2235 56.6317 93.2238C54.8821 92.224 53.4994 90.7768 52.4835 88.8821C51.4676 86.9874 50.9597 84.6936 50.9597 82.0007C50.9597 79.2997 51.4676 77.0019 52.4835 75.1072C53.4994 73.2125 54.8821 71.7693 56.6317 70.7776C58.3813 69.7779 60.3566 69.278 62.5577 69.278C64.7426 69.278 66.7099 69.7779 68.4595 70.7776C70.2171 71.7693 71.6039 73.2125 72.6197 75.1072C73.6437 77.0019 74.1557 79.2997 74.1557 82.0007ZM68.8465 82.0007C68.8465 80.2511 68.5844 78.7757 68.0604 77.5743C67.5444 76.373 66.8147 75.462 65.8714 74.8411C64.9281 74.2203 63.8235 73.9099 62.5577 73.9099C61.2919 73.9099 60.1873 74.2203 59.244 74.8411C58.3006 75.462 57.567 76.373 57.0429 77.5743C56.5269 78.7757 56.2689 80.2511 56.2689 82.0007C56.2689 83.7503 56.5269 85.2257 57.0429 86.427C57.567 87.6283 58.3006 88.5394 59.244 89.1602C60.1873 89.781 61.2919 90.0915 62.5577 90.0915C63.8235 90.0915 64.9281 89.781 65.8714 89.1602C66.8147 88.5394 67.5444 87.6283 68.0604 86.427C68.5844 85.2257 68.8465 83.7503 68.8465 82.0007ZM87.1554 94.3848H78.3753V69.6166H87.228C89.7193 69.6166 91.864 70.1124 93.6619 71.1041C95.4599 72.0878 96.8426 73.5028 97.8101 75.3491C98.7857 77.1954 99.2735 79.4045 99.2735 81.9765C99.2735 84.5565 98.7857 86.7737 97.8101 88.6281C96.8426 90.4825 95.4518 91.9055 93.6377 92.8972C91.8317 93.8889 89.6709 94.3848 87.1554 94.3848ZM83.6119 89.898H86.9377C88.4858 89.898 89.7879 89.6238 90.8441 89.0756C91.9083 88.5193 92.7065 87.6606 93.2386 86.4996C93.7788 85.3305 94.0489 83.8228 94.0489 81.9765C94.0489 80.1463 93.7788 78.6507 93.2386 77.4897C92.7065 76.3287 91.9123 75.474 90.8561 74.9258C89.8 74.3775 88.4978 74.1034 86.9498 74.1034H83.6119V89.898ZM112.273 94.3848H103.493V69.6166H112.346C114.837 69.6166 116.982 70.1124 118.78 71.1041C120.578 72.0878 121.96 73.5028 122.928 75.3491C123.903 77.1954 124.391 79.4045 124.391 81.9765C124.391 84.5565 123.903 86.7737 122.928 88.6281C121.96 90.4825 120.57 91.9055 118.756 92.8972C116.95 93.8889 114.789 94.3848 112.273 94.3848ZM108.73 89.898H112.056C113.604 89.898 114.906 89.6238 115.962 89.0756C117.026 88.5193 117.824 87.6606 118.356 86.4996C118.897 85.3305 119.167 83.8228 119.167 81.9765C119.167 80.1463 118.897 78.6507 118.356 77.4897C117.824 76.3287 117.03 75.474 115.974 74.9258C114.918 74.3775 113.616 74.1034 112.068 74.1034H108.73V89.898ZM125.663 69.6166H131.529L137.176 80.2834H137.418L143.066 69.6166H148.932L139.897 85.6288V94.3848H134.697V85.6288L125.663 69.6166Z" fill="#FFC804"/>
<path d="M4.1527 94.3848H3.62057V94.9169H4.1527V94.3848ZM4.1527 69.6166V69.0845H3.62057V69.6166H4.1527ZM20.5519 69.6166H21.0841V69.0845H20.5519V69.6166ZM20.5519 73.9341V74.4662H21.0841V73.9341H20.5519ZM9.38933 73.9341V73.402H8.8572V73.9341H9.38933ZM9.38933 79.8359H8.8572V80.368H9.38933V79.8359ZM19.4635 79.8359H19.9956V79.3038H19.4635V79.8359ZM19.4635 84.1534V84.6855H19.9956V84.1534H19.4635ZM9.38933 84.1534V83.6213H8.8572V84.1534H9.38933ZM9.38933 94.3848V94.9169H9.92146V94.3848H9.38933ZM4.68483 94.3848V69.6166H3.62057V94.3848H4.68483ZM4.1527 70.1487H20.5519V69.0845H4.1527V70.1487ZM20.0198 69.6166V73.9341H21.0841V69.6166H20.0198ZM20.5519 73.402H9.38933V74.4662H20.5519V73.402ZM8.8572 73.9341V79.8359H9.92146V73.9341H8.8572ZM9.38933 80.368H19.4635V79.3038H9.38933V80.368ZM18.9314 79.8359V84.1534H19.9956V79.8359H18.9314ZM19.4635 83.6213H9.38933V84.6855H19.4635V83.6213ZM8.8572 84.1534V94.3848H9.92146V84.1534H8.8572ZM9.38933 93.8526H4.1527V94.9169H9.38933V93.8526ZM45.6395 88.8942L45.1714 88.6412L45.1705 88.6427L45.6395 88.8942ZM41.4792 93.2359L41.7416 93.6988L41.7423 93.6984L41.4792 93.2359ZM29.6515 93.2238L29.9155 92.7617L29.6515 93.2238ZM25.5033 88.8821L25.0343 89.1335L25.5033 88.8821ZM25.5033 75.1072L25.9722 75.3587L25.5033 75.1072ZM29.6515 70.7776L29.9139 71.2405L29.9155 71.2396L29.6515 70.7776ZM41.4792 70.7776L41.2152 71.2396L41.2177 71.2411L41.4792 70.7776ZM45.6395 75.1072L45.1705 75.3587L45.1714 75.3602L45.6395 75.1072ZM41.0801 77.5743L40.5912 77.7844L40.5924 77.7871L41.0801 77.5743ZM38.8911 74.8411L38.5986 75.2856L38.8911 74.8411ZM32.2637 74.8411L32.5563 75.2856L32.2637 74.8411ZM30.0626 77.5743L29.5749 77.3616L29.5737 77.3643L30.0626 77.5743ZM30.0626 86.427L29.5737 86.637L29.5749 86.6398L30.0626 86.427ZM32.2637 89.1602L32.5563 88.7157L32.2637 89.1602ZM38.8911 89.1602L38.5986 88.7157L38.8911 89.1602ZM41.0801 86.427L40.5924 86.2143L40.5912 86.217L41.0801 86.427ZM46.6433 82.0007C46.6433 84.6353 46.1439 86.8415 45.1714 88.6412L46.1076 89.1472C47.1829 87.1574 47.7075 84.7679 47.7075 82.0007H46.6433ZM45.1705 88.6427C44.1989 90.4549 42.881 91.8263 41.2161 92.7733L41.7423 93.6984C43.5927 92.6459 45.0483 91.1228 46.1085 89.1456L45.1705 88.6427ZM41.2168 92.7729C39.5541 93.7154 37.6786 94.1913 35.5774 94.1913V95.2555C37.8462 95.2555 39.9052 94.7397 41.7416 93.6988L41.2168 92.7729ZM35.5774 94.1913C33.4602 94.1913 31.5773 93.7114 29.9155 92.7617L29.3874 93.6858C31.2247 94.7356 33.2925 95.2555 35.5774 95.2555V94.1913ZM29.9155 92.7617C28.2585 91.8149 26.9442 90.4434 25.9722 88.6306L25.0343 89.1335C26.0941 91.1101 27.5453 92.6331 29.3874 93.6858L29.9155 92.7617ZM25.9722 88.6306C25.007 86.8304 24.5116 84.6276 24.5116 82.0007H23.4473C23.4473 84.7596 23.9678 87.1444 25.0343 89.1335L25.9722 88.6306ZM24.5116 82.0007C24.5116 79.3654 25.0071 77.1587 25.9722 75.3587L25.0343 74.8558C23.9677 76.8451 23.4473 79.234 23.4473 82.0007H24.5116ZM25.9722 75.3587C26.944 73.5462 28.2578 72.1792 29.9139 71.2405L29.3891 70.3147C27.5459 71.3594 26.0943 72.8788 25.0343 74.8558L25.9722 75.3587ZM29.9155 71.2396C31.5773 70.29 33.4602 69.8101 35.5774 69.8101V68.7458C33.2925 68.7458 31.2247 69.2657 29.3874 70.3156L29.9155 71.2396ZM35.5774 69.8101C37.6778 69.8101 39.5527 70.2896 41.2152 71.2396L41.7432 70.3156C39.9065 69.2661 37.8469 68.7458 35.5774 68.7458V69.8101ZM41.2177 71.2411C42.8817 72.1799 44.1991 73.5468 45.1705 75.3586L46.1085 74.8558C45.0482 72.8782 43.592 71.3587 41.7407 70.3142L41.2177 71.2411ZM45.1714 75.3602C46.1439 77.1599 46.6433 79.366 46.6433 82.0007H47.7075C47.7075 79.2334 47.1829 76.8439 46.1076 74.8542L45.1714 75.3602ZM42.3983 82.0007C42.3983 80.2011 42.1293 78.6484 41.5679 77.3616L40.5924 77.7871C41.0791 78.9029 41.3341 80.3011 41.3341 82.0007H42.3983ZM41.5691 77.3643C41.0186 76.0828 40.2271 75.0833 39.1837 74.3966L38.5986 75.2856C39.4418 75.8406 40.1096 76.6633 40.5912 77.7844L41.5691 77.3643ZM39.1837 74.3966C38.1432 73.7119 36.9342 73.3778 35.5774 73.3778V74.442C36.7523 74.442 37.7524 74.7287 38.5986 75.2856L39.1837 74.3966ZM35.5774 73.3778C34.2206 73.3778 33.0116 73.7119 31.9712 74.3966L32.5563 75.2856C33.4025 74.7287 34.4026 74.442 35.5774 74.442V73.3778ZM31.9712 74.3966C30.9286 75.0828 30.1334 76.0813 29.5749 77.3616L30.5504 77.7871C31.04 76.6648 31.7122 75.8411 32.5563 75.2856L31.9712 74.3966ZM29.5737 77.3643C29.0213 78.6504 28.7565 80.202 28.7565 82.0007H29.8208C29.8208 80.3002 30.072 78.901 30.5516 77.7844L29.5737 77.3643ZM28.7565 82.0007C28.7565 83.7994 29.0213 85.351 29.5737 86.637L30.5516 86.217C30.072 85.1004 29.8208 83.7011 29.8208 82.0007H28.7565ZM29.5749 86.6398C30.1334 87.9201 30.9286 88.9186 31.9712 89.6047L32.5563 88.7157C31.7122 88.1603 31.04 87.3366 30.5504 86.2143L29.5749 86.6398ZM31.9712 89.6047C33.0116 90.2895 34.2206 90.6236 35.5774 90.6236V89.5593C34.4026 89.5593 33.4025 89.2726 32.5563 88.7157L31.9712 89.6047ZM35.5774 90.6236C36.9342 90.6236 38.1432 90.2895 39.1837 89.6047L38.5986 88.7157C37.7524 89.2726 36.7523 89.5593 35.5774 89.5593V90.6236ZM39.1837 89.6047C40.2271 88.9181 41.0186 87.9186 41.5691 86.637L40.5912 86.217C40.1096 87.3381 39.4418 88.1608 38.5986 88.7157L39.1837 89.6047ZM41.5679 86.6398C42.1293 85.3529 42.3983 83.8002 42.3983 82.0007H41.3341C41.3341 83.7003 41.0791 85.0985 40.5924 86.2143L41.5679 86.6398ZM72.6197 88.8942L72.1516 88.6412L72.1508 88.6427L72.6197 88.8942ZM68.4595 93.2359L68.7219 93.6988L68.7226 93.6984L68.4595 93.2359ZM56.6317 93.2238L56.8957 92.7617L56.6317 93.2238ZM52.4835 88.8821L52.0145 89.1335L52.4835 88.8821ZM52.4835 75.1072L52.9525 75.3587L52.4835 75.1072ZM56.6317 70.7776L56.8941 71.2405L56.8957 71.2396L56.6317 70.7776ZM68.4595 70.7776L68.1954 71.2396L68.198 71.2411L68.4595 70.7776ZM72.6197 75.1072L72.1508 75.3587L72.1516 75.3602L72.6197 75.1072ZM68.0604 77.5743L67.5714 77.7844L67.5726 77.7871L68.0604 77.5743ZM65.8714 74.8411L65.5788 75.2856L65.8714 74.8411ZM59.244 74.8411L59.5365 75.2856L59.244 74.8411ZM57.0429 77.5743L56.5551 77.3616L56.554 77.3643L57.0429 77.5743ZM57.0429 86.427L56.5539 86.637L56.5551 86.6398L57.0429 86.427ZM59.244 89.1602L59.5365 88.7157L59.244 89.1602ZM65.8714 89.1602L65.5788 88.7157L65.8714 89.1602ZM68.0604 86.427L67.5726 86.2143L67.5714 86.217L68.0604 86.427ZM73.6235 82.0007C73.6235 84.6353 73.1242 86.8415 72.1516 88.6412L73.0879 89.1472C74.1632 87.1574 74.6878 84.7679 74.6878 82.0007H73.6235ZM72.1508 88.6427C71.1791 90.4549 69.8613 91.8263 68.1964 92.7733L68.7226 93.6984C70.5729 92.6459 72.0286 91.1228 73.0887 89.1456L72.1508 88.6427ZM68.1971 92.7729C66.5343 93.7154 64.6588 94.1913 62.5577 94.1913V95.2555C64.8264 95.2555 66.8854 94.7397 68.7219 93.6988L68.1971 92.7729ZM62.5577 94.1913C60.4404 94.1913 58.5576 93.7114 56.8957 92.7617L56.3677 93.6858C58.205 94.7356 60.2728 95.2555 62.5577 95.2555V94.1913ZM56.8957 92.7617C55.2387 91.8149 53.9245 90.4434 52.9525 88.6306L52.0145 89.1335C53.0743 91.1101 54.5255 92.6331 56.3677 93.6858L56.8957 92.7617ZM52.9525 88.6306C51.9873 86.8304 51.4918 84.6276 51.4918 82.0007H50.4276C50.4276 84.7596 50.948 87.1444 52.0145 89.1335L52.9525 88.6306ZM51.4918 82.0007C51.4918 79.3654 51.9874 77.1587 52.9525 75.3587L52.0145 74.8558C50.9479 76.8451 50.4276 79.234 50.4276 82.0007H51.4918ZM52.9525 75.3587C53.9243 73.5462 55.2381 72.1792 56.8941 71.2405L56.3693 70.3147C54.5262 71.3594 53.0745 72.8788 52.0145 74.8558L52.9525 75.3587ZM56.8957 71.2396C58.5576 70.29 60.4404 69.8101 62.5577 69.8101V68.7458C60.2728 68.7458 58.205 69.2657 56.3677 70.3156L56.8957 71.2396ZM62.5577 69.8101C64.6581 69.8101 66.533 70.2896 68.1954 71.2396L68.7235 70.3156C66.8868 69.2661 64.8272 68.7458 62.5577 68.7458V69.8101ZM68.198 71.2411C69.8619 72.1799 71.1793 73.5468 72.1508 75.3586L73.0887 74.8558C72.0284 72.8782 70.5723 71.3587 68.7209 70.3142L68.198 71.2411ZM72.1516 75.3602C73.1242 77.1599 73.6235 79.366 73.6235 82.0007H74.6878C74.6878 79.2334 74.1632 76.8439 73.0879 74.8542L72.1516 75.3602ZM69.3786 82.0007C69.3786 80.2011 69.1095 78.6484 68.5481 77.3616L67.5726 77.7871C68.0594 78.9029 68.3143 80.3011 68.3143 82.0007H69.3786ZM68.5493 77.3643C67.9988 76.0828 67.2073 75.0833 66.1639 74.3966L65.5788 75.2856C66.4221 75.8406 67.0899 76.6633 67.5714 77.7844L68.5493 77.3643ZM66.1639 74.3966C65.1235 73.7119 63.9145 73.3778 62.5577 73.3778V74.442C63.7325 74.442 64.7326 74.7287 65.5788 75.2856L66.1639 74.3966ZM62.5577 73.3778C61.2009 73.3778 59.9919 73.7119 58.9514 74.3966L59.5365 75.2856C60.3827 74.7287 61.3828 74.442 62.5577 74.442V73.3778ZM58.9514 74.3966C57.9088 75.0828 57.1137 76.0813 56.5551 77.3616L57.5306 77.7871C58.0202 76.6648 58.6925 75.8411 59.5365 75.2856L58.9514 74.3966ZM56.554 77.3643C56.0016 78.6504 55.7368 80.202 55.7368 82.0007H56.801C56.801 80.3002 57.0522 78.901 57.5318 77.7844L56.554 77.3643ZM55.7368 82.0007C55.7368 83.7994 56.0016 85.351 56.554 86.637L57.5318 86.217C57.0522 85.1004 56.801 83.7011 56.801 82.0007H55.7368ZM56.5551 86.6398C57.1137 87.9201 57.9088 88.9186 58.9514 89.6047L59.5365 88.7157C58.6925 88.1603 58.0202 87.3366 57.5306 86.2143L56.5551 86.6398ZM58.9514 89.6047C59.9919 90.2895 61.2009 90.6236 62.5577 90.6236V89.5593C61.3828 89.5593 60.3827 89.2726 59.5365 88.7157L58.9514 89.6047ZM62.5577 90.6236C63.9145 90.6236 65.1235 90.2895 66.1639 89.6047L65.5788 88.7157C64.7326 89.2726 63.7325 89.5593 62.5577 89.5593V90.6236ZM66.1639 89.6047C67.2073 88.9181 67.9988 87.9186 68.5493 86.637L67.5714 86.217C67.0899 87.3381 66.4221 88.1608 65.5788 88.7157L66.1639 89.6047ZM68.5481 86.6398C69.1095 85.3529 69.3786 83.8002 69.3786 82.0007H68.3143C68.3143 83.7003 68.0594 85.0985 67.5726 86.2143L68.5481 86.6398ZM78.3753 94.3848H77.8432V94.9169H78.3753V94.3848ZM78.3753 69.6166V69.0845H77.8432V69.6166H78.3753ZM93.6619 71.1041L93.4049 71.5701L93.4065 71.571L93.6619 71.1041ZM97.8101 75.3491L97.3388 75.5961L97.3396 75.5977L97.8101 75.3491ZM97.8101 88.6281L97.3392 88.3803L97.3383 88.382L97.8101 88.6281ZM93.6377 92.8972L93.3825 92.4303L93.3816 92.4308L93.6377 92.8972ZM83.6119 89.898H83.0798V90.4301H83.6119V89.898ZM90.8441 89.0756L91.0892 89.5479L91.0906 89.5472L90.8441 89.0756ZM93.2386 86.4996L92.7556 86.2764L92.7549 86.2779L93.2386 86.4996ZM93.2386 77.4897L92.7549 77.7114L92.7562 77.7142L93.2386 77.4897ZM90.8561 74.9258L91.1013 74.4535L90.8561 74.9258ZM83.6119 74.1034V73.5713H83.0798V74.1034H83.6119ZM87.1554 93.8526H78.3753V94.9169H87.1554V93.8526ZM78.9074 94.3848V69.6166H77.8432V94.3848H78.9074ZM78.3753 70.1487H87.228V69.0845H78.3753V70.1487ZM87.228 70.1487C89.6485 70.1487 91.7008 70.6302 93.4049 71.5701L93.9189 70.6382C92.0271 69.5947 89.7902 69.0845 87.228 69.0845V70.1487ZM93.4065 71.571C95.1107 72.5033 96.4191 73.841 97.3388 75.5961L98.2814 75.1021C97.2661 73.1645 95.809 71.6722 93.9173 70.6373L93.4065 71.571ZM97.3396 75.5977C98.2664 77.3516 98.7413 79.4714 98.7413 81.9765H99.8056C99.8056 79.3377 99.305 77.0392 98.2806 75.1005L97.3396 75.5977ZM98.7413 81.9765C98.7413 84.4899 98.2663 86.6181 97.3392 88.3804L98.281 88.8759C99.3051 86.9294 99.8056 84.6232 99.8056 81.9765H98.7413ZM97.3383 88.382C96.4189 90.1441 95.103 91.4898 93.3825 92.4303L93.893 93.3641C95.8006 92.3213 97.2662 90.8209 98.2819 88.8742L97.3383 88.382ZM93.3816 92.4308C91.6696 93.3708 89.601 93.8526 87.1554 93.8526V94.9169C89.7409 94.9169 91.9938 94.407 93.8938 93.3637L93.3816 92.4308ZM83.6119 90.4301H86.9377V89.3658H83.6119V90.4301ZM86.9377 90.4301C88.5463 90.4301 89.938 90.1455 91.0892 89.5479L90.5989 88.6033C89.6378 89.1022 88.4252 89.3658 86.9377 89.3658V90.4301ZM91.0906 89.5472C92.2663 88.9326 93.1444 87.9823 93.7224 86.7213L92.7549 86.2779C92.2686 87.3389 91.5503 88.106 90.5975 88.604L91.0906 89.5472ZM93.7217 86.7228C94.3051 85.4602 94.581 83.8689 94.581 81.9765H93.5168C93.5168 83.7767 93.2526 85.2008 92.7556 86.2764L93.7217 86.7228ZM94.581 81.9765C94.581 80.0996 94.3049 78.52 93.7211 77.2652L92.7562 77.7142C93.2527 78.7814 93.5168 80.193 93.5168 81.9765H94.581ZM93.7224 77.268C93.1447 76.0076 92.2707 75.0605 91.1013 74.4535L90.611 75.3981C91.554 75.8876 92.2683 76.6497 92.7549 77.7114L93.7224 77.268ZM91.1013 74.4535C89.95 73.8559 88.5584 73.5713 86.9498 73.5713V74.6355C88.4373 74.6355 89.6499 74.8992 90.611 75.3981L91.1013 74.4535ZM86.9498 73.5713H83.6119V74.6355H86.9498V73.5713ZM83.0798 74.1034V89.898H84.1441V74.1034H83.0798ZM103.493 94.3848H102.961V94.9169H103.493V94.3848ZM103.493 69.6166V69.0845H102.961V69.6166H103.493ZM118.78 71.1041L118.523 71.5701L118.524 71.571L118.78 71.1041ZM122.928 75.3491L122.457 75.5961L122.457 75.5977L122.928 75.3491ZM122.928 88.6281L122.457 88.3803L122.456 88.382L122.928 88.6281ZM118.756 92.8972L118.5 92.4303L118.499 92.4308L118.756 92.8972ZM108.73 89.898H108.198V90.4301H108.73V89.898ZM115.962 89.0756L116.207 89.5479L116.208 89.5472L115.962 89.0756ZM118.356 86.4996L117.873 86.2764L117.873 86.2779L118.356 86.4996ZM118.356 77.4897L117.873 77.7114L117.874 77.7142L118.356 77.4897ZM115.974 74.9258L116.219 74.4535L115.974 74.9258ZM108.73 74.1034V73.5713H108.198V74.1034H108.73ZM112.273 93.8526H103.493V94.9169H112.273V93.8526ZM104.025 94.3848V69.6166H102.961V94.3848H104.025ZM103.493 70.1487H112.346V69.0845H103.493V70.1487ZM112.346 70.1487C114.766 70.1487 116.819 70.6302 118.523 71.5701L119.037 70.6382C117.145 69.5947 114.908 69.0845 112.346 69.0845V70.1487ZM118.524 71.571C120.229 72.5033 121.537 73.841 122.457 75.5961L123.399 75.1021C122.384 73.1645 120.927 71.6722 119.035 70.6373L118.524 71.571ZM122.457 75.5977C123.384 77.3516 123.859 79.4714 123.859 81.9765H124.923C124.923 79.3377 124.423 77.0392 123.398 75.1005L122.457 75.5977ZM123.859 81.9765C123.859 84.4899 123.384 86.6181 122.457 88.3804L123.399 88.8759C124.423 86.9294 124.923 84.6232 124.923 81.9765H123.859ZM122.456 88.382C121.537 90.1441 120.221 91.4898 118.5 92.4303L119.011 93.3641C120.918 92.3213 122.384 90.8209 123.4 88.8742L122.456 88.382ZM118.499 92.4308C116.787 93.3708 114.719 93.8526 112.273 93.8526V94.9169C114.859 94.9169 117.112 94.407 119.012 93.3637L118.499 92.4308ZM108.73 90.4301H112.056V89.3658H108.73V90.4301ZM112.056 90.4301C113.664 90.4301 115.056 90.1455 116.207 89.5479L115.717 88.6033C114.756 89.1022 113.543 89.3658 112.056 89.3658V90.4301ZM116.208 89.5472C117.384 88.9326 118.262 87.9823 118.84 86.7213L117.873 86.2779C117.386 87.3389 116.668 88.106 115.715 88.604L116.208 89.5472ZM118.839 86.7228C119.423 85.4602 119.699 83.8689 119.699 81.9765H118.635C118.635 83.7767 118.37 85.2008 117.873 86.2764L118.839 86.7228ZM119.699 81.9765C119.699 80.0996 119.423 78.52 118.839 77.2652L117.874 77.7142C118.371 78.7814 118.635 80.193 118.635 81.9765H119.699ZM118.84 77.268C118.263 76.0076 117.388 75.0605 116.219 74.4535L115.729 75.3981C116.672 75.8876 117.386 76.6497 117.873 77.7114L118.84 77.268ZM116.219 74.4535C115.068 73.8559 113.676 73.5713 112.068 73.5713V74.6355C113.555 74.6355 114.768 74.8992 115.729 75.3981L116.219 74.4535ZM112.068 73.5713H108.73V74.6355H112.068V73.5713ZM108.198 74.1034V89.898H109.262V74.1034H108.198ZM125.663 69.6166V69.0845H124.752L125.2 69.8781L125.663 69.6166ZM131.529 69.6166L131.999 69.3676L131.849 69.0845H131.529V69.6166ZM137.176 80.2834L136.706 80.5324L136.856 80.8155H137.176V80.2834ZM137.418 80.2834V80.8155H137.739L137.889 80.5324L137.418 80.2834ZM143.066 69.6166V69.0845H142.746L142.596 69.3676L143.066 69.6166ZM148.932 69.6166L149.395 69.8781L149.843 69.0845H148.932V69.6166ZM139.897 85.6288L139.434 85.3674L139.365 85.4891V85.6288H139.897ZM139.897 94.3848V94.9169H140.43V94.3848H139.897ZM134.697 94.3848H134.165V94.9169H134.697V94.3848ZM134.697 85.6288H135.229V85.4891L135.161 85.3674L134.697 85.6288ZM125.663 70.1487H131.529V69.0845H125.663V70.1487ZM131.058 69.8656L136.706 80.5324L137.647 80.0344L131.999 69.3676L131.058 69.8656ZM137.176 80.8155H137.418V79.7512H137.176V80.8155ZM137.889 80.5324L143.536 69.8656L142.596 69.3676L136.948 80.0344L137.889 80.5324ZM143.066 70.1487H148.932V69.0845H143.066V70.1487ZM148.468 69.3551L139.434 85.3674L140.361 85.8903L149.395 69.8781L148.468 69.3551ZM139.365 85.6288V94.3848H140.43V85.6288H139.365ZM139.897 93.8526H134.697V94.9169H139.897V93.8526ZM135.229 94.3848V85.6288H134.165V94.3848H135.229ZM135.161 85.3674L126.126 69.3551L125.2 69.8781L134.234 85.8903L135.161 85.3674Z" fill="black"/>
</g>
<defs>
<filter id="filter0_d_1120_2392" x="0.960061" y="38.5859" width="151.164" height="31.8309" filterUnits="userSpaceOnUse" color-interpolation-filters="sRGB">
<feFlood flood-opacity="0" result="BackgroundImageFix"/>
<feColorMatrix in="SourceAlpha" type="matrix" values="0 0 0 0 0 0 0 0 0 0 0 0 0 0 0 0 0 0 127 0" result="hardAlpha"/>
<feOffset dy="3.19277"/>
<feGaussianBlur stdDeviation="1.59639"/>
<feComposite in2="hardAlpha" operator="out"/>
<feColorMatrix type="matrix" values="0 0 0 0 0 0 0 0 0 0 0 0 0 0 0 0 0 0 0.25 0"/>
<feBlend mode="normal" in2="BackgroundImageFix" result="effect1_dropShadow_1120_2392"/>
<feBlend mode="normal" in="SourceGraphic" in2="effect1_dropShadow_1120_2392" result="shape"/>
</filter>
<filter id="filter1_d_1120_2392" x="0.819499" y="7.89331" width="151.445" height="32.112" filterUnits="userSpaceOnUse" color-interpolation-filters="sRGB">
<feFlood flood-opacity="0" result="BackgroundImageFix"/>
<feColorMatrix in="SourceAlpha" type="matrix" values="0 0 0 0 0 0 0 0 0 0 0 0 0 0 0 0 0 0 127 0" result="hardAlpha"/>
<feOffset dy="3.33333"/>
<feGaussianBlur stdDeviation="1.66667"/>
<feComposite in2="hardAlpha" operator="out"/>
<feColorMatrix type="matrix" values="0 0 0 0 0 0 0 0 0 0 0 0 0 0 0 0 0 0 0.25 0"/>
<feBlend mode="normal" in2="BackgroundImageFix" result="effect1_dropShadow_1120_2392"/>
<feBlend mode="normal" in="SourceGraphic" in2="effect1_dropShadow_1120_2392" result="shape"/>
</filter>
<filter id="filter2_d_1120_2392" x="0.819499" y="69.2781" width="151.445" height="32.112" filterUnits="userSpaceOnUse" color-interpolation-filters="sRGB">
<feFlood flood-opacity="0" result="BackgroundImageFix"/>
<feColorMatrix in="SourceAlpha" type="matrix" values="0 0 0 0 0 0 0 0 0 0 0 0 0 0 0 0 0 0 127 0" result="hardAlpha"/>
<feOffset dy="3.33333"/>
<feGaussianBlur stdDeviation="1.66667"/>
<feComposite in2="hardAlpha" operator="out"/>
<feColorMatrix type="matrix" values="0 0 0 0 0 0 0 0 0 0 0 0 0 0 0 0 0 0 0.25 0"/>
<feBlend mode="normal" in2="BackgroundImageFix" result="effect1_dropShadow_1120_2392"/>
<feBlend mode="normal" in="SourceGraphic" in2="effect1_dropShadow_1120_2392" result="shape"/>
</filter>
</defs>
</svg>
