<svg width="21" height="19" viewBox="0 0 21 19" fill="none" xmlns="http://www.w3.org/2000/svg">
<path d="M20.8364 9.37565L15.6281 13.5423V10.4173H6.25309V8.33398H15.6281V5.20898L20.8364 9.37565Z" fill="#FFC804"/>
<path d="M9.37718 3.57929e-05C10.6089 -0.00337952 11.8291 0.237651 12.967 0.709165C14.105 1.18068 15.138 1.8733 16.0063 2.74691L14.5334 4.21983C13.1563 2.84274 11.3251 2.08337 9.37718 2.08337C7.42926 2.08337 5.59801 2.84274 4.22093 4.21983C2.84385 5.59691 2.08447 7.42816 2.08447 9.37608C2.08447 11.324 2.84385 13.1552 4.22093 14.5323C5.59801 15.9094 7.42926 16.6688 9.37718 16.6688C11.3251 16.6688 13.1563 15.9094 14.5334 14.5323L16.0063 16.0052C14.2366 17.7761 11.8824 18.7521 9.37718 18.7521C6.87197 18.7521 4.51781 17.7761 2.74802 16.0052C0.977181 14.2355 0.00113869 11.8813 0.00113869 9.37608C0.00113869 6.87087 0.977181 4.5167 2.74802 2.74691C3.61635 1.8733 4.64941 1.18068 5.78733 0.709165C6.92526 0.237651 8.14544 -0.00337952 9.37718 3.57929e-05Z" fill="#FFC804"/>
</svg>
