<svg width="30" height="29" viewBox="0 0 30 29" fill="none" xmlns="http://www.w3.org/2000/svg">
<path d="M14.5022 0C11.6339 0 8.83009 0.85041 6.44522 2.44369C4.06034 4.03697 2.20156 6.30156 1.10392 8.95109C0.00628353 11.6006 -0.280908 14.5161 0.278662 17.3288C0.838233 20.1415 2.21943 22.7252 4.2476 24.753C6.27577 26.7809 8.85982 28.1619 11.673 28.7214C14.4861 29.2809 17.402 28.9937 20.052 27.8962C22.7019 26.7988 24.9668 24.9403 26.5604 22.5558C28.1539 20.1713 29.0044 17.3678 29.0044 14.5C29.0044 10.6544 27.4765 6.96623 24.7568 4.24695C22.0371 1.52767 18.3484 0 14.5022 0ZM19.9405 15.8594H9.06389C8.7033 15.8594 8.35749 15.7162 8.10252 15.4612C7.84755 15.2063 7.7043 14.8605 7.7043 14.5C7.7043 14.1395 7.84755 13.7937 8.10252 13.5388C8.35749 13.2838 8.7033 13.1406 9.06389 13.1406H19.9405C20.3011 13.1406 20.6469 13.2838 20.9019 13.5388C21.1569 13.7937 21.3001 14.1395 21.3001 14.5C21.3001 14.8605 21.1569 15.2063 20.9019 15.4612C20.6469 15.7162 20.3011 15.8594 19.9405 15.8594Z" fill="#FFC804"/>
</svg>
