<svg width="25" height="24" viewBox="0 0 25 24" fill="none" xmlns="http://www.w3.org/2000/svg">
<path d="M12.6034 0C10.2554 0 7.96005 0.703787 6.00771 2.02236C4.05538 3.34094 2.53371 5.21508 1.63515 7.4078C0.736589 9.60051 0.501484 12.0133 0.959567 14.3411C1.41765 16.6689 2.54835 18.807 4.20867 20.4853C5.869 22.1635 7.98439 23.3064 10.2873 23.7694C12.5903 24.2324 14.9773 23.9948 17.1466 23.0866C19.316 22.1783 21.1701 20.6402 22.4746 18.6668C23.7791 16.6934 24.4754 14.3734 24.4754 12C24.4754 8.8174 23.2246 5.76515 20.9982 3.51472C18.7718 1.26428 15.7521 0 12.6034 0ZM17.0554 13.125H8.15144C7.85625 13.125 7.57316 13.0065 7.36443 12.7955C7.1557 12.5845 7.03844 12.2984 7.03844 12C7.03844 11.7016 7.1557 11.4155 7.36443 11.2045C7.57316 10.9935 7.85625 10.875 8.15144 10.875H17.0554C17.3506 10.875 17.6337 10.9935 17.8424 11.2045C18.0512 11.4155 18.1684 11.7016 18.1684 12C18.1684 12.2984 18.0512 12.5845 17.8424 12.7955C17.6337 13.0065 17.3506 13.125 17.0554 13.125Z" fill="#FFC804"/>
</svg>
