<svg width="28" height="28" viewBox="0 0 28 28" fill="none" xmlns="http://www.w3.org/2000/svg">
<path d="M26 14V4C26 3.46957 25.7893 2.96086 25.4142 2.58579C25.0391 2.21071 24.5304 2 24 2H4C3.46957 2 2.96086 2.21071 2.58579 2.58579C2.21071 2.96086 2 3.46957 2 4V24C2 24.5304 2.21071 25.0391 2.58579 25.4142C2.96086 25.7893 3.46957 26 4 26H14" stroke="#515553" stroke-width="2.08333" stroke-linecap="round" stroke-linejoin="round"/>
<path d="M19.3335 23.333C21.5426 23.333 23.3335 21.5421 23.3335 19.333C23.3335 17.1239 21.5426 15.333 19.3335 15.333C17.1244 15.333 15.3335 17.1239 15.3335 19.333C15.3335 21.5421 17.1244 23.333 19.3335 23.333Z" stroke="#515553" stroke-width="2.08333"/>
<path d="M22.6668 22.0003L26.0002 24.667M7.3335 8.66699H20.6668M7.3335 14.0003H12.6668" stroke="#515553" stroke-width="2.08333" stroke-linecap="round" stroke-linejoin="round"/>
</svg>
