<svg width="23" height="23" viewBox="0 0 23 23" fill="none" xmlns="http://www.w3.org/2000/svg">
<g clip-path="url(#clip0_1092_9930)">
<path d="M20.9876 17.9717L20.7704 17.78C20.1541 17.231 19.6147 16.6013 19.1668 15.9081C18.6775 14.9514 18.3843 13.9066 18.3043 12.835V9.67893C18.3085 7.99585 17.698 6.36915 16.5874 5.10447C15.4769 3.83978 13.9427 3.02417 12.2732 2.81087V1.98671C12.2732 1.7605 12.1833 1.54356 12.0234 1.3836C11.8634 1.22365 11.6465 1.13379 11.4203 1.13379C11.194 1.13379 10.9771 1.22365 10.8172 1.3836C10.6572 1.54356 10.5673 1.7605 10.5673 1.98671V2.82365C8.91278 3.05233 7.39716 3.87287 6.30118 5.1333C5.2052 6.39373 4.60314 8.00864 4.60651 9.67893V12.835C4.52649 13.9066 4.23325 14.9514 3.74401 15.9081C3.30374 16.5996 2.77302 17.2292 2.16595 17.78L1.94873 17.9717V19.7734H20.9876V17.9717Z" fill="#222222"/>
<path d="M9.7876 20.4443C9.84362 20.8493 10.0443 21.2203 10.3526 21.4889C10.6608 21.7574 11.0558 21.9054 11.4647 21.9054C11.8735 21.9054 12.2685 21.7574 12.5768 21.4889C12.8851 21.2203 13.0857 20.8493 13.1418 20.4443H9.7876Z" fill="#222222"/>
</g>
<defs>
<clipPath id="clip0_1092_9930">
<rect width="23" height="23" fill="white"/>
</clipPath>
</defs>
</svg>
