<svg width="30" height="30" viewBox="0 0 30 30" fill="none" xmlns="http://www.w3.org/2000/svg">
<path d="M20.625 11.7504L9.375 5.26287L20.625 11.7504ZM26.25 20.0004V10.0004C26.2496 9.56196 26.1338 9.13138 25.9144 8.75182C25.695 8.37226 25.3797 8.05707 25 7.83787L16.25 2.83787C15.87 2.61845 15.4388 2.50293 15 2.50293C14.5612 2.50293 14.13 2.61845 13.75 2.83787L5 7.83787C4.62033 8.05707 4.30498 8.37226 4.08558 8.75182C3.86618 9.13138 3.75045 9.56196 3.75 10.0004V20.0004C3.75045 20.4388 3.86618 20.8694 4.08558 21.2489C4.30498 21.6285 4.62033 21.9437 5 22.1629L13.75 27.1629C14.13 27.3823 14.5612 27.4978 15 27.4978C15.4388 27.4978 15.87 27.3823 16.25 27.1629L25 22.1629C25.3797 21.9437 25.695 21.6285 25.9144 21.2489C26.1338 20.8694 26.2496 20.4388 26.25 20.0004Z" stroke="#FFC804" stroke-width="2" stroke-linecap="round" stroke-linejoin="round"/>
<path d="M14.9998 15L4.1123 8.75L14.9998 2.5L25.8873 8.75L14.9998 15ZM14.9998 15V27.5" stroke="#FFC804" stroke-width="2" stroke-linecap="round" stroke-linejoin="round"/>
</svg>
