<svg width="22" height="18" viewBox="0 0 22 18" fill="none" xmlns="http://www.w3.org/2000/svg">
<path d="M3.57809 0C2.64298 0 1.74617 0.370395 1.08494 1.0297C0.423718 1.68901 0.0522461 2.58322 0.0522461 3.51562V4.6875H21.9908V3.51562C21.9908 2.58322 21.6194 1.68901 20.9581 1.0297C20.2969 0.370395 19.4001 0 18.465 0H3.57809ZM0.0522461 13.6719V6.25H21.9908V13.6719C21.9908 14.6043 21.6194 15.4985 20.9581 16.1578C20.2969 16.8171 19.4001 17.1875 18.465 17.1875H3.57809C2.64298 17.1875 1.74617 16.8171 1.08494 16.1578C0.423718 15.4985 0.0522461 14.6043 0.0522461 13.6719V13.6719ZM14.9391 10.9375C14.7313 10.9375 14.5321 11.0198 14.3851 11.1663C14.2382 11.3128 14.1556 11.5115 14.1556 11.7188C14.1556 11.926 14.2382 12.1247 14.3851 12.2712C14.5321 12.4177 14.7313 12.5 14.9391 12.5H17.2897C17.4975 12.5 17.6968 12.4177 17.8437 12.2712C17.9907 12.1247 18.0732 11.926 18.0732 11.7188C18.0732 11.5115 17.9907 11.3128 17.8437 11.1663C17.6968 11.0198 17.4975 10.9375 17.2897 10.9375H14.9391Z" fill="#222222"/>
</svg>
