<svg width="25" height="24" viewBox="0 0 25 24" fill="none" xmlns="http://www.w3.org/2000/svg">
<path d="M24.4388 12C24.4388 14.3734 23.7425 16.6934 22.438 18.6668C21.1335 20.6402 19.2793 22.1783 17.11 23.0865C14.9407 23.9948 12.5536 24.2324 10.2507 23.7694C7.94776 23.3064 5.83238 22.1635 4.17205 20.4853C2.51173 18.807 1.38103 16.6689 0.922946 14.3411C0.464863 12.0133 0.699968 9.60051 1.59853 7.4078C2.49709 5.21508 4.01875 3.34094 5.97109 2.02236C7.92343 0.703787 10.2188 0 12.5668 0C15.7155 0 18.7351 1.26428 20.9616 3.51472C23.188 5.76515 24.4388 8.8174 24.4388 12ZM18.1986 10.875H13.6798V6.3075C13.6798 6.00913 13.5625 5.72298 13.3538 5.512C13.1451 5.30102 12.862 5.1825 12.5668 5.1825C12.2716 5.1825 11.9885 5.30102 11.7798 5.512C11.5711 5.72298 11.4538 6.00913 11.4538 6.3075V10.875H6.93504C6.63985 10.875 6.35676 10.9935 6.14803 11.2045C5.9393 11.4155 5.82204 11.7016 5.82204 12C5.82204 12.2984 5.9393 12.5845 6.14803 12.7955C6.35676 13.0065 6.63985 13.125 6.93504 13.125H11.4538V17.6925C11.4538 17.9909 11.5711 18.277 11.7798 18.488C11.9885 18.699 12.2716 18.8175 12.5668 18.8175C12.862 18.8175 13.1451 18.699 13.3538 18.488C13.5625 18.277 13.6798 17.9909 13.6798 17.6925V13.125H18.1986C18.4938 13.125 18.7769 13.0065 18.9856 12.7955C19.1943 12.5845 19.3116 12.2984 19.3116 12C19.3116 11.7016 19.1943 11.4155 18.9856 11.2045C18.7769 10.9935 18.4938 10.875 18.1986 10.875V10.875Z" fill="#FFC804"/>
</svg>
