<svg width="30" height="29" viewBox="0 0 30 29" fill="none" xmlns="http://www.w3.org/2000/svg">
<path d="M29.9236 14.5C29.9236 17.3678 29.0731 20.1713 27.4795 22.5558C25.886 24.9403 23.6211 26.7988 20.9712 27.8962C18.3212 28.9937 15.4053 29.2809 12.5922 28.7214C9.77901 28.1619 7.19496 26.7809 5.16679 24.753C3.13862 22.7252 1.75742 20.1415 1.19785 17.3288C0.638281 14.5161 0.925473 11.6006 2.02311 8.95109C3.12075 6.30156 4.97953 4.03697 7.36441 2.44369C9.74928 0.85041 12.5531 0 15.4214 0C19.2676 0 22.9563 1.52767 25.676 4.24695C28.3957 6.96623 29.9236 10.6544 29.9236 14.5ZM22.3009 13.1406H16.781V7.62156C16.781 7.26103 16.6377 6.91527 16.3828 6.66034C16.1278 6.40541 15.782 6.26219 15.4214 6.26219C15.0608 6.26219 14.715 6.40541 14.46 6.66034C14.2051 6.91527 14.0618 7.26103 14.0618 7.62156V13.1406H8.54192C8.18133 13.1406 7.83552 13.2838 7.58055 13.5388C7.32558 13.7937 7.18234 14.1395 7.18234 14.5C7.18234 14.8605 7.32558 15.2063 7.58055 15.4612C7.83552 15.7162 8.18133 15.8594 8.54192 15.8594H14.0618V21.3784C14.0618 21.739 14.2051 22.0847 14.46 22.3397C14.715 22.5946 15.0608 22.7378 15.4214 22.7378C15.782 22.7378 16.1278 22.5946 16.3828 22.3397C16.6377 22.0847 16.781 21.739 16.781 21.3784V15.8594H22.3009C22.6615 15.8594 23.0073 15.7162 23.2623 15.4612C23.5172 15.2063 23.6605 14.8605 23.6605 14.5C23.6605 14.1395 23.5172 13.7937 23.2623 13.5388C23.0073 13.2838 22.6615 13.1406 22.3009 13.1406Z" fill="#FFC804"/>
</svg>
