<svg width="23" height="23" viewBox="0 0 23 23" fill="none" xmlns="http://www.w3.org/2000/svg">
<path fill-rule="evenodd" clip-rule="evenodd" d="M11.5 0C10.5081 0 8.8507 0.380938 7.29101 0.805C5.69538 1.23625 4.08682 1.74656 3.14095 2.05562C2.74548 2.18622 2.39487 2.42573 2.1294 2.74663C1.86393 3.06753 1.69437 3.45681 1.6402 3.86975C0.783445 10.3054 2.77151 15.0751 5.18363 18.2304C6.20653 19.5801 7.42617 20.7688 8.80182 21.7566C9.3567 22.149 9.87132 22.4494 10.3083 22.655C10.7108 22.8447 11.1435 23 11.5 23C11.8565 23 12.2878 22.8447 12.6917 22.655C13.2185 22.3989 13.7225 22.0984 14.1982 21.7566C15.5739 20.7688 16.7935 19.5802 17.8164 18.2304C20.2285 15.0751 22.2166 10.3054 21.3598 3.86975C21.3057 3.45661 21.1362 3.06711 20.8708 2.74596C20.6053 2.42481 20.2547 2.18504 19.8591 2.05419C18.486 1.60398 17.1022 1.18699 15.709 0.803563C14.1493 0.382375 12.4919 0 11.5 0ZM11.5 7.1875C12.0092 7.18674 12.5023 7.36623 12.8918 7.69416C13.2814 8.0221 13.5423 8.47733 13.6284 8.97922C13.7145 9.48111 13.6202 9.99727 13.3622 10.4363C13.1042 10.8753 12.6991 11.2088 12.2188 11.3778L12.7722 14.2384C12.7923 14.3425 12.7892 14.4497 12.7631 14.5524C12.7369 14.6551 12.6884 14.7507 12.6209 14.8325C12.5535 14.9142 12.4688 14.98 12.3729 15.0252C12.277 15.0704 12.1724 15.0938 12.0664 15.0938H10.9336C10.8278 15.0936 10.7233 15.07 10.6276 15.0247C10.5319 14.9795 10.4474 14.9136 10.3801 14.8319C10.3128 14.7502 10.2644 14.6546 10.2383 14.552C10.2122 14.4494 10.2091 14.3424 10.2293 14.2384L10.7813 11.3778C10.3009 11.2088 9.89583 10.8753 9.63782 10.4363C9.37981 9.99727 9.28549 9.48111 9.37158 8.97922C9.45767 8.47733 9.7186 8.0221 10.1082 7.69416C10.4977 7.36623 10.9908 7.18674 11.5 7.1875Z" fill="#222222"/>
</svg>
