<svg width="24" height="24" viewBox="0 0 24 24" fill="none" xmlns="http://www.w3.org/2000/svg">
<path d="M3 6.74985H13.6289C13.7841 7.18837 14.0714 7.56801 14.4512 7.83652C14.8311 8.10503 15.2848 8.24921 15.75 8.24921C16.2152 8.24921 16.6689 8.10503 17.0488 7.83652C17.4286 7.56801 17.7159 7.18837 17.8711 6.74985H21C21.1989 6.74985 21.3897 6.67083 21.5303 6.53018C21.671 6.38953 21.75 6.19876 21.75 5.99985C21.75 5.80094 21.671 5.61017 21.5303 5.46952C21.3897 5.32887 21.1989 5.24985 21 5.24985H17.8711C17.7159 4.81133 17.4286 4.43168 17.0488 4.16317C16.6689 3.89467 16.2152 3.75049 15.75 3.75049C15.2848 3.75049 14.8311 3.89467 14.4512 4.16317C14.0714 4.43168 13.7841 4.81133 13.6289 5.24985H3C2.80109 5.24985 2.61032 5.32887 2.46967 5.46952C2.32902 5.61017 2.25 5.80094 2.25 5.99985C2.25 6.19876 2.32902 6.38953 2.46967 6.53018C2.61032 6.67083 2.80109 6.74985 3 6.74985ZM21 17.2498H17.8711C17.7159 16.8113 17.4286 16.4317 17.0488 16.1632C16.6689 15.8947 16.2152 15.7505 15.75 15.7505C15.2848 15.7505 14.8311 15.8947 14.4512 16.1632C14.0714 16.4317 13.7841 16.8113 13.6289 17.2498H3C2.80109 17.2498 2.61032 17.3289 2.46967 17.4695C2.32902 17.6102 2.25 17.8009 2.25 17.9998C2.25 18.1988 2.32902 18.3895 2.46967 18.5302C2.61032 18.6708 2.80109 18.7498 3 18.7498H13.6289C13.7841 19.1884 14.0714 19.568 14.4512 19.8365C14.8311 20.105 15.2848 20.2492 15.75 20.2492C16.2152 20.2492 16.6689 20.105 17.0488 19.8365C17.4286 19.568 17.7159 19.1884 17.8711 18.7498H21C21.1989 18.7498 21.3897 18.6708 21.5303 18.5302C21.671 18.3895 21.75 18.1988 21.75 17.9998C21.75 17.8009 21.671 17.6102 21.5303 17.4695C21.3897 17.3289 21.1989 17.2498 21 17.2498ZM21 11.2498H10.3711C10.2159 10.8113 9.92861 10.4317 9.54876 10.1632C9.16891 9.89467 8.71517 9.75049 8.25 9.75049C7.78483 9.75049 7.33109 9.89467 6.95124 10.1632C6.57139 10.4317 6.2841 10.8113 6.12891 11.2498H3C2.80109 11.2498 2.61032 11.3289 2.46967 11.4695C2.32902 11.6102 2.25 11.8009 2.25 11.9998C2.25 12.1988 2.32902 12.3895 2.46967 12.5302C2.61032 12.6708 2.80109 12.7498 3 12.7498H6.12891C6.2841 13.1884 6.57139 13.568 6.95124 13.8365C7.33109 14.105 7.78483 14.2492 8.25 14.2492C8.71517 14.2492 9.16891 14.105 9.54876 13.8365C9.92861 13.568 10.2159 13.1884 10.3711 12.7498H21C21.1989 12.7498 21.3897 12.6708 21.5303 12.5302C21.671 12.3895 21.75 12.1988 21.75 11.9998C21.75 11.8009 21.671 11.6102 21.5303 11.4695C21.3897 11.3289 21.1989 11.2498 21 11.2498Z" fill="#BDBDBD"/>
</svg>
