<svg width="25" height="24" viewBox="0 0 25 24" fill="none" xmlns="http://www.w3.org/2000/svg">
<g clip-path="url(#clip0_900_45)">
<path fill-rule="evenodd" clip-rule="evenodd" d="M0.097168 12C0.097168 8.8174 1.37372 5.76516 3.64601 3.51472C5.9183 1.26428 9.00018 0 12.2137 0C15.4272 0 18.509 1.26428 20.7813 3.51472C23.0536 5.76516 24.3302 8.8174 24.3302 12C24.3302 15.1826 23.0536 18.2348 20.7813 20.4853C18.509 22.7357 15.4272 24 12.2137 24C9.00018 24 5.9183 22.7357 3.64601 20.4853C1.37372 18.2348 0.097168 15.1826 0.097168 12H0.097168ZM11.5222 17.136L18.4981 8.4992L17.238 7.5008L11.2896 14.8624L7.07627 11.3856L6.04233 12.6144L11.5222 17.1376V17.136Z" fill="#039D00"/>
</g>
<defs>
<clipPath id="clip0_900_45">
<rect width="24.233" height="24" fill="white" transform="translate(0.097168)"/>
</clipPath>
</defs>
</svg>
