<svg width="184" height="184" viewBox="0 0 184 184" fill="none" xmlns="http://www.w3.org/2000/svg">
<circle cx="92" cy="92" r="92" fill="#81F770" fill-opacity="0.1"/>
<circle cx="92" cy="92" r="69" fill="#81F770" fill-opacity="0.4"/>
<circle cx="92" cy="92" r="46" fill="#81F770"/>
<path d="M103.88 79.8799C104.443 79.3435 105.193 79.0469 105.971 79.0528C106.749 79.0587 107.495 79.3666 108.05 79.9115C108.605 80.4564 108.927 81.1957 108.948 81.9734C108.968 82.7512 108.686 83.5065 108.16 84.0799L92.2 104.04C91.9256 104.336 91.5944 104.573 91.2261 104.737C90.8579 104.902 90.4603 104.991 90.057 104.998C89.6537 105.006 89.2531 104.932 88.879 104.781C88.505 104.63 88.1652 104.405 87.88 104.12L77.296 93.5359C77.0013 93.2613 76.7649 92.9301 76.6009 92.5621C76.4369 92.1941 76.3488 91.7968 76.3417 91.394C76.3345 90.9912 76.4086 90.5911 76.5595 90.2176C76.7104 89.844 76.935 89.5047 77.2199 89.2198C77.5047 88.9349 77.8441 88.7103 78.2176 88.5595C78.5912 88.4086 78.9913 88.3345 79.3941 88.3416C79.7969 88.3487 80.1942 88.4369 80.5622 88.6008C80.9302 88.7648 81.2614 89.0012 81.536 89.2959L89.912 97.6679L103.804 79.9679C103.829 79.9372 103.856 79.9078 103.884 79.8799H103.88Z" fill="white"/>
</svg>
