<svg width="22" height="22" viewBox="0 0 22 22" fill="none" xmlns="http://www.w3.org/2000/svg">
<g clip-path="url(#clip0_882_5999)">
<path d="M18.3333 6.90365C17.7986 7.14236 17.2209 7.30469 16.6003 7.39062C17.2496 7.00868 17.6936 6.45009 17.9323 5.71484C17.3116 6.07769 16.6719 6.32118 16.013 6.44531C15.4306 5.8151 14.7001 5.5 13.8216 5.5C12.9909 5.5 12.2819 5.79362 11.6947 6.38086C11.1074 6.9681 10.8138 7.67708 10.8138 8.50781C10.8138 8.78472 10.8377 9.01389 10.8854 9.19531C9.65365 9.12847 8.49826 8.81814 7.41927 8.26432C6.34028 7.7105 5.42361 6.97049 4.66927 6.04427C4.39236 6.5217 4.25391 7.02778 4.25391 7.5625C4.25391 8.65104 4.68837 9.48655 5.55729 10.069C5.10851 10.0595 4.63108 9.93533 4.125 9.69662V9.72526C4.125 10.4414 4.36372 11.0788 4.84115 11.6374C5.31858 12.196 5.90582 12.5421 6.60286 12.6758C6.32595 12.7522 6.08247 12.7904 5.8724 12.7904C5.74826 12.7904 5.56207 12.7713 5.3138 12.7331C5.51432 13.3346 5.87001 13.8312 6.38086 14.2227C6.89171 14.6142 7.47179 14.8147 8.12109 14.8242C7.01345 15.6836 5.76736 16.1133 4.38281 16.1133C4.13455 16.1133 3.89583 16.099 3.66667 16.0703C5.07986 16.9679 6.61719 17.4167 8.27865 17.4167C9.34809 17.4167 10.3507 17.2472 11.2865 16.9082C12.2222 16.5692 13.0243 16.1157 13.6927 15.5475C14.3611 14.9794 14.9364 14.3253 15.4186 13.5853C15.9008 12.8453 16.2589 12.0718 16.4928 11.265C16.7268 10.4581 16.8438 9.65365 16.8438 8.85156C16.8438 8.67969 16.839 8.55078 16.8294 8.46484C17.431 8.03516 17.9323 7.51476 18.3333 6.90365ZM22 4.125V17.875C22 19.0113 21.5966 19.9829 20.7897 20.7897C19.9829 21.5966 19.0113 22 17.875 22H4.125C2.98872 22 2.01714 21.5966 1.21029 20.7897C0.403429 19.9829 0 19.0113 0 17.875V4.125C0 2.98872 0.403429 2.01714 1.21029 1.21029C2.01714 0.403429 2.98872 0 4.125 0H17.875C19.0113 0 19.9829 0.403429 20.7897 1.21029C21.5966 2.01714 22 2.98872 22 4.125Z" fill="black"/>
</g>
<defs>
<clipPath id="clip0_882_5999">
<rect width="22" height="22" fill="white"/>
</clipPath>
</defs>
</svg>
