<svg width="329" height="299" viewBox="0 0 329 299" fill="none" xmlns="http://www.w3.org/2000/svg">
<g clip-path="url(#clip0_601_3467)">
<path d="M164.5 106.725H164.5C170.494 106.725 176.429 107.908 181.967 110.206C187.504 112.504 192.536 115.873 196.774 120.12C201.013 124.367 204.375 129.409 206.668 134.958C208.962 140.507 210.143 146.454 210.143 152.46V262.038H118.857V152.46C118.857 146.454 120.038 140.507 122.332 134.958C124.626 129.409 127.988 124.367 132.226 120.12C136.464 115.873 141.496 112.504 147.033 110.206C152.571 107.908 158.506 106.725 164.5 106.725Z" fill="#E6E6E6"/>
<path d="M148.665 161.711H140.468V188.966H148.665V161.711Z" fill="white"/>
<path d="M178.1 191.206H150.9V215.846H178.1V191.206Z" fill="white"/>
<path d="M178.1 161.711H150.9V188.966H178.1V161.711Z" fill="white"/>
<path d="M180.335 159.471H188.532V158.911C188.535 155.481 187.805 152.091 186.391 148.968C184.977 145.845 182.912 143.061 180.335 140.804V159.471Z" fill="white"/>
<path d="M150.9 159.471H178.1V139.058C174.1 136.298 169.357 134.823 164.5 134.829C159.643 134.823 154.9 136.298 150.9 139.058V159.471Z" fill="white"/>
<path d="M148.665 191.206H140.468V209.873C140.468 211.457 141.096 212.977 142.214 214.097C143.332 215.217 144.848 215.846 146.429 215.846H148.665V191.206Z" fill="white"/>
<path d="M180.335 191.206V215.846H182.571C184.152 215.846 185.668 215.217 186.786 214.097C187.904 212.977 188.532 211.457 188.532 209.873V191.206H180.335Z" fill="white"/>
<path d="M148.665 159.471V140.804C146.088 143.061 144.023 145.845 142.609 148.968C141.195 152.091 140.465 155.481 140.468 158.911V159.471H148.665Z" fill="white"/>
<path d="M188.532 161.711H180.335V188.966H188.532V161.711Z" fill="white"/>
<path d="M203.623 197.926C206.298 197.926 208.466 195.753 208.466 193.072C208.466 190.392 206.298 188.219 203.623 188.219C200.947 188.219 198.779 190.392 198.779 193.072C198.779 195.753 200.947 197.926 203.623 197.926Z" fill="#3F3D56"/>
<path d="M50.9176 146.491H44.4839V167.882H50.9176V146.491Z" fill="#F2F2F2"/>
<path d="M74.0205 146.491H52.6724V167.882H74.0205V146.491Z" fill="#F2F2F2"/>
<path d="M82.2086 146.491H75.7749V167.882H82.2086V146.491Z" fill="#F2F2F2"/>
<path d="M75.7749 144.732H82.2086V144.293C82.2109 141.601 81.6379 138.94 80.5282 136.489C79.4184 134.037 77.7977 131.853 75.7749 130.082V144.732Z" fill="#F2F2F2"/>
<path d="M74.0205 169.64H52.6724V188.98H74.0205V169.64Z" fill="#F2F2F2"/>
<path d="M50.9176 169.64H44.4839V184.292C44.4839 185.535 44.9769 186.728 45.8544 187.607C46.7318 188.486 47.922 188.98 49.1629 188.98H50.9176L50.9176 169.64Z" fill="#F2F2F2"/>
<path d="M75.7749 169.64V188.98H77.5295C78.144 188.98 78.7524 188.859 79.3201 188.624C79.8878 188.388 80.4036 188.043 80.8381 187.607C81.2726 187.172 81.6173 186.655 81.8524 186.086C82.0876 185.517 82.2086 184.908 82.2086 184.292V169.64H75.7749Z" fill="#F2F2F2"/>
<path d="M50.9176 144.732V130.082C48.8948 131.853 47.2741 134.037 46.1643 136.489C45.0546 138.94 44.4816 141.601 44.4839 144.293V144.732H50.9176Z" fill="#F2F2F2"/>
<path d="M52.6724 144.733H74.0205V128.711C70.8813 126.545 67.1582 125.387 63.3464 125.392C59.5346 125.387 55.8116 126.545 52.6724 128.711V144.733Z" fill="#F2F2F2"/>
<path d="M90.6112 191.318H36.2173C35.8684 191.317 35.5339 191.178 35.2872 190.931C35.0405 190.684 34.9017 190.349 34.9014 189.999V186.483C34.9018 186.133 35.0405 185.798 35.2872 185.551C35.5339 185.303 35.8684 185.164 36.2173 185.164H90.6112C90.9601 185.164 91.2946 185.303 91.5413 185.551C91.788 185.798 91.9268 186.133 91.9272 186.483V189.999C91.9268 190.349 91.788 190.684 91.5413 190.931C91.2946 191.178 90.9601 191.317 90.6112 191.318Z" fill="#E6E6E6"/>
<path d="M253.236 146.491H246.802V167.882H253.236V146.491Z" fill="#F2F2F2"/>
<path d="M276.338 146.491H254.99V167.882H276.338V146.491Z" fill="#F2F2F2"/>
<path d="M284.527 146.491H278.093V167.882H284.527V146.491Z" fill="#F2F2F2"/>
<path d="M278.093 144.732H284.527V144.293C284.529 141.601 283.956 138.94 282.847 136.489C281.737 134.037 280.116 131.853 278.093 130.082V144.732Z" fill="#F2F2F2"/>
<path d="M276.338 169.64H254.99V188.98H276.338V169.64Z" fill="#F2F2F2"/>
<path d="M253.236 169.64H246.802V184.292C246.802 185.535 247.295 186.728 248.173 187.607C249.05 188.486 250.24 188.98 251.481 188.98H253.236L253.236 169.64Z" fill="#F2F2F2"/>
<path d="M278.093 169.64V188.98H279.848C280.462 188.98 281.071 188.859 281.638 188.624C282.206 188.388 282.722 188.043 283.156 187.607C283.591 187.172 283.936 186.655 284.171 186.086C284.406 185.517 284.527 184.908 284.527 184.292V169.64H278.093Z" fill="#F2F2F2"/>
<path d="M253.236 144.732V130.082C251.213 131.853 249.592 134.037 248.483 136.489C247.373 138.94 246.8 141.601 246.802 144.293V144.732H253.236Z" fill="#F2F2F2"/>
<path d="M254.99 144.733H276.338V128.711C273.199 126.545 269.476 125.387 265.664 125.392C261.852 125.387 258.129 126.545 254.99 128.711V144.733Z" fill="#F2F2F2"/>
<path d="M292.93 191.318H238.536C238.187 191.317 237.852 191.178 237.606 190.931C237.359 190.684 237.22 190.349 237.22 189.999V186.483C237.22 186.133 237.359 185.798 237.606 185.551C237.852 185.303 238.187 185.164 238.536 185.164H292.93C293.278 185.164 293.613 185.303 293.86 185.551C294.106 185.798 294.245 186.133 294.246 186.483V189.999C294.245 190.349 294.106 190.684 293.86 190.931C293.613 191.178 293.278 191.317 292.93 191.318Z" fill="#E6E6E6"/>
<path d="M309.066 262.412H19.9338C16.6739 262.408 13.5486 261.109 11.2435 258.799C8.93847 256.489 7.64187 253.358 7.63818 250.091V62.2959C7.64187 59.0294 8.93847 55.8978 11.2435 53.588C13.5486 51.2783 16.6739 49.979 19.9338 49.9753H309.066C312.326 49.979 315.451 51.2783 317.757 53.588C320.062 55.8978 321.358 59.0294 321.362 62.2959V250.091C321.358 253.358 320.062 256.489 317.757 258.799C315.451 261.109 312.326 262.408 309.066 262.412ZM19.9338 50.722C16.8715 50.7255 13.9356 51.946 11.7702 54.1158C9.60487 56.2856 8.38684 59.2274 8.38337 62.2959V250.091C8.38684 253.16 9.60487 256.102 11.7702 258.271C13.9356 260.441 16.8715 261.662 19.9338 261.665H309.066C312.129 261.662 315.064 260.441 317.23 258.271C319.395 256.102 320.613 253.16 320.617 250.091V62.2959C320.613 59.2274 319.395 56.2856 317.23 54.1158C315.064 51.946 312.129 50.7255 309.066 50.722H19.9338Z" fill="#CCCCCC"/>
<path d="M12.3136 74.5303C9.21834 74.5279 6.23732 73.3585 3.96323 71.2544C1.68914 69.1503 0.288522 66.2658 0.0398551 63.1743C-0.208812 60.0827 0.71268 57.0107 2.62112 54.5688C4.52957 52.127 7.28518 50.4942 10.3401 49.9951L161.447 0.245791C163.411 -0.0794649 165.414 -0.0819281 167.378 0.238499L318.686 50.0033C321.908 50.536 324.787 52.3285 326.691 54.9871C328.594 57.6456 329.367 60.9527 328.839 64.1817C328.31 67.4107 326.524 70.2974 323.873 72.2076C321.222 74.1178 317.922 74.8952 314.699 74.369C313.069 74.1356 165.84 53.0707 164.497 53.0153C163.16 53.0707 15.7868 74.1562 14.2984 74.3694C13.6422 74.4765 12.9784 74.5303 12.3136 74.5303Z" fill="#CCCCCC"/>
<path d="M229.307 232.749C229.619 232.344 229.838 231.875 229.95 231.375C230.061 230.876 230.061 230.358 229.951 229.858C229.841 229.358 229.623 228.889 229.312 228.482C229.001 228.076 228.606 227.743 228.152 227.507L228.843 219.537L224.112 217.935L223.294 229.204C222.949 229.993 222.904 230.882 223.168 231.702C223.433 232.522 223.988 233.216 224.73 233.653C225.471 234.09 226.346 234.239 227.19 234.073C228.034 233.906 228.787 233.435 229.307 232.749Z" fill="#FFB8B8"/>
<path d="M252.918 294.715L248.658 294.715L246.633 278.252L252.92 278.252L252.918 294.715Z" fill="#FFB8B8"/>
<path d="M245.616 293.495H253.831V298.678H240.443C240.443 297.998 240.577 297.324 240.837 296.695C241.097 296.066 241.478 295.495 241.958 295.013C242.439 294.532 243.009 294.15 243.636 293.89C244.264 293.629 244.936 293.495 245.616 293.495Z" fill="#2F2E41"/>
<path d="M243.249 283.791L239.112 284.81L233.223 269.307L239.328 267.804L243.249 283.791Z" fill="#FFB8B8"/>
<path d="M235.867 284.353L243.845 282.389L245.079 287.422L232.078 290.623C231.916 289.962 231.886 289.276 231.988 288.603C232.091 287.93 232.325 287.284 232.677 286.702C233.029 286.12 233.492 285.612 234.039 285.21C234.586 284.807 235.208 284.516 235.867 284.353Z" fill="#2F2E41"/>
<path d="M247.932 289.467C247.544 289.468 247.168 289.324 246.88 289.063C246.591 288.802 246.409 288.443 246.369 288.056L241.467 242.301L237.202 256.292L243.243 278.145C243.347 278.52 243.309 278.92 243.137 279.268C242.965 279.617 242.67 279.889 242.31 280.033L237.507 281.958C237.309 282.038 237.098 282.076 236.885 282.071C236.672 282.066 236.462 282.018 236.268 281.929C236.075 281.841 235.901 281.714 235.757 281.556C235.614 281.398 235.504 281.213 235.433 281.012L228.03 259.727C227.219 257.403 226.861 254.945 226.973 252.486L228.007 229.516L255.222 230.671L254.797 287.5C254.792 287.896 254.64 288.275 254.37 288.565C254.101 288.854 253.733 289.032 253.34 289.063L248.054 289.462C248.014 289.465 247.973 289.467 247.932 289.467Z" fill="#2F2E41"/>
<path d="M243.425 178.683C248.479 178.683 252.576 174.577 252.576 169.513C252.576 164.449 248.479 160.343 243.425 160.343C238.371 160.343 234.274 164.449 234.274 169.513C234.274 174.577 238.371 178.683 243.425 178.683Z" fill="#FFB8B8"/>
<path d="M250.155 232.165C247.745 232.165 244.75 231.968 241.653 231.764C237.42 231.484 233.044 231.196 229.777 231.385C229.336 231.429 228.891 231.359 228.484 231.182C228.078 231.004 227.723 230.726 227.455 230.372C224.087 226.051 229.282 209.2 229.504 208.485L233.732 189.643L233.914 189.684L233.732 189.643C234.662 185.499 237.634 182.442 241.487 181.665C245.093 180.939 248.582 182.386 250.82 185.539C250.938 185.706 251.057 185.877 251.176 186.053C258.46 196.864 254.34 223.723 254.064 225.457C254.449 225.918 256.53 228.53 255.958 230.344C255.725 231.082 255.093 231.585 254.079 231.839C252.787 232.095 251.471 232.205 250.155 232.165Z" fill="#CCCCCC"/>
<path d="M229.924 232.174C229.096 232.174 227.978 231.867 226.47 231.239C225.822 230.968 223.85 230.146 226.244 209.184C227.42 198.887 229.104 188.662 229.121 188.56L229.137 188.461L229.228 188.42C229.271 188.4 233.573 186.424 234.321 183.885C234.347 183.797 234.376 183.712 234.408 183.63C234.614 183.065 235.029 182.602 235.568 182.337C236.106 182.072 236.726 182.026 237.297 182.208C237.901 182.352 238.427 182.722 238.769 183.241C239.111 183.76 239.243 184.39 239.139 185.004C238.878 186.66 238.377 188.269 237.652 189.779C235.628 193.965 234.256 205.06 234.243 205.171C234.165 206.119 232.328 228.57 231.974 230.274C231.85 230.869 231.623 231.597 230.955 231.95C230.635 232.108 230.281 232.185 229.924 232.174Z" fill="#2F2E41"/>
<path d="M239.922 231.313C239.755 231.313 239.592 231.257 239.46 231.155C236.768 229.104 241.125 204.254 243.709 195.68C244.227 193.964 244.688 192.493 245.079 191.31C245.792 189.187 246.29 186.997 246.565 184.774C246.708 183.569 247.017 182.882 247.511 182.671C247.854 182.524 248.258 182.624 248.71 182.967C251.097 182.849 253.417 183.826 255.567 184.901L257.501 185.869L259.672 224.379C259.611 226.837 254.776 228.572 252.666 228.683C249.28 228.861 243.199 229.413 240.519 231.113C240.343 231.236 240.136 231.305 239.922 231.313Z" fill="#2F2E41"/>
<path d="M227.828 224.088C227.796 224.088 227.764 224.087 227.732 224.085L223.347 223.815C223.129 223.801 222.916 223.742 222.722 223.642C222.527 223.541 222.356 223.402 222.218 223.231C222.081 223.061 221.98 222.863 221.923 222.652C221.866 222.44 221.853 222.219 221.886 222.003L223.87 208.831L227.605 190.351C227.697 189.896 227.883 189.465 228.152 189.087C228.421 188.709 228.766 188.391 229.165 188.155C229.564 187.919 230.009 187.769 230.469 187.716C230.93 187.663 231.396 187.707 231.838 187.846C232.594 188.088 233.239 188.593 233.656 189.269C234.074 189.946 234.236 190.749 234.114 191.535L231.146 210.052L229.39 222.726C229.336 223.103 229.148 223.448 228.862 223.698C228.575 223.948 228.208 224.086 227.828 224.088Z" fill="#2F2E41"/>
<path d="M245.097 178.457C246.474 178.487 247.842 178.224 249.111 177.687C250.38 177.149 251.521 176.348 252.459 175.337C253.397 174.326 254.11 173.128 254.553 171.821C254.996 170.513 255.158 169.127 255.028 167.753C254.898 166.379 254.479 165.048 253.799 163.847C253.119 162.646 252.194 161.604 251.083 160.787C249.972 159.971 248.701 159.399 247.354 159.109C246.007 158.82 244.614 158.82 243.267 159.108C241.255 157.884 238.915 157.06 236.57 157.269C234.225 157.479 231.906 158.874 231.029 161.063C230.152 163.253 231.094 166.139 233.274 167.029C234.672 167.599 236.251 167.322 237.743 167.092C239.235 166.862 240.862 166.712 242.16 167.483C243.459 168.255 244.042 170.323 242.88 171.287C242.263 171.819 241.823 172.526 241.618 173.314C241.412 174.103 241.452 174.935 241.73 175.7C242.315 177.215 243.91 178.431 245.097 178.457Z" fill="#2F2E41"/>
<path d="M224.812 179.275C222.427 179.277 220.14 180.227 218.454 181.918C216.768 183.608 215.821 185.9 215.821 188.29C215.821 190.68 216.768 192.972 218.454 194.662C220.14 196.353 222.426 197.303 224.812 197.305H224.812C227.197 197.303 229.483 196.353 231.169 194.662C232.855 192.972 233.802 190.68 233.802 188.29C233.802 185.9 232.855 183.608 231.169 181.918C229.483 180.227 227.197 179.277 224.812 179.275Z" fill="#FFC700"/>
<path d="M223.958 192.034C223.721 192.034 223.491 191.957 223.301 191.815L223.289 191.806L220.815 189.91C220.701 189.822 220.605 189.712 220.532 189.587C220.46 189.461 220.413 189.323 220.394 189.18C220.375 189.036 220.385 188.891 220.422 188.751C220.459 188.611 220.524 188.48 220.612 188.365C220.7 188.25 220.809 188.154 220.934 188.082C221.059 188.009 221.197 187.962 221.34 187.943C221.483 187.924 221.629 187.934 221.768 187.971C221.908 188.009 222.039 188.073 222.153 188.161L223.756 189.392L227.542 184.442C227.63 184.327 227.74 184.231 227.865 184.159C227.99 184.086 228.128 184.039 228.271 184.02C228.414 184.002 228.559 184.011 228.699 184.048C228.838 184.086 228.969 184.15 229.083 184.238L229.084 184.239L229.06 184.271L229.084 184.239C229.315 184.416 229.466 184.679 229.505 184.969C229.543 185.258 229.465 185.551 229.287 185.783L224.833 191.603C224.73 191.737 224.598 191.845 224.446 191.92C224.295 191.994 224.128 192.033 223.959 192.032L223.958 192.034Z" fill="white"/>
<path d="M243.763 204.273H212.188C211.768 204.273 211.352 204.355 210.964 204.516C210.576 204.677 210.223 204.913 209.926 205.211C209.63 205.508 209.394 205.862 209.233 206.25C209.073 206.639 208.99 207.056 208.99 207.477V239.116C208.99 239.537 209.073 239.954 209.233 240.342C209.394 240.731 209.63 241.084 209.926 241.382C210.223 241.679 210.576 241.915 210.964 242.076C211.352 242.237 211.768 242.32 212.188 242.32H243.763C244.183 242.32 244.599 242.237 244.987 242.076C245.375 241.915 245.727 241.679 246.024 241.382C246.321 241.084 246.557 240.731 246.717 240.342C246.878 239.954 246.961 239.537 246.96 239.116V207.477C246.961 207.056 246.878 206.639 246.717 206.25C246.557 205.862 246.321 205.508 246.024 205.211C245.727 204.913 245.375 204.677 244.987 204.516C244.599 204.355 244.183 204.273 243.763 204.273Z" fill="#FFC700"/>
<path d="M236.652 227.931L221.744 230.84C220.86 231.012 219.943 230.825 219.197 230.32C218.45 229.816 217.933 229.035 217.76 228.15L216.614 222.253C216.443 221.367 216.629 220.449 217.133 219.7C217.636 218.952 218.415 218.434 219.299 218.261L234.207 215.352C235.091 215.18 236.008 215.367 236.754 215.872C237.501 216.376 238.018 217.157 238.191 218.042L239.337 223.939C239.508 224.825 239.322 225.743 238.818 226.492C238.315 227.24 237.536 227.758 236.652 227.931Z" fill="white"/>
<path d="M233.669 220.965L222.292 223.185C222.084 223.226 221.868 223.182 221.692 223.063C221.517 222.944 221.395 222.761 221.355 222.552C221.314 222.343 221.358 222.127 221.476 221.951C221.595 221.775 221.778 221.653 221.986 221.613L233.364 219.393C233.467 219.372 233.573 219.373 233.676 219.394C233.779 219.414 233.876 219.455 233.964 219.514C234.051 219.573 234.125 219.648 234.183 219.736C234.241 219.824 234.282 219.922 234.302 220.026C234.322 220.129 234.321 220.235 234.3 220.338C234.28 220.441 234.239 220.539 234.18 220.627C234.121 220.714 234.046 220.789 233.958 220.847C233.87 220.905 233.772 220.945 233.669 220.965Z" fill="#FFC700"/>
<path d="M231.458 224.253L225.573 225.401C225.47 225.421 225.364 225.421 225.261 225.4C225.158 225.379 225.061 225.338 224.974 225.279C224.887 225.22 224.812 225.145 224.754 225.057C224.696 224.969 224.656 224.871 224.636 224.768C224.616 224.665 224.616 224.559 224.637 224.455C224.658 224.352 224.699 224.254 224.758 224.167C224.816 224.08 224.892 224.005 224.979 223.947C225.067 223.889 225.165 223.849 225.268 223.829L231.152 222.68C231.361 222.64 231.576 222.684 231.752 222.802C231.928 222.921 232.049 223.105 232.09 223.313C232.13 223.522 232.087 223.738 231.968 223.914C231.85 224.09 231.666 224.212 231.458 224.253H231.458Z" fill="#FFC700"/>
<path d="M246.96 207.477V211.682H208.99V207.477C208.99 207.056 209.073 206.639 209.233 206.25C209.394 205.862 209.63 205.508 209.927 205.211C210.223 204.913 210.576 204.677 210.964 204.516C211.352 204.355 211.768 204.273 212.188 204.273H243.763C244.183 204.273 244.599 204.355 244.987 204.516C245.375 204.677 245.727 204.913 246.024 205.211C246.321 205.508 246.557 205.862 246.717 206.25C246.878 206.639 246.961 207.056 246.96 207.477Z" fill="#3F3D56"/>
<path d="M242.807 209.671C243.075 209.235 243.434 208.863 243.861 208.581C244.287 208.299 244.77 208.115 245.275 208.04C245.781 207.966 246.296 208.003 246.786 208.15C247.275 208.296 247.726 208.549 248.108 208.889L255.297 205.41L258.473 209.272L248.251 214.043C247.638 214.647 246.825 215.005 245.966 215.048C245.107 215.092 244.262 214.819 243.591 214.28C242.92 213.741 242.47 212.974 242.325 212.124C242.181 211.275 242.352 210.402 242.807 209.671Z" fill="#FFB8B8"/>
<path d="M252.794 213.408C252.44 213.408 252.096 213.288 251.818 213.069C251.54 212.849 251.344 212.542 251.261 212.198L250.217 207.848C250.137 207.521 250.164 207.177 250.294 206.866C250.424 206.556 250.651 206.295 250.939 206.123L257.237 202.347L254.018 190.536C253.791 189.697 253.841 188.806 254.159 187.997H254.159C254.463 187.23 254.995 186.576 255.684 186.123C256.372 185.67 257.183 185.44 258.006 185.466C258.829 185.491 259.625 185.77 260.284 186.264C260.943 186.759 261.434 187.445 261.691 188.229L265.245 199.103C265.681 200.428 265.685 201.859 265.255 203.186C264.824 204.514 263.983 205.669 262.852 206.485L253.717 213.108C253.449 213.303 253.125 213.408 252.794 213.408Z" fill="#2F2E41"/>
<path d="M263.2 299H225.196C225.097 299 225.002 298.961 224.932 298.891C224.863 298.821 224.823 298.726 224.823 298.627C224.823 298.528 224.863 298.433 224.932 298.363C225.002 298.293 225.097 298.253 225.196 298.253H263.2C263.299 298.253 263.394 298.293 263.464 298.363C263.534 298.433 263.573 298.528 263.573 298.627C263.573 298.726 263.534 298.821 263.464 298.891C263.394 298.961 263.299 299 263.2 299Z" fill="#CCCCCC"/>
</g>
<defs>
<clipPath id="clip0_601_3467">
<rect width="329" height="299" fill="white"/>
</clipPath>
</defs>
</svg>
