<svg width="22" height="17" viewBox="0 0 22 17" fill="none" xmlns="http://www.w3.org/2000/svg">
<path d="M20.9 0H1.1C0.808262 0 0.528472 0.127934 0.322183 0.355656C0.115892 0.583379 0 0.892237 0 1.21429V6.07143H0.9823C2.0779 6.07143 3.0943 6.89836 3.2703 8.092C3.32392 8.44055 3.30799 8.79781 3.22362 9.13886C3.13926 9.47991 2.98849 9.79652 2.78184 10.0666C2.57519 10.3367 2.31764 10.5538 2.02715 10.7026C1.73667 10.8515 1.42026 10.9286 1.1 10.9286H0V15.7857C0 16.1078 0.115892 16.4166 0.322183 16.6443C0.528472 16.8721 0.808262 17 1.1 17H20.9C21.1917 17 21.4715 16.8721 21.6778 16.6443C21.8841 16.4166 22 16.1078 22 15.7857V10.9286H20.9C20.5797 10.9286 20.2633 10.8515 19.9728 10.7026C19.6824 10.5538 19.4248 10.3367 19.2182 10.0666C19.0115 9.79652 18.8607 9.47991 18.7764 9.13886C18.692 8.79781 18.6761 8.44055 18.7297 8.092C18.9057 6.89836 19.9221 6.07143 21.0177 6.07143H22V1.21429C22 0.892237 21.8841 0.583379 21.6778 0.355656C21.4715 0.127934 21.1917 0 20.9 0ZM9.9 14.5714H7.7V12.1429H9.9V14.5714ZM9.9 9.71429H7.7V7.28571H9.9V9.71429ZM9.9 4.85714H7.7V2.42857H9.9V4.85714Z" fill="#222222"/>
</svg>
